{"glyphs":{"0":{"ha":846,"x_min":92,"x_max":754,"o":"m 408 -8 q 246 53 318 -8 q 133 219 174 115 q 92 443 92 324 q 138 689 92 574 q 265 874 185 804 q 439 943 344 943 q 600 881 528 943 q 713 715 672 819 q 754 490 754 611 q 708 244 754 358 q 581 60 661 129 q 408 -8 501 -8 m 408 78 q 537 133 476 78 q 634 283 597 189 q 671 488 671 378 q 640 669 671 585 q 557 806 610 754 q 439 857 504 857 q 309 801 369 857 q 213 651 249 746 q 176 446 176 556 q 206 265 176 350 q 289 129 236 181 q 408 78 342 78 z "},"1":{"ha":550,"x_min":88,"x_max":476,"o":"m 135 0 q 104 13 117 0 q 92 43 92 25 q 104 74 92 61 q 135 88 117 88 l 251 88 l 263 783 l 163 676 q 131 663 150 663 q 100 676 113 663 q 88 707 88 689 q 100 736 88 724 l 275 926 q 290 936 281 932 q 306 940 299 940 q 338 927 325 940 q 350 896 350 914 l 339 88 l 431 88 q 464 74 451 88 q 476 43 476 61 q 463 13 476 25 q 433 0 450 0 l 135 0 z "},"2":{"ha":726,"x_min":83,"x_max":647,"o":"m 90 42 q 124 231 90 153 q 213 360 158 308 q 349 465 267 413 q 459 539 422 511 q 522 607 496 567 q 547 700 547 647 q 497 807 547 764 q 372 850 446 850 q 249 815 301 850 q 171 751 196 781 q 149 730 157 736 q 128 724 142 724 q 96 738 108 724 q 83 768 83 751 q 92 793 83 781 q 124 826 100 806 q 372 936 236 936 q 507 905 447 936 q 601 819 567 874 q 635 700 635 765 q 603 572 635 625 q 528 483 572 518 q 404 396 483 447 q 292 313 336 351 q 215 219 247 275 q 179 86 183 163 l 603 86 q 634 73 621 86 q 647 42 647 60 q 634 13 647 25 q 603 0 621 0 l 90 0 l 90 42 z "},"3":{"ha":703,"x_min":50,"x_max":615,"o":"m 328 -8 q 187 23 246 -8 q 97 89 128 54 q 57 144 67 124 q 50 172 50 156 q 62 201 50 190 q 92 213 74 213 q 131 189 119 213 q 201 115 153 150 q 325 79 249 79 q 422 101 375 79 q 499 169 469 124 q 529 278 529 214 q 489 400 529 354 q 396 464 449 446 q 301 482 343 482 q 272 494 283 482 q 260 525 260 507 q 272 556 260 544 q 303 568 285 568 q 398 591 350 568 q 476 651 446 614 q 507 732 507 689 q 485 792 507 763 q 423 839 464 821 q 326 857 382 857 q 229 842 265 857 q 164 804 193 826 q 133 790 146 790 q 101 803 113 790 q 90 833 90 817 q 138 892 90 861 q 222 929 174 914 q 326 944 271 944 q 462 916 400 944 q 559 839 524 888 q 594 732 594 790 q 558 616 594 669 q 463 528 522 563 q 576 428 536 494 q 615 278 615 361 q 569 116 615 181 q 457 22 524 51 q 328 -8 390 -8 z "},"4":{"ha":672,"x_min":47,"x_max":600,"o":"m 472 -8 q 441 5 454 -8 q 428 35 428 18 l 428 219 l 90 225 q 60 238 72 225 q 47 268 47 251 q 54 292 47 281 l 433 917 q 472 939 447 939 q 503 927 492 939 q 515 896 515 915 l 515 306 l 558 304 q 588 292 575 304 q 600 261 600 279 q 588 230 600 243 q 558 217 575 217 l 515 218 l 515 35 q 502 5 515 18 q 472 -8 489 -8 m 428 740 l 168 311 l 428 307 l 428 740 z "},"5":{"ha":753,"x_min":71,"x_max":667,"o":"m 350 -8 q 219 19 278 -8 q 125 81 161 46 q 76 144 89 117 q 71 165 71 151 q 84 196 71 183 q 115 208 97 208 q 137 203 129 208 q 153 186 144 199 q 240 106 194 133 q 350 79 286 79 q 463 116 410 79 q 549 215 517 153 q 581 347 581 276 q 528 512 581 443 q 378 581 476 581 q 265 554 310 581 q 185 493 219 528 q 151 478 169 478 q 117 492 131 478 q 107 528 104 507 l 143 888 q 158 915 144 904 q 188 926 172 926 l 585 926 q 616 914 603 926 q 629 883 629 901 q 616 853 629 865 q 585 840 603 840 l 226 840 l 204 619 q 378 667 290 667 q 526 626 460 667 q 629 514 592 586 q 667 347 667 442 q 622 169 667 251 q 505 40 578 88 q 350 -8 432 -8 z "},"6":{"ha":753,"x_min":82,"x_max":665,"o":"m 379 -8 q 233 26 300 -8 q 124 139 165 61 q 82 339 82 217 q 192 712 82 567 q 450 931 301 857 q 478 938 467 938 q 507 926 496 938 q 518 897 518 915 q 512 874 518 883 q 494 860 506 864 q 318 737 394 815 q 206 561 242 658 q 400 614 297 614 q 535 581 475 614 q 630 485 594 549 q 665 332 665 422 q 627 153 665 231 q 524 34 589 76 q 379 -8 458 -8 m 381 75 q 485 107 439 75 q 558 197 532 139 q 585 332 585 256 q 533 481 585 431 q 400 531 482 531 q 262 500 319 531 q 171 436 204 469 q 164 339 164 396 q 222 140 164 204 q 381 75 281 75 z "},"7":{"ha":657,"x_min":53,"x_max":632,"o":"m 165 -8 q 135 5 147 -8 q 122 36 122 18 q 128 54 122 44 l 518 832 l 96 832 q 65 844 78 832 q 53 875 53 857 q 65 906 53 893 q 96 918 78 918 l 589 918 q 619 906 607 918 q 632 874 632 893 q 626 851 632 865 l 204 15 q 188 -2 200 4 q 165 -8 176 -8 z "},"8":{"ha":715,"x_min":71,"x_max":644,"o":"m 357 -8 q 209 25 275 -8 q 107 116 143 58 q 71 246 71 174 q 123 401 72 342 q 254 503 174 461 q 153 580 190 533 q 115 697 115 626 q 150 828 115 772 q 244 913 185 883 q 372 943 303 943 q 501 915 444 943 q 589 835 557 886 q 621 719 621 785 q 581 597 621 646 q 476 513 542 547 q 601 405 557 471 q 644 260 644 339 q 607 123 644 185 q 504 26 569 61 q 357 -8 439 -8 m 365 554 q 499 633 463 592 q 535 728 535 675 q 488 821 535 786 q 372 856 442 856 q 250 815 300 856 q 200 703 200 775 q 238 614 200 649 q 365 554 276 579 m 357 78 q 453 97 407 78 q 530 157 500 117 q 560 256 560 197 q 506 385 560 333 q 371 464 451 438 q 258 408 297 431 q 187 343 218 385 q 156 238 156 301 q 214 123 156 168 q 357 78 272 78 z "},"9":{"ha":738,"x_min":67,"x_max":650,"o":"m 256 -8 q 226 3 238 -8 q 214 32 214 15 q 238 71 214 60 q 415 197 338 119 q 528 368 492 274 q 333 315 436 315 q 198 348 258 315 q 102 444 138 381 q 67 597 67 508 q 105 776 67 699 q 208 896 143 854 q 354 938 274 938 q 569 850 488 938 q 650 590 650 763 q 544 225 650 371 q 282 -1 438 79 q 256 -8 268 -8 m 333 399 q 472 429 414 399 q 563 493 529 460 q 568 590 568 536 q 506 795 568 736 q 351 854 444 854 q 247 822 293 854 q 174 732 200 790 q 149 597 149 674 q 200 450 149 501 q 333 399 251 399 z "},"\r":{"ha":833,"x_min":0,"x_max":0,"o":""}," ":{"ha":464,"x_min":0,"x_max":0,"o":""},"!":{"ha":340,"x_min":115,"x_max":225,"o":"m 178 207 q 145 220 158 207 q 132 251 132 233 l 132 904 q 146 936 132 922 q 178 950 160 950 q 209 936 196 950 q 222 904 222 922 l 222 251 q 210 220 222 233 q 178 207 197 207 m 165 -8 q 129 8 143 -8 q 115 47 115 24 q 134 94 115 74 q 176 115 153 115 q 211 99 197 115 q 225 61 225 83 q 206 12 225 32 q 165 -8 188 -8 z "},"\"":{"ha":382,"x_min":61,"x_max":321,"o":"m 106 675 q 74 688 88 675 q 61 719 61 701 l 61 903 q 74 933 61 921 q 106 946 88 946 q 135 933 122 946 q 149 903 149 921 l 149 719 q 135 688 149 701 q 106 675 122 675 m 276 675 q 246 688 258 675 q 233 719 233 701 l 233 903 q 246 933 233 921 q 276 946 258 946 q 308 933 294 946 q 321 903 321 921 l 321 719 q 308 688 321 701 q 276 675 294 675 z "},"#":{"ha":1028,"x_min":82,"x_max":944,"o":"m 253 -8 q 222 4 233 -8 q 210 32 210 17 q 215 60 210 40 l 279 279 l 126 279 q 94 292 107 279 q 82 322 82 304 q 95 353 82 340 q 126 367 108 367 l 304 367 l 365 579 l 188 579 q 157 592 169 579 q 144 622 144 604 q 157 653 144 640 q 188 665 169 665 l 392 665 l 463 914 q 479 935 467 926 q 504 944 492 944 q 536 932 524 944 q 549 903 549 919 q 544 878 549 893 l 482 665 l 679 665 l 751 914 q 767 935 754 926 q 793 944 781 944 q 824 931 813 944 q 836 901 836 918 q 832 879 836 894 l 769 665 l 901 665 q 932 653 919 665 q 944 622 944 640 q 932 592 944 604 q 901 579 919 579 l 744 579 l 683 367 l 840 367 q 870 353 857 367 q 883 322 883 340 q 870 292 883 304 q 840 279 857 279 l 658 279 l 583 22 q 567 0 579 8 q 542 -8 556 -8 q 510 4 522 -8 q 499 35 499 17 q 504 61 499 49 l 567 279 l 369 279 l 294 22 q 279 1 292 10 q 253 -8 267 -8 m 592 367 l 654 579 l 457 579 l 394 367 l 592 367 z "},"$":{"ha":836,"x_min":69,"x_max":721,"o":"m 721 261 q 684 137 721 193 q 584 45 647 81 q 446 1 521 10 l 446 -67 q 434 -98 446 -85 q 406 -111 422 -111 q 378 -98 389 -111 q 367 -67 367 -85 l 367 0 q 185 58 260 7 q 76 186 110 108 q 69 215 69 207 q 83 247 69 233 q 115 260 96 260 q 161 225 147 260 q 238 128 181 168 q 368 81 294 89 l 369 454 q 121 697 121 532 q 187 847 121 786 q 368 922 253 908 l 368 988 q 379 1017 368 1004 q 407 1031 390 1031 q 436 1017 424 1031 q 449 988 449 1004 l 449 926 q 647 873 576 924 q 718 739 718 822 q 706 708 718 721 q 676 696 694 696 q 649 706 661 696 q 636 732 638 717 q 578 814 629 782 q 447 849 528 846 l 446 524 q 653 417 585 482 q 721 261 721 353 m 208 701 q 247 614 208 650 q 369 547 286 578 l 368 844 q 250 797 292 835 q 208 701 208 760 m 446 82 q 581 140 529 92 q 633 254 633 189 q 590 355 633 311 q 446 431 547 399 l 446 82 z "},"%":{"ha":1000,"x_min":82,"x_max":910,"o":"m 272 569 q 177 595 221 569 q 108 665 133 621 q 82 760 82 708 q 108 856 82 811 q 177 926 133 900 q 272 951 221 951 q 368 926 324 951 q 438 856 413 900 q 464 760 464 811 q 438 665 464 708 q 368 595 413 621 q 272 569 324 569 m 257 -8 q 228 3 239 -8 q 217 31 217 15 q 224 56 217 43 l 706 925 q 740 946 718 946 q 769 933 757 946 q 781 906 781 921 q 776 886 781 897 l 292 13 q 257 -8 282 -8 m 272 653 q 348 684 317 653 q 379 760 379 715 q 348 835 379 804 q 272 867 317 867 q 197 835 228 867 q 165 760 165 804 q 197 684 165 715 q 272 653 228 653 m 718 -19 q 623 6 667 -19 q 553 76 579 32 q 528 172 528 121 q 553 268 528 224 q 623 338 579 313 q 718 364 667 364 q 814 338 769 364 q 884 268 858 313 q 910 172 910 224 q 884 76 910 121 q 814 6 858 32 q 718 -19 769 -19 m 718 65 q 794 97 763 65 q 825 172 825 128 q 794 248 825 217 q 718 279 763 279 q 643 248 675 279 q 611 172 611 217 q 642 97 611 128 q 718 65 674 65 z "},"&":{"ha":894,"x_min":81,"x_max":819,"o":"m 364 -14 q 229 19 294 -14 q 122 110 164 51 q 81 244 81 168 q 110 372 81 318 q 186 460 140 425 q 300 532 232 496 q 200 747 200 649 q 229 844 200 799 q 306 918 258 890 q 406 946 353 946 q 506 918 458 946 q 583 844 554 890 q 613 750 613 799 q 571 615 613 669 q 435 510 529 561 l 622 286 q 653 371 633 310 q 670 408 661 399 q 699 418 679 418 q 728 407 717 418 q 739 378 739 396 q 719 301 739 357 q 682 215 699 246 l 811 60 q 819 33 819 49 q 808 4 819 17 q 778 -8 796 -8 q 760 -4 769 -8 q 746 7 751 0 l 635 139 q 494 18 569 50 q 364 -14 419 -14 m 376 574 q 481 640 447 610 q 522 693 514 669 q 529 747 529 717 q 491 826 529 790 q 406 861 453 861 q 322 828 361 861 q 283 747 283 794 q 312 659 283 706 q 376 574 340 613 m 364 71 q 467 99 408 71 q 579 206 526 126 l 360 469 q 253 406 293 433 q 190 339 214 378 q 165 244 165 300 q 197 149 165 189 q 274 90 228 110 q 364 71 321 71 z "},"'":{"ha":272,"x_min":94,"x_max":181,"o":"m 138 675 q 107 688 119 675 q 94 719 94 700 l 94 903 q 107 933 94 921 q 138 946 119 946 q 168 933 156 946 q 181 903 181 921 l 181 719 q 168 688 181 701 q 138 675 156 675 z "},"(":{"ha":481,"x_min":83,"x_max":421,"o":"m 360 -156 q 321 -137 336 -156 q 83 478 83 146 q 153 804 83 649 q 342 1072 222 960 q 378 1090 364 1090 q 408 1077 394 1090 q 421 1046 421 1064 q 406 1013 421 1026 q 299 887 353 965 q 208 703 246 808 q 171 478 171 597 q 231 172 171 317 q 388 -82 292 26 q 401 -114 401 -96 q 388 -143 401 -131 q 360 -156 375 -156 z "},")":{"ha":481,"x_min":60,"x_max":397,"o":"m 122 -156 q 92 -143 106 -156 q 79 -114 79 -131 q 93 -82 79 -94 q 247 164 182 13 q 311 478 311 315 q 243 781 311 640 q 76 1013 175 921 q 60 1046 60 1029 q 73 1077 60 1064 q 104 1090 86 1090 q 139 1072 117 1090 q 328 804 258 960 q 397 478 397 649 q 331 142 397 297 q 160 -137 265 -14 q 122 -156 147 -156 z "},"*":{"ha":547,"x_min":88,"x_max":458,"o":"m 171 607 q 142 618 154 607 q 129 646 129 629 q 160 704 129 674 q 229 760 189 736 q 140 778 186 765 q 88 829 88 793 q 99 860 88 847 q 131 872 111 872 q 189 851 157 872 q 247 811 199 846 q 233 853 239 826 q 226 907 226 879 q 240 948 226 933 q 272 963 253 963 q 306 948 293 963 q 318 908 318 933 q 313 854 318 882 q 301 811 307 826 q 364 852 332 835 q 415 869 396 869 q 446 858 433 869 q 458 829 458 846 q 407 776 458 792 q 358 765 383 768 q 319 760 333 763 q 378 714 346 744 q 415 650 415 681 q 404 619 415 632 q 375 607 393 607 q 343 618 357 607 q 311 654 329 629 q 274 729 293 682 q 236 654 258 686 q 171 607 197 607 z "},"+":{"ha":617,"x_min":74,"x_max":543,"o":"m 308 108 q 278 120 290 108 q 265 150 265 132 l 265 299 l 117 299 q 86 310 99 299 q 74 340 74 322 q 86 370 74 358 q 117 382 99 382 l 265 382 l 265 517 q 278 547 265 535 q 308 558 290 558 q 338 547 326 558 q 350 517 350 535 l 350 382 l 501 382 q 531 370 518 382 q 543 340 543 358 q 531 310 543 322 q 501 299 518 299 l 350 299 l 350 150 q 338 120 350 132 q 308 108 326 108 z "},",":{"ha":228,"x_min":43,"x_max":172,"o":"m 81 -136 q 54 -126 65 -136 q 43 -100 43 -115 q 46 -86 43 -94 l 78 -1 q 63 40 63 19 q 81 87 63 67 q 122 107 99 107 q 158 92 143 107 q 172 58 172 76 q 166 22 172 40 q 142 -40 160 4 l 129 -71 q 106 -124 114 -111 q 81 -136 97 -136 z "},"-":{"ha":558,"x_min":68,"x_max":490,"o":"m 111 297 q 81 310 94 297 q 68 339 68 322 q 81 368 68 356 q 111 381 94 381 l 449 381 q 478 369 467 381 q 490 339 490 357 q 478 310 490 322 q 449 297 467 297 l 111 297 z "},".":{"ha":213,"x_min":47,"x_max":157,"o":"m 97 -8 q 61 8 75 -8 q 47 49 47 25 q 65 95 47 75 q 107 115 83 115 q 142 99 128 115 q 157 61 157 83 q 139 12 157 32 q 97 -8 121 -8 z "},"/":{"ha":606,"x_min":43,"x_max":563,"o":"m 82 -169 q 54 -158 65 -169 q 43 -132 43 -147 q 47 -110 43 -121 l 488 933 q 524 953 497 953 q 551 941 539 953 q 563 917 563 929 q 557 894 563 906 q 550 882 551 883 l 115 -150 q 103 -165 113 -160 q 82 -169 94 -169 z "},":":{"ha":251,"x_min":47,"x_max":196,"o":"m 136 482 q 101 498 114 482 q 88 539 88 514 q 106 585 88 564 q 147 606 124 606 q 182 590 168 606 q 196 551 196 575 q 178 502 196 522 q 136 482 160 482 m 96 -8 q 60 8 74 -8 q 47 49 47 24 q 65 95 47 75 q 107 115 83 115 q 142 99 128 115 q 157 61 157 83 q 139 12 157 32 q 96 -8 121 -8 z "},";":{"ha":276,"x_min":43,"x_max":221,"o":"m 161 482 q 126 498 139 482 q 113 539 113 514 q 131 585 113 564 q 172 606 149 606 q 207 590 193 606 q 221 551 221 575 q 203 502 221 522 q 161 482 185 482 m 81 -136 q 54 -126 65 -136 q 43 -100 43 -115 q 46 -86 43 -94 l 78 -1 q 63 40 63 19 q 81 87 63 67 q 122 107 99 107 q 158 92 143 107 q 172 58 172 76 q 166 22 172 40 q 142 -40 160 4 l 129 -71 q 106 -124 114 -111 q 81 -136 97 -136 z "},"<":{"ha":710,"x_min":88,"x_max":638,"o":"m 568 3 q 543 10 557 3 l 107 299 q 92 315 97 304 q 88 336 88 325 q 93 356 88 346 q 108 372 99 367 l 571 668 q 594 675 582 675 q 624 662 611 675 q 638 631 638 649 q 632 610 638 621 q 617 594 626 600 l 211 335 l 592 83 q 606 67 601 78 q 611 46 611 57 q 599 16 611 29 q 568 3 586 3 z "},"=":{"ha":642,"x_min":82,"x_max":560,"o":"m 125 406 q 94 417 107 406 q 82 447 82 429 q 94 478 82 465 q 125 492 107 492 l 515 492 q 547 478 533 492 q 560 447 560 465 q 547 417 560 429 q 515 406 533 406 l 125 406 m 125 186 q 94 198 107 186 q 82 228 82 210 q 94 258 82 246 q 125 271 107 271 l 515 271 q 547 258 533 271 q 560 228 560 246 q 547 198 560 210 q 515 186 533 186 l 125 186 z "},">":{"ha":751,"x_min":101,"x_max":651,"o":"m 171 3 q 141 16 154 3 q 128 46 128 29 q 149 83 128 69 l 528 335 l 122 594 q 107 610 113 600 q 101 631 101 619 q 115 662 101 649 q 146 675 128 675 q 169 668 156 675 l 631 372 q 646 356 640 367 q 651 336 651 346 q 632 299 651 310 l 196 10 q 171 3 185 3 z "},"?":{"ha":696,"x_min":39,"x_max":606,"o":"m 231 231 q 201 243 213 231 q 189 274 189 256 q 204 304 189 293 q 371 453 299 385 q 426 503 381 461 q 497 592 471 546 q 522 688 522 639 q 467 831 522 771 q 297 890 413 890 q 194 863 238 890 q 110 789 150 835 q 83 778 101 778 q 52 790 65 778 q 39 821 39 803 q 69 871 39 838 q 167 944 108 914 q 297 975 225 975 q 459 939 389 975 q 567 838 529 903 q 606 688 606 772 q 577 561 606 617 q 517 473 549 506 q 425 390 485 440 l 314 290 l 268 250 q 231 231 249 231 m 185 -8 q 149 8 163 -8 q 135 49 135 25 q 153 95 135 75 q 194 115 171 115 q 230 99 215 115 q 244 61 244 83 q 226 12 244 32 q 185 -8 208 -8 z "},"@":{"ha":1156,"x_min":96,"x_max":1063,"o":"m 589 -139 q 342 -79 454 -139 q 163 90 229 -19 q 96 343 96 200 q 161 602 96 486 q 342 784 226 718 q 600 850 457 850 q 834 790 728 850 q 1001 624 940 729 q 1063 390 1063 518 q 1001 194 1063 265 q 838 122 940 122 q 730 150 785 122 q 651 235 675 178 q 492 140 578 140 q 372 190 417 140 q 328 322 328 239 q 359 453 328 392 q 445 551 390 514 q 565 589 500 589 q 694 550 631 589 q 726 507 726 529 q 714 477 726 489 q 683 465 701 465 q 653 478 671 465 q 567 506 604 506 q 488 480 524 506 q 433 412 453 454 q 413 322 413 369 q 433 249 413 275 q 490 224 454 224 q 583 283 539 224 q 647 393 628 342 q 688 421 660 421 q 717 409 704 421 q 729 379 729 397 q 724 350 729 369 q 718 308 718 331 q 754 233 718 261 q 840 204 790 204 q 940 251 901 204 q 978 390 978 297 q 934 572 978 486 q 804 712 890 658 q 600 765 718 765 q 396 716 492 765 q 240 572 300 667 q 181 343 181 476 q 242 123 181 214 q 399 -13 304 32 q 592 -58 494 -58 q 832 15 718 -58 q 864 29 851 29 q 894 17 882 29 q 906 -12 906 4 q 899 -33 906 -24 q 878 -54 893 -43 q 756 -114 831 -89 q 589 -139 682 -139 z "},"A":{"ha":807,"x_min":38,"x_max":767,"o":"m 722 -10 q 697 -1 708 -10 q 681 21 685 7 l 567 351 l 221 275 l 119 19 q 104 -1 115 7 q 79 -8 93 -8 q 49 4 61 -8 q 38 36 38 17 q 43 60 38 44 l 119 256 q 94 251 107 251 q 67 265 78 253 q 56 294 56 276 q 65 322 56 310 q 89 338 75 335 l 158 353 l 381 921 q 399 941 386 933 q 424 949 411 949 q 449 941 438 949 q 465 919 460 933 l 758 67 q 767 33 767 42 q 754 3 767 17 q 722 -10 742 -10 m 536 435 l 418 781 l 258 375 l 536 435 z "},"B":{"ha":861,"x_min":115,"x_max":797,"o":"m 172 -11 q 115 42 115 -11 l 115 889 q 128 920 115 907 q 160 933 142 933 l 410 933 q 578 899 510 933 q 681 812 647 865 q 715 701 715 758 q 690 585 715 633 q 624 507 664 536 q 797 278 797 443 q 640 64 797 139 q 172 -11 483 -11 m 467 531 q 549 554 511 531 q 607 617 586 578 q 628 697 628 656 q 569 806 628 764 q 410 849 511 849 l 206 849 l 206 531 l 467 531 m 206 72 q 567 125 425 74 q 708 278 708 176 q 646 399 708 353 q 479 446 583 446 l 206 446 l 206 72 z "},"C":{"ha":853,"x_min":67,"x_max":807,"o":"m 468 -8 q 267 43 358 -8 q 121 188 175 94 q 67 404 67 282 q 128 665 67 540 q 290 864 190 789 q 494 939 389 939 q 597 924 554 939 q 679 885 640 910 q 693 899 683 893 q 715 904 703 904 q 746 892 733 904 q 758 861 758 879 l 758 772 q 745 741 758 754 q 714 728 732 728 q 683 740 696 728 q 669 771 669 753 l 669 782 q 599 831 639 811 q 494 851 558 851 q 335 789 413 851 q 208 623 257 726 q 158 404 158 519 q 201 232 158 306 q 315 119 244 158 q 468 79 386 79 q 728 210 628 79 q 744 223 736 219 q 763 226 751 226 q 794 215 781 226 q 807 182 807 203 q 799 156 807 165 q 654 34 740 76 q 468 -8 568 -8 z "},"D":{"ha":874,"x_min":115,"x_max":807,"o":"m 321 -10 q 150 14 244 -10 q 125 31 135 18 q 115 58 115 43 l 115 893 q 128 924 115 911 q 161 936 142 936 q 449 894 304 936 q 701 734 594 851 q 807 410 807 617 q 743 175 807 269 q 569 35 679 81 q 321 -10 460 -10 m 321 79 q 611 163 506 79 q 717 410 717 247 q 575 732 717 628 q 206 847 433 836 l 206 93 q 321 79 279 79 z "},"E":{"ha":838,"x_min":115,"x_max":793,"o":"m 161 0 q 129 14 143 0 q 115 46 115 28 l 115 886 q 128 917 115 904 q 161 931 142 931 l 749 931 q 781 918 768 931 q 793 886 793 906 q 780 855 793 868 q 749 842 767 842 l 204 842 l 204 529 l 682 529 q 713 517 701 529 q 725 486 725 506 q 713 453 725 467 q 682 440 700 440 l 204 440 l 204 89 l 746 89 q 778 76 765 89 q 790 46 790 64 q 777 13 790 26 q 746 0 764 0 l 161 0 z "},"F":{"ha":801,"x_min":115,"x_max":793,"o":"m 161 -10 q 129 4 143 -10 q 115 36 115 18 l 115 886 q 128 917 115 904 q 161 931 142 931 l 749 931 q 781 918 768 931 q 793 886 793 906 q 780 855 793 868 q 749 842 767 842 l 206 842 l 206 529 l 626 529 q 658 516 644 529 q 671 483 671 503 q 658 452 671 465 q 626 439 644 439 l 206 439 l 206 36 q 192 3 206 17 q 161 -10 179 -10 z "},"G":{"ha":994,"x_min":67,"x_max":943,"o":"m 486 -10 q 276 48 372 -10 q 123 210 179 106 q 67 451 67 315 q 122 683 67 569 q 278 868 178 796 q 508 940 379 940 q 710 891 628 940 q 835 778 793 842 q 876 676 876 714 q 865 648 876 658 q 833 638 853 638 q 808 645 819 638 q 790 667 796 653 q 692 798 761 744 q 508 851 624 851 q 310 782 389 851 q 194 619 231 713 q 157 451 157 525 q 202 253 157 338 q 323 124 247 169 q 486 79 399 79 q 683 144 600 79 q 794 319 765 208 l 758 319 q 615 301 688 319 q 583 296 588 296 q 553 308 565 296 q 540 340 540 321 q 548 366 540 354 q 571 383 556 378 q 656 401 601 394 q 763 408 710 408 q 915 385 854 408 q 943 343 943 376 q 931 313 943 325 q 903 300 919 301 q 882 304 893 300 q 744 78 849 167 q 486 -10 640 -10 z "},"H":{"ha":1004,"x_min":115,"x_max":889,"o":"m 160 -8 q 128 5 142 -8 q 115 36 115 18 l 115 894 q 128 925 115 913 q 160 938 140 938 q 192 925 179 938 q 206 894 206 913 l 206 478 l 800 561 l 800 894 q 813 925 800 913 q 844 938 825 938 q 876 925 863 938 q 889 894 889 913 l 889 36 q 876 5 889 18 q 844 -8 863 -8 q 813 5 826 -8 q 800 36 800 18 l 800 471 l 206 389 l 206 36 q 192 5 206 18 q 160 -8 178 -8 z "},"I":{"ha":544,"x_min":51,"x_max":492,"o":"m 97 0 q 65 13 78 0 q 51 43 51 25 q 65 73 51 61 q 97 85 78 85 l 229 85 l 229 846 l 97 846 q 65 858 78 846 q 51 889 51 871 q 65 919 51 907 q 97 931 78 931 l 449 931 q 479 919 467 931 q 492 889 492 907 q 479 858 492 871 q 449 846 467 846 l 318 846 l 318 85 l 449 85 q 480 73 468 85 q 492 43 492 61 q 479 13 492 25 q 449 0 467 0 l 97 0 z "},"J":{"ha":635,"x_min":25,"x_max":589,"o":"m 275 -8 q 122 33 178 -8 q 45 129 65 75 q 25 229 25 183 q 38 264 25 250 q 71 278 50 278 q 102 265 89 278 q 115 232 115 251 q 147 131 115 181 q 275 81 179 81 q 394 123 363 81 q 426 215 426 165 l 426 844 l 263 844 q 231 857 243 844 q 218 888 218 869 q 231 916 218 904 q 263 928 244 928 l 544 928 q 576 916 563 928 q 589 888 589 904 q 576 857 589 869 q 546 844 563 844 l 515 844 l 515 215 q 490 107 515 158 q 411 24 465 56 q 275 -8 357 -8 z "},"K":{"ha":778,"x_min":115,"x_max":750,"o":"m 707 -10 q 681 0 692 -10 l 203 374 l 203 36 q 190 5 203 18 q 158 -8 176 -8 q 128 5 140 -8 q 115 36 115 18 l 115 894 q 128 925 115 913 q 158 938 140 938 q 190 925 176 938 q 203 894 203 913 l 203 543 l 651 928 q 681 939 665 939 q 710 925 697 939 q 722 894 722 911 q 708 863 722 875 l 235 457 l 735 68 q 750 35 750 56 q 738 3 750 17 q 707 -10 725 -10 z "},"L":{"ha":694,"x_min":115,"x_max":678,"o":"m 158 -8 q 128 5 142 -10 q 115 36 115 19 l 115 894 q 128 924 115 911 q 160 938 142 938 q 191 924 178 938 q 204 894 204 911 l 204 82 l 633 111 q 665 100 653 113 q 678 68 678 88 q 665 39 678 51 q 636 25 653 26 l 158 -8 z "},"M":{"ha":1164,"x_min":57,"x_max":1106,"o":"m 99 -8 q 68 4 79 -8 q 57 31 57 17 q 63 65 57 47 l 246 903 q 260 928 249 919 q 289 938 272 938 q 315 929 304 938 q 331 908 326 921 l 563 172 l 829 910 q 847 930 835 922 q 874 938 858 938 q 899 928 888 938 q 913 903 910 918 l 1099 69 q 1106 31 1106 46 q 1093 3 1106 15 q 1063 -8 1081 -8 q 1034 1 1046 -8 q 1019 26 1022 10 l 861 738 l 601 19 q 585 -1 597 7 q 560 -8 574 -8 q 535 0 546 -8 q 519 22 524 8 l 296 725 l 142 26 q 127 1 139 10 q 99 -8 115 -8 z "},"N":{"ha":914,"x_min":115,"x_max":799,"o":"m 160 -8 q 128 5 142 -8 q 115 36 115 18 l 117 894 q 129 924 117 911 q 160 938 142 938 q 197 919 182 938 l 710 175 l 710 894 q 723 926 710 913 q 754 939 736 939 q 785 926 772 939 q 799 894 799 913 l 799 36 q 786 5 799 18 q 754 -8 774 -8 q 735 -3 746 -8 q 718 11 724 3 l 206 753 l 204 36 q 191 5 204 18 q 160 -8 178 -8 z "},"O":{"ha":893,"x_min":67,"x_max":826,"o":"m 417 -8 q 235 48 315 -8 q 111 203 156 104 q 67 426 67 303 q 122 683 67 565 q 272 870 178 801 q 476 939 367 939 q 658 883 579 939 q 782 726 738 826 q 826 503 826 626 q 771 247 826 364 q 621 60 715 129 q 417 -8 526 -8 m 422 78 q 577 135 506 78 q 692 289 649 192 q 735 499 735 386 q 700 683 735 603 q 605 808 665 764 q 469 853 544 853 q 315 797 388 853 q 201 643 243 740 q 158 429 158 546 q 194 244 158 324 q 289 121 229 164 q 422 78 349 78 z "},"P":{"ha":778,"x_min":115,"x_max":747,"o":"m 160 -8 q 128 5 142 -8 q 115 36 115 18 l 115 878 q 122 916 115 904 q 151 933 128 928 q 229 939 175 939 q 618 865 489 939 q 747 653 747 792 q 658 459 747 533 q 444 353 569 385 q 204 319 319 321 l 204 36 q 192 5 204 18 q 160 -8 179 -8 m 204 407 q 392 429 288 408 q 578 505 496 450 q 660 653 660 560 q 554 800 660 749 q 253 851 449 851 q 204 850 215 851 l 204 407 z "},"Q":{"ha":983,"x_min":67,"x_max":918,"o":"m 875 -40 q 851 -35 861 -40 l 697 68 q 583 10 644 31 q 460 -11 522 -11 q 259 49 349 -11 q 118 208 169 108 q 67 425 67 308 q 130 679 67 561 q 299 867 193 797 q 525 936 404 936 q 726 877 636 936 q 866 717 815 818 q 917 500 917 617 q 877 296 917 393 q 767 126 838 199 l 900 39 q 918 1 918 28 q 905 -29 918 -18 q 875 -40 892 -40 m 460 75 q 618 121 546 75 l 517 186 q 497 222 497 201 q 510 253 497 240 q 539 267 522 267 q 565 260 556 267 l 692 176 q 787 322 751 238 q 822 496 822 406 q 782 669 822 588 q 671 801 742 751 q 514 851 600 851 q 341 794 422 851 q 210 641 260 738 q 161 431 161 544 q 199 251 161 332 q 306 122 238 169 q 460 75 375 75 z "},"R":{"ha":828,"x_min":115,"x_max":788,"o":"m 160 -8 q 128 5 142 -8 q 115 36 115 18 l 115 876 q 123 915 115 903 q 153 932 131 928 q 225 936 175 936 l 265 936 q 626 861 500 936 q 753 649 753 786 q 501 376 753 465 q 645 253 567 335 q 782 56 724 172 q 788 36 788 49 q 775 5 788 18 q 743 -8 763 -8 q 704 17 719 -8 q 331 338 510 338 q 203 325 285 338 l 203 36 q 190 5 203 18 q 160 -8 178 -8 m 203 411 q 417 440 311 414 q 594 518 524 465 q 665 649 665 571 q 560 799 665 747 q 261 850 454 850 q 203 849 222 850 l 203 411 z "},"S":{"ha":767,"x_min":39,"x_max":703,"o":"m 379 -8 q 169 45 256 -8 q 47 185 82 99 q 39 213 39 199 q 53 245 39 232 q 86 258 67 258 q 132 222 121 258 q 224 116 156 157 q 379 75 293 75 q 501 99 447 75 q 584 163 554 122 q 614 253 614 203 q 561 364 614 317 q 382 446 508 411 q 92 704 92 525 q 130 825 92 772 q 241 908 168 878 q 411 939 314 939 q 625 887 549 939 q 701 747 701 835 q 689 716 701 729 q 658 703 676 703 q 630 714 642 703 q 617 740 618 725 q 553 826 610 793 q 407 860 497 860 q 240 819 299 860 q 181 708 181 779 q 235 607 181 649 q 404 533 290 565 q 628 424 554 492 q 703 260 703 357 q 658 123 703 185 q 539 26 614 61 q 379 -8 464 -8 z "},"T":{"ha":725,"x_min":13,"x_max":713,"o":"m 363 -8 q 332 5 344 -8 q 319 36 319 18 l 319 843 l 57 843 q 26 856 39 843 q 13 886 13 868 q 26 917 13 904 q 57 931 39 931 l 669 931 q 700 918 688 931 q 713 886 713 906 q 700 856 713 868 q 669 843 688 843 l 407 843 l 407 36 q 394 5 407 18 q 363 -8 381 -8 z "},"U":{"ha":960,"x_min":93,"x_max":867,"o":"m 467 -8 q 199 122 293 -8 q 96 501 106 251 q 93 663 93 571 l 94 786 q 96 896 96 824 q 109 925 96 913 q 140 938 122 938 q 172 925 160 938 q 183 894 183 913 q 182 793 183 826 l 181 692 q 183 521 181 615 q 251 199 190 328 q 469 69 311 69 q 672 149 599 69 q 763 378 746 229 q 775 660 775 497 l 774 892 q 785 924 774 910 q 817 938 796 938 q 849 924 836 938 q 861 894 861 911 q 864 809 861 888 q 867 651 867 731 q 850 367 867 496 q 467 -8 801 -8 z "},"V":{"ha":744,"x_min":18,"x_max":733,"o":"m 351 -8 q 326 0 338 -8 q 310 21 314 8 l 22 871 q 18 894 18 883 q 30 924 18 913 q 63 936 42 936 q 87 928 75 936 q 104 907 99 919 l 356 164 l 649 910 q 690 936 661 936 q 722 924 710 936 q 733 894 733 911 q 731 876 733 885 l 393 19 q 351 -8 382 -8 z "},"W":{"ha":1204,"x_min":21,"x_max":1192,"o":"m 324 -8 q 298 0 310 -8 q 283 22 286 8 l 28 864 q 21 896 21 886 q 33 926 21 914 q 63 938 44 938 q 89 929 78 938 q 106 907 100 921 l 325 182 l 560 908 q 603 938 571 938 q 628 929 617 938 q 643 907 640 921 l 843 181 l 1107 911 q 1124 933 1113 925 q 1149 940 1135 940 q 1179 928 1167 940 q 1192 900 1192 915 q 1189 879 1192 893 l 879 19 q 864 -1 875 7 q 839 -8 853 -8 q 796 24 806 -8 l 599 742 l 367 22 q 324 -8 357 -8 z "},"X":{"ha":951,"x_min":69,"x_max":878,"o":"m 114 -8 q 82 5 94 -8 q 69 36 69 18 q 79 64 69 51 l 424 472 l 108 867 q 97 894 97 883 q 111 925 97 913 q 143 938 125 938 q 178 922 164 938 l 479 542 l 800 922 q 833 938 811 938 q 865 924 851 938 q 878 894 878 911 q 867 865 878 879 l 536 471 l 861 63 q 869 36 869 53 q 857 5 869 18 q 826 -8 844 -8 q 793 7 804 -8 l 478 401 l 147 7 q 114 -8 135 -8 z "},"Y":{"ha":825,"x_min":17,"x_max":814,"o":"m 260 -8 q 229 6 242 -8 q 217 36 217 19 q 225 63 217 50 l 361 292 l 26 867 q 17 894 17 881 q 31 924 17 911 q 63 938 44 938 q 83 931 72 938 q 99 915 93 925 l 413 378 l 732 915 q 769 938 744 938 q 800 925 786 938 q 814 894 814 913 q 801 863 814 882 l 297 14 q 281 -2 292 4 q 260 -8 271 -8 z "},"Z":{"ha":808,"x_min":28,"x_max":772,"o":"m 79 -1 q 43 12 58 -1 q 28 46 28 25 q 40 83 28 65 l 647 844 l 94 844 q 63 858 76 844 q 50 889 50 871 q 63 919 50 906 q 94 932 76 932 l 721 932 q 757 917 742 932 q 772 882 772 903 q 760 850 772 863 l 153 88 l 711 88 q 744 74 731 88 q 757 43 757 61 q 743 12 757 25 q 711 -1 729 -1 l 79 -1 z "},"[":{"ha":442,"x_min":94,"x_max":369,"o":"m 139 -178 q 107 -165 119 -178 q 94 -135 94 -153 l 94 1061 q 108 1092 94 1079 q 139 1104 121 1104 l 326 1104 q 356 1092 343 1104 q 369 1061 369 1079 q 356 1031 369 1043 q 326 1018 343 1018 l 182 1018 l 182 -90 l 304 -90 q 335 -103 322 -90 q 347 -135 347 -117 q 335 -165 347 -153 q 304 -178 322 -178 l 139 -178 z "},"\\":{"ha":763,"x_min":93,"x_max":663,"o":"m 619 -10 q 582 13 593 -10 l 106 871 q 93 908 93 893 q 106 936 93 924 q 136 949 118 949 q 175 926 163 949 l 658 56 q 663 33 663 46 q 651 3 663 15 q 619 -10 639 -10 z "},"]":{"ha":442,"x_min":79,"x_max":353,"o":"m 122 -178 q 92 -165 104 -178 q 79 -135 79 -153 q 92 -103 79 -117 q 122 -90 104 -90 l 267 -90 l 267 1018 l 144 1018 q 113 1031 126 1018 q 100 1061 100 1043 q 113 1092 100 1079 q 144 1104 126 1104 l 310 1104 q 341 1092 329 1104 q 353 1061 353 1081 l 353 -135 q 340 -165 353 -153 q 310 -178 328 -178 l 122 -178 z "},"^":{"ha":700,"x_min":138,"x_max":557,"o":"m 179 532 q 149 544 161 532 q 138 574 138 557 q 143 596 138 586 l 313 879 q 361 910 333 910 q 410 876 392 910 l 550 599 q 557 574 557 586 q 544 544 557 557 q 514 532 532 532 q 492 538 503 532 q 478 554 482 544 l 360 790 l 222 561 q 179 532 204 532 z "},"_":{"ha":686,"x_min":-37,"x_max":719,"o":"m 6 -85 q -26 -73 -14 -85 q -37 -42 -37 -61 q -25 -10 -37 -24 q 6 3 -12 3 l 676 3 q 706 -10 693 3 q 719 -42 719 -24 q 706 -72 719 -60 q 676 -85 693 -85 l 6 -85 z "},"`":{"ha":251,"x_min":0,"x_max":251,"o":"m 208 768 q 178 782 192 768 l 17 947 q 0 986 0 964 q 17 1022 0 1006 q 53 1038 33 1038 q 97 1015 75 1038 l 240 838 q 251 810 251 822 q 238 781 251 793 q 208 768 225 768 z "},"a":{"ha":717,"x_min":64,"x_max":608,"o":"m 565 -19 q 533 -6 544 -19 q 522 26 522 7 l 522 65 q 432 12 485 32 q 326 -8 379 -8 q 192 29 251 -8 q 98 135 132 67 q 64 292 64 204 q 103 477 64 386 q 219 626 143 568 q 397 685 294 685 q 510 668 461 685 q 608 628 558 651 l 608 26 q 596 -6 608 7 q 565 -19 583 -19 m 326 74 q 435 99 381 74 q 518 154 489 125 l 524 575 q 466 594 501 585 q 400 603 431 603 q 275 563 332 603 q 185 452 218 522 q 153 294 153 382 q 201 133 153 193 q 326 74 250 74 z "},"b":{"ha":743,"x_min":108,"x_max":679,"o":"m 151 -8 q 122 3 135 -8 q 108 32 108 15 l 108 907 q 122 935 108 924 q 153 946 135 946 q 182 935 169 946 q 194 907 194 924 l 194 567 q 303 646 239 618 q 436 674 367 674 q 613 591 546 674 q 679 368 679 508 q 603 102 679 203 q 376 1 528 1 q 279 13 329 1 q 193 40 229 25 l 193 29 q 181 3 193 15 q 151 -8 168 -8 m 365 85 q 596 368 596 85 q 552 528 596 471 q 435 586 508 586 q 313 561 368 586 q 226 493 258 536 q 194 399 194 450 l 194 119 q 269 97 221 108 q 365 85 317 85 z "},"c":{"ha":669,"x_min":64,"x_max":635,"o":"m 367 -8 q 216 31 286 -8 q 105 140 146 71 q 64 293 64 210 q 108 478 64 388 q 224 627 151 569 q 374 685 296 685 q 492 661 446 685 q 582 588 539 638 q 593 558 593 576 q 581 528 593 540 q 551 515 569 515 q 519 531 532 515 q 457 585 489 567 q 376 604 425 604 q 268 560 321 604 q 182 444 215 515 q 149 296 149 372 q 181 176 149 226 q 265 99 214 125 q 367 72 315 72 q 553 168 486 72 q 592 193 571 193 q 622 181 610 193 q 635 151 635 168 q 621 119 635 138 q 517 29 585 67 q 367 -8 449 -8 z "},"d":{"ha":736,"x_min":64,"x_max":642,"o":"m 306 -8 q 183 29 238 -8 q 96 138 128 67 q 64 306 64 210 q 143 583 64 483 q 361 683 222 683 q 546 635 454 683 l 553 911 q 567 942 553 929 q 599 956 581 956 q 628 942 615 956 q 642 910 642 928 l 621 33 q 608 3 621 15 q 576 -8 594 -8 q 544 6 557 -8 q 533 40 532 21 l 535 97 q 306 -8 426 -8 m 307 74 q 424 100 371 74 q 506 163 476 126 q 538 228 536 200 l 544 549 q 465 583 514 567 q 365 600 415 600 q 204 524 258 600 q 150 310 150 447 q 192 136 150 199 q 307 74 235 74 z "},"e":{"ha":696,"x_min":64,"x_max":650,"o":"m 410 -8 q 229 37 308 -8 q 107 158 150 82 q 64 325 64 235 q 103 502 64 419 q 214 635 143 585 q 376 685 285 685 q 519 653 460 685 q 608 576 578 621 q 638 497 638 532 q 604 453 638 472 l 174 207 q 268 106 208 140 q 408 72 328 72 q 502 94 453 72 q 581 147 551 117 q 608 161 590 161 q 638 149 626 161 q 650 119 650 138 q 639 92 650 106 q 537 20 601 49 q 410 -8 472 -8 m 551 508 q 490 579 532 556 q 378 603 449 603 q 258 566 311 603 q 176 467 206 529 q 144 329 146 404 q 147 285 144 301 l 551 508 z "},"f":{"ha":388,"x_min":-18,"x_max":458,"o":"m 164 -8 q 133 4 146 -8 q 119 32 119 17 l 119 606 l 22 606 q -6 618 7 606 q -18 647 -18 631 q -6 675 -18 663 q 19 688 6 688 l 121 688 q 150 842 121 785 q 240 923 179 899 q 400 947 300 947 q 458 907 458 947 q 447 876 458 889 q 417 864 436 864 q 288 851 331 864 q 227 802 246 839 q 207 688 208 765 l 390 686 q 417 674 404 686 q 431 647 431 663 q 419 618 431 631 q 390 606 407 606 l 207 606 l 207 32 q 194 4 207 17 q 164 -8 181 -8 z "},"g":{"ha":736,"x_min":64,"x_max":629,"o":"m 328 -261 q 158 -240 250 -261 q 133 -226 143 -237 q 124 -199 124 -214 q 137 -168 124 -181 q 168 -156 150 -156 q 200 -161 175 -156 q 326 -175 263 -175 q 476 -123 429 -175 q 526 25 522 -71 l 529 94 q 444 20 493 46 q 340 -7 396 -6 q 199 36 263 -7 q 100 155 136 79 q 64 324 64 231 q 108 501 64 417 q 226 635 151 585 q 393 686 301 686 q 542 644 464 686 q 585 701 542 701 q 616 689 603 701 q 629 657 629 676 l 614 22 q 533 -190 611 -119 q 328 -261 454 -261 m 329 76 q 474 144 414 76 q 535 363 535 213 l 535 558 q 474 588 513 576 q 399 600 436 600 q 271 563 329 600 q 178 463 213 526 q 143 321 143 399 q 163 208 143 265 q 226 114 183 151 q 329 76 268 76 z "},"h":{"ha":744,"x_min":108,"x_max":650,"o":"m 153 -10 q 122 3 135 -10 q 108 33 108 17 l 108 901 q 122 933 108 919 q 153 946 135 946 q 184 933 172 946 q 196 901 196 919 l 196 475 q 312 625 238 561 q 464 689 386 689 q 608 575 567 689 q 650 218 650 461 q 646 33 650 81 q 633 3 644 15 q 604 -8 622 -8 q 574 4 588 -8 q 561 33 561 17 q 563 72 561 54 l 564 208 q 533 523 564 443 q 457 603 503 603 q 356 560 406 603 q 269 466 306 518 q 217 381 232 414 q 196 261 196 339 l 196 36 q 183 3 196 15 q 153 -10 171 -10 z "},"i":{"ha":315,"x_min":108,"x_max":207,"o":"m 163 794 q 132 807 144 794 q 119 838 119 819 l 121 894 q 135 924 121 911 q 165 936 149 936 q 194 923 182 936 q 207 893 207 910 l 206 836 q 192 806 206 818 q 163 794 179 794 m 154 -8 q 122 5 136 -8 q 108 36 108 18 l 117 639 q 131 671 117 657 q 163 685 144 685 q 194 672 181 685 q 207 639 207 658 l 199 36 q 185 5 199 18 q 154 -8 172 -8 z "},"j":{"ha":328,"x_min":-129,"x_max":226,"o":"m 172 800 q 142 813 154 800 q 132 842 129 826 l 138 908 q 152 933 139 924 q 182 943 165 943 q 214 927 201 943 q 224 893 226 911 l 217 833 q 202 810 215 819 q 172 800 189 800 m 51 -256 q -53 -217 -4 -256 q -125 -121 -103 -179 q -129 -101 -129 -104 q -117 -72 -129 -85 q -85 -60 -104 -60 q -59 -68 -71 -60 q -43 -90 -47 -76 q -4 -156 -26 -135 q 51 -176 18 -176 q 111 -134 88 -176 q 135 -17 135 -92 l 131 307 l 125 644 q 138 676 125 664 q 169 689 150 689 q 199 676 186 689 q 213 646 213 663 l 221 -6 q 175 -190 221 -124 q 51 -256 129 -256 z "},"k":{"ha":672,"x_min":107,"x_max":661,"o":"m 153 -8 q 123 5 136 -8 q 110 35 110 18 l 107 904 q 119 934 107 922 q 150 946 132 946 q 181 933 168 946 q 194 901 194 919 l 196 356 q 363 499 258 399 q 539 692 467 599 q 574 711 551 711 q 604 699 592 711 q 617 669 617 686 q 607 643 617 660 q 498 518 565 589 q 382 404 431 447 q 544 199 415 358 l 649 69 q 661 42 661 54 q 649 10 661 24 q 618 -4 638 -4 q 583 11 596 -4 q 317 354 481 150 q 197 271 258 307 l 197 35 q 184 5 197 18 q 153 -8 171 -8 z "},"l":{"ha":304,"x_min":108,"x_max":196,"o":"m 153 -8 q 122 3 136 -8 q 108 31 108 15 l 108 904 q 121 934 108 922 q 153 946 133 946 q 183 933 169 946 q 196 904 196 921 l 196 31 q 183 3 196 15 q 153 -8 169 -8 z "},"m":{"ha":1149,"x_min":108,"x_max":1054,"o":"m 153 -8 q 122 4 135 -8 q 108 33 108 17 l 108 642 q 122 672 108 658 q 153 685 135 685 q 183 672 171 685 q 196 642 196 658 l 196 482 q 315 628 242 572 q 458 685 388 685 q 566 649 518 685 q 632 528 614 614 q 744 647 682 608 q 868 685 807 685 q 1003 622 953 685 q 1054 428 1054 560 l 1054 33 q 1041 4 1054 17 q 1010 -8 1028 -8 q 979 4 992 -8 q 967 33 967 17 l 967 438 q 939 563 967 524 q 857 603 911 603 q 765 571 815 603 q 678 481 714 539 q 642 347 642 422 l 642 33 q 629 4 642 17 q 599 -8 617 -8 q 567 4 581 -8 q 554 33 554 17 l 554 438 q 529 564 554 525 q 447 603 504 603 q 350 563 400 603 q 258 467 300 524 q 208 368 221 414 q 196 240 196 322 l 196 33 q 183 4 196 17 q 153 -8 171 -8 z "},"n":{"ha":768,"x_min":108,"x_max":674,"o":"m 153 -8 q 122 4 135 -8 q 108 32 108 17 l 108 644 q 122 674 108 663 q 153 686 135 686 q 183 674 171 686 q 196 644 196 663 l 196 425 q 308 617 236 550 q 469 685 379 685 q 590 646 546 685 q 654 523 635 607 q 674 297 674 439 q 672 115 674 158 l 672 36 q 660 5 672 18 q 631 -8 649 -8 q 601 5 614 -8 q 589 35 589 18 l 589 113 q 588 292 588 156 q 574 488 588 421 q 534 578 561 554 q 457 603 507 603 q 364 568 410 603 q 283 469 318 533 q 217 313 238 386 q 196 161 197 239 l 194 38 q 183 5 194 18 q 153 -8 171 -8 z "},"o":{"ha":735,"x_min":64,"x_max":669,"o":"m 346 -8 q 202 34 267 -8 q 101 149 138 76 q 64 311 64 222 q 106 492 64 406 q 224 631 149 578 q 389 685 299 685 q 531 642 467 685 q 633 527 596 600 q 669 367 669 454 q 625 181 669 267 q 506 43 581 94 q 346 -8 432 -8 m 351 71 q 464 111 411 71 q 549 218 517 151 q 581 360 581 285 q 554 481 581 425 q 483 572 528 538 q 382 606 438 606 q 269 565 321 606 q 185 456 217 524 q 154 314 154 389 q 181 187 154 242 q 254 101 208 132 q 351 71 300 71 z "},"p":{"ha":738,"x_min":108,"x_max":674,"o":"m 153 -275 q 122 -262 135 -275 q 108 -232 108 -249 l 108 642 q 122 674 108 661 q 153 686 135 686 q 183 673 171 686 q 196 642 196 660 l 196 585 q 449 686 281 686 q 569 642 518 686 q 647 526 621 597 q 674 375 674 456 q 604 115 674 226 q 368 3 535 3 q 196 42 289 3 l 196 -232 q 183 -262 196 -249 q 153 -275 169 -275 m 376 90 q 542 166 490 90 q 594 375 594 242 q 579 481 594 428 q 528 572 564 535 q 438 608 493 608 q 285 570 346 608 q 196 492 224 532 l 196 135 q 376 90 294 90 z "},"q":{"ha":722,"x_min":64,"x_max":621,"o":"m 544 -258 q 516 -244 528 -258 q 506 -211 504 -229 l 515 75 q 460 17 499 43 q 357 -8 422 -8 q 204 31 271 -8 q 101 140 138 71 q 64 293 64 208 q 111 497 64 410 q 243 632 158 585 q 440 679 328 679 q 538 671 485 679 l 538 682 q 551 708 539 697 q 579 719 563 719 q 608 707 596 719 q 621 676 621 694 l 589 -214 q 576 -247 588 -236 q 544 -258 564 -258 m 344 71 q 472 113 424 71 q 522 229 521 154 l 533 593 q 440 600 478 600 q 225 519 307 600 q 143 292 143 438 q 170 178 143 228 q 244 99 197 128 q 344 71 290 71 z "},"r":{"ha":551,"x_min":108,"x_max":544,"o":"m 153 -8 q 122 4 136 -8 q 108 32 108 17 l 108 643 q 122 673 108 661 q 153 685 135 685 q 185 673 172 685 q 197 643 197 661 l 197 525 q 294 641 236 593 q 429 689 351 689 q 517 655 490 689 q 544 574 544 621 l 544 529 q 532 499 544 511 q 501 488 519 488 q 471 500 481 488 q 461 531 461 513 l 461 563 q 414 603 461 603 q 244 486 332 603 q 210 417 224 458 q 197 339 197 375 l 196 32 q 183 4 196 17 q 153 -8 169 -8 z "},"s":{"ha":578,"x_min":32,"x_max":526,"o":"m 286 -11 q 149 22 207 -11 q 62 98 92 54 q 32 172 32 142 q 44 202 32 190 q 74 214 56 214 q 113 185 104 214 q 178 99 132 129 q 290 68 224 68 q 400 104 357 68 q 443 190 443 140 q 430 240 443 219 q 383 278 417 260 q 283 315 349 296 q 121 396 171 350 q 71 517 71 442 q 133 638 71 592 q 310 685 194 685 q 470 642 414 685 q 526 526 526 600 q 515 476 526 493 q 483 458 504 458 q 453 470 465 458 q 440 497 440 482 q 442 513 440 504 q 444 528 444 521 q 411 587 444 565 q 310 608 378 608 q 194 584 235 608 q 153 515 153 560 q 188 447 153 472 q 311 393 224 422 q 440 340 394 365 q 505 281 485 315 q 525 194 525 247 q 495 96 525 143 q 411 19 465 49 q 286 -11 357 -11 z "},"t":{"ha":397,"x_min":-54,"x_max":431,"o":"m 188 -10 q 156 3 169 -10 q 143 32 143 15 l 143 599 l -11 599 q -42 612 -29 599 q -54 643 -54 625 q -40 674 -54 663 q -8 686 -26 686 l 143 686 l 143 876 q 156 908 143 894 q 188 921 169 921 q 219 908 207 921 q 231 876 231 894 l 231 686 l 386 686 q 418 674 406 686 q 431 643 431 661 q 417 612 431 625 q 386 599 404 599 l 231 599 l 231 32 q 217 3 231 15 q 188 -10 204 -10 z "},"u":{"ha":710,"x_min":88,"x_max":619,"o":"m 297 -12 q 174 22 219 -12 q 108 140 129 57 q 88 372 88 224 q 104 635 88 532 q 119 674 108 663 q 149 686 129 686 q 177 675 165 686 q 189 644 189 664 q 185 590 189 624 q 172 339 172 490 q 201 129 172 193 q 299 65 231 65 q 424 98 361 65 q 514 161 488 131 q 531 224 531 181 l 536 647 q 549 675 536 664 q 578 686 561 686 q 607 675 594 686 q 619 647 619 664 l 619 35 q 606 5 619 18 q 574 -8 592 -8 q 538 6 551 -8 q 525 40 525 19 l 525 93 q 431 20 494 53 q 297 -12 368 -12 z "},"v":{"ha":581,"x_min":-7,"x_max":574,"o":"m 283 -10 q 243 21 256 -10 l -4 626 q -7 642 -7 638 q 6 672 -7 660 q 39 685 19 685 q 79 656 65 685 l 283 140 l 489 660 q 505 678 494 671 q 529 686 515 686 q 560 673 547 686 q 574 643 574 660 q 568 624 574 635 l 324 18 q 283 -10 311 -10 z "},"w":{"ha":831,"x_min":21,"x_max":817,"o":"m 194 -8 q 165 2 178 -8 q 149 29 153 13 l 24 622 l 21 644 q 33 674 21 661 q 63 686 44 686 q 91 676 79 686 q 106 649 103 665 l 203 160 l 374 654 q 390 676 378 667 q 418 686 403 686 q 447 675 433 686 q 463 649 460 664 l 582 153 l 731 651 q 747 675 735 665 q 772 685 758 685 q 803 672 790 685 q 817 642 817 660 q 815 633 817 638 q 813 628 813 629 l 621 25 q 578 -8 608 -8 q 552 1 564 -8 q 536 26 540 10 l 413 514 l 235 24 q 218 1 229 10 q 194 -8 207 -8 z "},"x":{"ha":657,"x_min":-18,"x_max":660,"o":"m 590 -8 q 558 4 569 -8 l 326 290 l 56 6 q 24 -7 43 -7 q -6 6 7 -7 q -18 36 -18 19 q -6 68 -18 56 l 269 350 l 50 613 q 38 643 38 628 q 50 673 38 660 q 81 686 63 686 q 111 674 100 686 l 331 406 l 585 671 q 617 683 597 683 q 647 670 633 683 q 660 640 660 657 q 647 610 660 622 l 388 346 l 625 63 q 633 35 633 50 q 621 4 633 17 q 590 -8 608 -8 z "},"y":{"ha":621,"x_min":-4,"x_max":621,"o":"m 174 -278 q 143 -265 156 -278 q 131 -233 131 -251 q 136 -214 131 -224 l 271 81 l 1 618 q -4 642 -4 632 q 9 674 -4 661 q 40 686 22 686 q 65 678 54 686 q 82 657 76 669 l 318 183 l 536 660 q 578 688 550 688 q 608 675 596 688 q 621 644 621 663 q 617 625 621 632 l 215 -250 q 174 -278 200 -278 z "},"z":{"ha":603,"x_min":15,"x_max":585,"o":"m 60 -7 q 28 6 42 -7 q 15 36 15 19 q 25 63 15 53 l 450 599 l 74 599 q 43 611 56 599 q 31 643 31 624 q 43 673 31 660 q 74 686 56 686 l 533 686 q 565 673 551 686 q 578 643 578 660 q 568 617 578 626 l 143 81 l 542 81 q 572 67 560 81 q 585 36 585 54 q 572 6 585 19 q 542 -7 560 -7 l 60 -7 z "},"{":{"ha":518,"x_min":83,"x_max":451,"o":"m 406 -178 q 328 -158 376 -178 q 240 -92 279 -139 q 200 28 200 -46 l 200 307 q 175 389 200 356 q 111 436 150 422 q 83 475 83 447 q 90 498 83 489 q 110 514 96 507 q 181 569 161 539 q 200 644 200 600 l 200 903 q 240 1022 200 976 q 330 1088 281 1068 q 410 1107 379 1107 q 439 1094 426 1107 q 451 1065 451 1082 q 411 1024 451 1029 q 323 987 363 1015 q 283 903 283 958 l 283 646 q 206 475 283 539 q 262 403 240 447 q 283 306 283 360 l 283 28 q 323 -58 283 -29 q 411 -93 363 -86 q 440 -108 429 -97 q 451 -136 451 -119 q 438 -166 451 -154 q 406 -178 425 -178 z "},"|":{"ha":274,"x_min":92,"x_max":179,"o":"m 136 -239 q 105 -226 118 -239 q 92 -194 92 -212 l 92 1107 q 105 1138 92 1125 q 136 1151 118 1151 q 167 1138 154 1151 q 179 1107 179 1125 l 179 -194 q 167 -226 179 -212 q 136 -239 154 -239 z "},"}":{"ha":518,"x_min":67,"x_max":435,"o":"m 108 -178 q 79 -165 92 -178 q 67 -136 67 -153 q 107 -93 67 -101 q 195 -58 156 -86 q 235 28 235 -29 l 235 285 q 313 454 235 390 q 256 525 276 482 q 235 624 235 568 l 235 903 q 203 978 235 947 q 107 1024 171 1010 q 78 1038 89 1026 q 67 1065 67 1049 q 80 1095 67 1083 q 113 1107 93 1107 q 188 1088 139 1107 q 277 1022 236 1068 q 318 903 318 976 l 318 622 q 343 541 318 575 q 407 493 368 507 q 435 454 435 482 q 429 431 435 438 q 408 417 424 424 q 338 360 357 390 q 318 286 318 329 l 318 28 q 277 -93 318 -47 q 186 -158 236 -139 q 108 -178 136 -178 z "},"~":{"ha":854,"x_min":75,"x_max":779,"o":"m 564 197 q 469 228 506 197 q 389 317 432 258 q 335 381 357 361 q 283 400 313 400 q 204 360 238 400 q 158 275 171 321 q 117 243 147 243 q 88 256 100 243 q 75 286 75 268 q 79 306 75 292 q 283 483 146 483 q 378 453 342 483 q 457 365 415 422 q 513 301 492 319 q 564 282 535 282 q 643 324 611 282 q 694 419 675 367 q 738 458 708 458 q 767 446 756 458 q 779 415 779 433 q 775 393 779 404 q 697 258 749 319 q 564 197 646 197 z "},"¡":{"ha":340,"x_min":115,"x_max":225,"o":"m 165 557 q 130 573 144 557 q 115 611 115 589 q 134 660 115 640 q 176 681 153 681 q 212 665 199 681 q 225 625 225 649 q 207 578 225 599 q 165 557 189 557 m 163 -278 q 131 -264 144 -278 q 118 -232 118 -250 l 118 421 q 132 452 118 439 q 164 465 146 465 q 196 453 183 465 q 208 421 208 440 l 207 -232 q 194 -264 207 -250 q 163 -278 181 -278 z "},"¢":{"ha":667,"x_min":54,"x_max":622,"o":"m 329 -8 q 301 3 313 -8 q 289 32 289 15 l 292 133 q 108 252 161 167 q 54 426 54 338 q 85 586 54 507 q 175 727 117 665 q 311 814 233 789 l 314 908 q 326 936 314 925 q 353 947 339 947 q 381 935 369 947 q 393 907 393 922 l 390 819 q 472 798 425 818 q 551 749 518 778 q 583 694 583 719 q 571 665 583 676 q 540 653 558 653 q 507 667 519 653 q 454 715 485 697 q 388 738 424 733 l 374 210 q 469 238 426 214 q 542 303 513 263 q 553 316 543 304 q 581 328 563 328 q 610 315 597 328 q 622 285 622 301 q 611 257 622 271 q 508 165 571 200 q 371 128 444 129 l 368 31 q 356 3 368 15 q 329 -8 344 -8 m 308 728 q 209 639 247 694 q 154 527 171 583 q 138 429 138 471 q 181 299 138 357 q 294 218 224 242 l 308 728 z "},"£":{"ha":918,"x_min":21,"x_max":876,"o":"m 660 -22 q 549 -4 594 -22 q 453 47 503 14 q 398 79 418 69 q 354 89 378 89 q 273 69 310 89 q 192 17 236 50 q 149 -8 160 -8 q 119 4 131 -8 q 107 33 107 17 q 124 68 107 56 q 202 169 174 108 q 231 286 231 229 q 208 401 231 326 l 199 439 l 64 439 q 34 452 47 439 q 21 481 21 465 q 33 511 21 499 q 64 524 46 524 l 182 524 q 171 657 171 586 q 522 996 171 996 q 710 922 644 996 q 800 749 776 849 q 803 731 803 735 q 792 701 803 713 q 761 689 781 689 q 733 700 744 689 q 718 731 721 711 q 649 863 701 815 q 519 911 596 911 q 318 851 381 911 q 256 657 256 790 q 268 524 256 586 l 586 524 q 616 511 604 524 q 628 481 628 499 q 615 451 628 464 q 586 439 603 439 l 283 439 q 294 397 285 435 q 309 341 303 371 q 315 286 315 311 q 290 161 315 211 q 358 174 331 174 q 426 160 397 174 q 493 122 456 147 q 572 78 536 93 q 658 63 607 63 q 744 91 710 63 q 792 176 779 119 q 835 217 803 217 q 865 204 854 217 q 876 174 876 192 q 875 158 876 165 q 790 19 853 61 q 660 -22 726 -22 z "},"¤":{"ha":704,"x_min":61,"x_max":642,"o":"m 103 51 q 74 64 88 51 q 61 93 61 76 q 74 121 61 108 l 168 215 q 129 340 129 275 q 171 468 129 411 l 74 565 q 61 593 61 578 q 74 622 61 610 q 103 633 86 633 q 131 622 117 633 l 228 525 q 353 563 282 563 q 479 525 425 563 l 575 622 q 603 633 586 633 q 631 622 619 633 q 642 593 642 610 q 631 565 642 575 l 536 468 q 576 340 576 410 q 539 215 576 272 l 631 121 q 642 93 642 111 q 631 64 642 76 q 603 51 619 51 q 575 64 588 51 l 482 157 q 353 117 422 117 q 225 157 283 117 l 131 65 q 103 51 119 51 m 353 196 q 454 238 413 196 q 496 340 496 281 q 454 442 496 400 q 353 483 413 483 q 252 442 294 483 q 210 340 210 400 q 252 238 210 281 q 353 196 294 196 z "},"¥":{"ha":686,"x_min":46,"x_max":643,"o":"m 332 -8 q 301 5 314 -8 q 289 35 289 18 l 289 175 l 135 175 q 106 188 118 175 q 93 217 93 200 q 106 247 93 235 q 135 260 118 260 l 289 260 l 289 386 l 135 386 q 106 398 118 386 q 93 428 93 410 q 106 458 93 446 q 135 469 118 469 l 257 469 l 50 886 q 46 906 46 897 q 58 935 46 922 q 90 949 71 949 q 128 925 115 949 l 333 511 l 560 928 q 576 945 565 939 q 597 951 586 951 q 629 938 615 951 q 643 907 643 925 q 638 885 643 896 l 411 469 l 531 469 q 560 458 549 469 q 572 428 572 446 q 560 398 572 410 q 531 386 549 386 l 376 386 l 376 260 l 531 260 q 560 247 549 260 q 572 217 572 235 q 560 188 572 200 q 531 175 549 175 l 376 175 l 376 35 q 363 5 376 18 q 332 -8 350 -8 z "},"¦":{"ha":310,"x_min":111,"x_max":199,"o":"m 156 532 q 124 545 138 532 q 111 576 111 558 l 111 1010 q 124 1041 111 1028 q 156 1054 138 1054 q 186 1041 174 1054 q 199 1010 199 1028 l 199 576 q 186 545 199 558 q 156 532 174 532 m 156 -143 q 124 -131 138 -143 q 111 -100 111 -118 l 111 335 q 124 366 111 353 q 156 379 138 379 q 186 366 174 379 q 199 335 199 353 l 199 -100 q 186 -131 199 -118 q 156 -143 174 -143 z "},"§":{"ha":585,"x_min":28,"x_max":522,"o":"m 282 -8 q 147 25 204 -8 q 58 102 89 58 q 28 175 28 146 q 40 205 28 193 q 71 217 53 217 q 110 188 101 217 q 173 104 128 135 q 282 74 218 74 q 372 94 338 74 q 423 142 407 114 q 439 199 439 171 q 406 266 439 239 q 281 322 374 293 q 118 402 168 357 q 68 519 68 447 q 101 615 68 575 q 67 715 67 658 q 139 844 67 806 q 304 883 211 883 q 465 841 408 883 q 522 725 522 799 q 512 674 522 690 q 478 657 501 657 q 447 669 458 657 q 436 697 436 681 q 438 708 436 701 q 439 726 439 715 q 407 784 439 764 q 308 804 375 804 q 192 781 236 804 q 149 714 149 757 q 188 641 149 665 q 290 599 228 617 q 419 550 374 572 q 493 489 465 528 q 521 385 521 450 q 493 294 521 339 q 522 190 522 251 q 492 96 522 142 q 408 21 463 50 q 282 -8 353 -8 m 429 347 q 440 397 440 369 q 419 454 440 432 q 369 489 399 476 q 267 526 340 501 q 167 567 199 550 q 147 517 147 546 q 170 459 147 482 q 219 426 193 436 q 290 400 244 415 q 429 347 382 374 z "},"¨":{"ha":368,"x_min":0,"x_max":368,"o":"m 71 846 q 20 863 40 846 q 0 908 0 881 q 23 957 0 936 q 79 978 46 978 q 128 960 107 978 q 150 915 150 942 q 127 866 150 886 q 71 846 104 846 m 289 846 q 240 863 260 846 q 219 908 219 881 q 243 957 219 936 q 297 978 267 978 q 347 960 325 978 q 368 915 368 942 q 345 866 368 886 q 289 846 322 846 z "},"©":{"ha":760,"x_min":61,"x_max":699,"o":"m 379 306 q 220 349 293 306 q 104 468 147 393 q 61 631 61 543 q 104 793 61 718 q 221 913 147 868 q 379 957 294 957 q 539 913 465 957 q 656 793 613 868 q 699 631 699 718 q 656 468 699 543 q 539 349 613 393 q 379 306 465 306 m 379 375 q 504 410 447 375 q 595 503 561 444 q 629 631 629 561 q 595 759 629 700 q 504 853 561 818 q 379 888 447 888 q 255 853 313 888 q 164 759 197 818 q 131 631 131 700 q 165 503 131 561 q 256 410 199 444 q 379 375 313 375 m 371 468 q 288 490 326 468 q 226 550 249 513 q 204 632 204 588 q 253 763 204 714 q 383 811 303 811 q 490 774 442 811 q 508 742 508 760 q 498 716 508 726 q 472 706 488 706 q 446 717 460 706 q 383 739 418 739 q 300 706 322 739 q 278 633 278 672 q 306 567 278 594 q 371 540 335 540 q 427 551 401 540 q 465 583 453 563 q 499 606 478 606 q 525 595 514 606 q 536 569 536 585 q 526 543 536 558 q 465 489 504 510 q 371 468 426 468 z "},"ª":{"ha":419,"x_min":19,"x_max":372,"o":"m 335 460 q 307 472 319 460 q 293 507 294 485 q 244 478 268 489 q 185 467 221 467 q 67 521 114 467 q 19 657 19 575 q 44 779 19 719 q 116 877 69 839 q 226 915 163 915 q 311 902 269 915 q 371 874 353 889 l 372 499 q 361 472 372 483 q 335 460 350 460 m 189 544 q 292 579 247 544 l 296 826 q 267 834 288 831 q 232 838 247 838 q 133 781 167 838 q 99 660 99 725 q 122 579 99 614 q 189 544 146 544 z "},"¬":{"ha":664,"x_min":53,"x_max":583,"o":"m 543 163 q 514 174 526 163 q 501 203 501 186 l 503 372 l 93 372 q 65 383 76 372 q 53 411 53 394 q 65 440 53 428 q 93 453 76 453 l 543 453 q 571 441 558 453 q 583 411 583 429 l 582 203 q 570 174 582 186 q 543 163 558 163 z "},"®":{"ha":771,"x_min":67,"x_max":704,"o":"m 386 306 q 226 349 300 306 q 110 468 153 393 q 67 631 67 543 q 110 793 67 718 q 226 913 153 868 q 386 957 300 957 q 545 913 472 957 q 661 793 618 868 q 704 631 704 718 q 661 468 704 543 q 545 349 618 393 q 386 306 472 306 m 386 375 q 510 410 453 375 q 601 503 567 444 q 635 631 635 561 q 601 759 635 700 q 510 853 568 818 q 386 888 453 888 q 261 853 318 888 q 170 759 204 818 q 136 631 136 700 q 170 503 136 561 q 261 410 204 444 q 386 375 318 375 m 272 489 q 244 501 256 489 q 236 532 233 514 l 275 774 q 284 797 278 790 q 312 806 290 803 q 386 810 333 810 q 506 783 464 810 q 549 708 549 756 q 511 644 549 668 q 418 607 474 619 l 494 556 q 506 542 501 551 q 511 524 511 533 q 501 498 511 508 q 475 488 490 488 q 450 496 463 488 l 321 588 l 310 521 q 297 498 307 507 q 272 489 286 489 m 332 656 q 397 663 364 656 q 452 683 431 671 q 474 707 474 696 q 445 732 474 724 q 379 740 417 740 q 344 739 354 740 l 332 656 z "},"¯":{"ha":365,"x_min":0,"x_max":365,"o":"m 39 831 q 12 842 24 831 q 0 872 0 854 q 12 900 0 889 q 39 911 24 911 l 325 911 q 353 900 342 911 q 365 872 365 889 q 353 843 365 856 q 325 831 342 831 l 39 831 z "},"°":{"ha":343,"x_min":-1,"x_max":342,"o":"m 171 626 q 85 650 125 626 q 22 713 46 674 q -1 799 -1 753 q 22 884 -1 844 q 85 947 46 924 q 171 971 125 971 q 292 920 242 971 q 342 799 342 869 q 292 677 342 728 q 171 626 242 626 m 171 700 q 241 729 213 700 q 269 799 269 758 q 241 868 269 839 q 171 897 213 897 q 101 868 131 897 q 71 799 71 839 q 101 729 71 758 q 171 700 131 700 z "},"±":{"ha":618,"x_min":79,"x_max":533,"o":"m 307 178 q 277 190 290 178 q 264 218 264 203 l 264 361 l 121 361 q 92 373 104 361 q 79 401 81 385 q 92 431 79 418 q 121 444 104 444 l 264 444 l 264 572 q 276 601 264 589 q 307 614 288 614 q 335 601 324 614 q 347 572 347 589 l 347 444 l 492 444 q 521 432 508 444 q 533 401 533 419 q 520 374 533 386 q 492 361 507 361 l 347 361 l 347 218 q 335 190 347 203 q 307 178 322 178 m 142 -10 q 114 1 126 -10 q 101 32 101 13 q 114 61 101 49 q 142 74 126 74 l 469 74 q 498 61 486 74 q 510 32 510 49 q 498 2 510 14 q 469 -10 486 -10 l 142 -10 z "},"²":{"ha":346,"x_min":6,"x_max":338,"o":"m 10 635 q 27 741 10 697 q 86 822 44 785 q 206 908 128 860 q 257 992 257 942 q 234 1039 257 1019 q 175 1058 211 1058 q 82 1017 124 1058 q 61 995 68 1000 q 42 990 54 990 q 17 1001 28 990 q 6 1026 6 1013 q 15 1051 6 1042 q 79 1106 36 1079 q 174 1132 122 1132 q 284 1094 238 1132 q 331 992 331 1056 q 298 894 331 932 q 208 822 265 857 q 88 672 89 751 l 301 672 q 326 662 314 672 q 338 635 338 651 q 326 609 338 621 q 301 597 314 597 l 10 597 l 10 635 z "},"³":{"ha":340,"x_min":3,"x_max":336,"o":"m 167 593 q 69 619 108 593 q 8 681 31 646 q 3 703 3 692 q 13 729 3 718 q 38 740 22 740 q 72 719 60 740 q 167 667 106 667 q 231 690 200 667 q 261 761 261 714 q 235 827 261 801 q 151 858 208 853 q 126 869 136 860 q 117 894 117 879 q 151 932 117 929 q 219 954 189 935 q 250 1007 250 974 q 224 1049 250 1035 q 165 1063 197 1063 q 117 1056 132 1063 q 86 1036 103 1049 q 61 1028 76 1028 q 36 1038 47 1028 q 25 1064 25 1047 q 44 1098 25 1081 q 97 1126 64 1115 q 165 1138 129 1138 q 276 1103 228 1138 q 324 1010 324 1068 q 307 946 324 976 q 261 897 290 915 q 317 842 297 878 q 336 763 336 807 q 286 641 336 689 q 167 593 236 593 z "},"´":{"ha":251,"x_min":0,"x_max":251,"o":"m 43 768 q 13 781 26 768 q 0 810 0 793 q 11 838 0 822 l 154 1015 q 199 1038 176 1038 q 235 1022 218 1038 q 251 986 251 1006 q 235 947 251 964 l 74 782 q 43 768 60 768 z "},"¶":{"ha":774,"x_min":86,"x_max":672,"o":"m 522 1078 q 548 1065 538 1078 q 558 1036 558 1053 q 549 1008 558 1019 q 528 993 540 996 l 504 989 q 506 849 506 947 q 480 370 506 611 q 411 -83 454 129 q 397 -108 408 -99 q 369 -118 386 -118 q 339 -107 351 -118 q 326 -79 326 -96 q 336 -26 326 -71 q 343 8 339 -11 q 351 51 347 28 q 383 256 365 132 q 404 469 400 381 l 378 469 q 164 537 242 471 q 86 717 86 603 q 147 888 86 815 q 294 1004 208 960 q 426 1056 353 1033 q 522 1078 500 1078 m 535 -117 q 506 -106 518 -117 q 494 -78 494 -94 q 519 90 494 -56 q 570 478 553 297 q 588 864 588 658 l 586 974 q 598 1003 586 990 q 628 1015 610 1015 q 658 1003 646 1015 q 671 974 669 992 q 672 864 672 946 q 576 -82 672 404 q 563 -107 574 -97 q 535 -117 551 -117 z "},"·":{"ha":244,"x_min":67,"x_max":176,"o":"m 117 288 q 81 304 94 288 q 67 344 67 321 q 85 391 67 371 q 128 411 104 411 q 162 395 147 411 q 176 357 176 379 q 158 308 176 328 q 117 288 140 288 z "},"¸":{"ha":239,"x_min":0,"x_max":239,"o":"m 126 -42 q 204 -77 169 -42 q 239 -160 239 -112 q 201 -251 239 -214 q 108 -287 164 -287 q 34 -267 68 -287 q 0 -215 0 -246 q 9 -192 0 -201 q 31 -183 18 -183 q 61 -199 46 -183 q 83 -220 72 -212 q 113 -228 93 -228 q 158 -208 139 -228 q 176 -160 176 -189 q 157 -114 176 -133 q 111 -94 138 -94 q 74 -105 92 -94 q 47 -115 56 -115 q 30 -108 38 -115 q 22 -89 22 -100 q 32 -49 22 -79 q 44 -11 42 -19 l 56 22 q 67 44 61 38 q 82 50 74 50 q 101 24 103 50 l 96 -46 q 126 -42 108 -42 z "},"¹":{"ha":244,"x_min":4,"x_max":242,"o":"m 43 599 q 16 610 25 599 q 7 636 7 621 q 18 663 7 653 q 43 672 29 672 l 93 672 l 99 1003 l 64 967 q 39 958 53 958 q 15 969 26 958 q 4 994 4 979 q 14 1021 4 1011 l 108 1124 q 135 1136 121 1136 q 162 1125 150 1136 q 174 1099 174 1114 l 167 672 l 206 672 q 231 662 221 672 q 242 636 242 651 q 231 609 242 619 q 206 599 219 599 l 43 599 z "},"º":{"ha":390,"x_min":-1,"x_max":389,"o":"m 181 467 q 90 493 132 467 q 24 566 49 519 q -1 668 -1 613 q 24 783 -1 726 q 98 874 50 839 q 207 910 146 910 q 297 883 256 910 q 364 810 339 857 q 389 701 389 763 q 365 597 389 651 q 293 504 340 542 q 181 467 246 467 m 181 539 q 242 560 213 539 q 290 619 271 582 q 308 701 308 656 q 277 796 308 754 q 203 838 246 838 q 143 815 172 838 q 97 754 114 792 q 79 672 79 717 q 108 578 79 617 q 181 539 138 539 z "},"¼":{"ha":951,"x_min":82,"x_max":871,"o":"m 121 424 q 94 435 103 424 q 85 461 85 446 q 96 488 85 478 q 121 497 107 497 l 171 497 l 176 828 l 142 792 q 117 783 131 783 q 93 794 104 783 q 82 819 82 804 q 92 846 82 836 l 186 949 q 213 961 199 961 q 240 950 228 961 q 251 924 251 939 l 244 497 l 283 497 q 309 487 299 497 q 319 461 319 476 q 308 434 319 444 q 283 424 297 424 l 121 424 m 269 -11 q 244 -1 254 -11 q 233 24 233 10 q 240 47 233 35 l 732 932 q 745 947 736 942 q 763 953 754 953 q 788 942 778 953 q 799 919 799 932 q 789 889 799 908 l 300 7 q 269 -11 290 -11 m 779 -100 q 753 -88 764 -100 q 742 -61 742 -76 l 742 26 l 544 29 q 516 39 526 29 q 506 61 506 49 q 515 89 506 78 l 746 424 q 778 442 757 442 q 804 431 793 442 q 815 404 815 421 l 815 96 l 833 96 q 860 85 850 96 q 871 61 871 75 q 859 37 871 47 q 832 26 847 26 l 815 26 l 815 -61 q 804 -88 815 -76 q 779 -100 793 -100 m 742 297 l 601 99 l 742 96 l 742 297 z "},"½":{"ha":1029,"x_min":82,"x_max":949,"o":"m 621 -58 q 638 48 621 4 q 697 129 656 92 q 817 215 739 167 q 868 299 868 249 q 845 346 868 326 q 786 365 822 365 q 693 324 735 365 q 672 302 679 307 q 653 297 665 297 q 628 308 639 297 q 617 333 617 319 q 626 358 617 349 q 690 413 647 386 q 785 439 733 439 q 895 401 849 439 q 942 299 942 363 q 909 201 942 239 q 819 129 876 164 q 699 -21 700 58 l 913 -21 q 937 -31 925 -21 q 949 -58 949 -42 q 937 -84 949 -72 q 913 -96 925 -96 l 621 -96 l 621 -58 m 121 432 q 94 443 103 432 q 85 469 85 454 q 96 496 85 486 q 121 506 107 506 l 171 506 l 176 836 l 142 800 q 117 792 131 792 q 93 802 104 792 q 82 828 82 813 q 92 854 82 844 l 186 957 q 213 969 199 969 q 240 958 228 969 q 251 932 251 947 l 244 506 l 283 506 q 309 495 299 506 q 319 469 319 485 q 308 442 319 453 q 283 432 297 432 l 121 432 m 263 -19 q 237 -9 247 -19 q 226 15 226 1 q 233 39 226 26 l 725 924 q 738 939 729 933 q 756 944 747 944 q 781 934 771 944 q 792 911 792 924 q 782 881 792 900 l 293 -1 q 263 -19 283 -19 z "},"¾":{"ha":1019,"x_min":81,"x_max":939,"o":"m 244 424 q 147 450 186 424 q 86 511 108 476 q 81 533 81 522 q 90 560 81 549 q 115 571 100 571 q 150 550 138 571 q 244 497 183 497 q 308 521 278 497 q 339 592 339 544 q 313 658 339 632 q 229 689 286 683 q 204 700 214 690 q 194 725 194 710 q 229 763 194 760 q 297 785 267 765 q 328 838 328 804 q 301 879 328 865 q 243 893 275 893 q 195 886 210 893 q 164 867 181 879 q 139 858 154 858 q 114 868 125 858 q 103 894 103 878 q 122 928 103 911 q 174 957 142 946 q 243 968 207 968 q 353 933 306 968 q 401 840 401 899 q 385 776 401 807 q 339 728 368 746 q 394 673 375 708 q 414 593 414 638 q 364 472 414 519 q 244 424 314 424 m 279 -11 q 253 -1 264 -11 q 243 24 243 10 q 250 47 243 35 l 742 932 q 755 947 746 942 q 772 953 764 953 q 798 942 788 953 q 808 919 808 932 q 799 889 808 908 l 310 7 q 279 -11 300 -11 m 847 -100 q 821 -88 832 -100 q 810 -61 810 -76 l 810 26 l 613 29 q 584 39 594 29 q 574 61 574 49 q 583 89 574 78 l 814 424 q 846 442 825 442 q 872 431 861 442 q 883 404 883 421 l 883 96 l 901 96 q 928 85 918 96 q 939 61 939 75 q 927 37 939 47 q 900 26 915 26 l 883 26 l 883 -61 q 872 -88 883 -76 q 847 -100 861 -100 m 810 297 l 669 99 l 810 96 l 810 297 z "},"¿":{"ha":674,"x_min":90,"x_max":640,"o":"m 488 567 q 453 582 467 567 q 439 619 439 597 q 456 668 439 649 q 499 688 474 688 q 534 672 521 688 q 547 632 547 656 q 529 586 547 606 q 488 567 511 567 m 381 -264 q 230 -229 296 -264 q 127 -131 164 -194 q 90 17 90 -68 q 116 133 90 81 q 176 220 142 185 q 263 301 210 256 q 422 442 339 368 q 453 456 439 456 q 483 443 471 456 q 494 413 494 431 q 479 383 494 394 q 328 249 407 321 l 304 228 q 204 123 238 168 q 171 15 171 78 q 223 -124 171 -65 q 382 -182 275 -182 q 488 -155 443 -182 q 569 -85 532 -128 q 596 -72 582 -72 q 627 -84 614 -72 q 640 -114 640 -96 q 610 -164 640 -131 q 512 -235 571 -206 q 381 -264 453 -264 z "},"À":{"ha":807,"x_min":38,"x_max":767,"o":"m 722 -10 q 697 -1 708 -10 q 681 21 685 7 l 567 351 l 221 275 l 119 19 q 104 -1 115 7 q 79 -8 93 -8 q 49 4 61 -8 q 38 36 38 17 q 43 60 38 44 l 119 256 q 94 251 107 251 q 67 265 78 253 q 56 294 56 276 q 65 322 56 310 q 89 338 75 335 l 158 353 l 381 921 q 399 941 386 933 q 424 949 411 949 q 449 941 438 949 q 465 919 460 933 l 758 67 q 767 33 767 42 q 754 3 767 17 q 722 -10 742 -10 m 536 435 l 418 781 l 258 375 l 536 435 m 471 1011 q 436 1026 456 1011 l 250 1153 q 233 1189 233 1165 q 248 1228 233 1213 q 285 1243 263 1243 q 328 1222 304 1243 l 499 1082 q 513 1053 513 1072 q 499 1024 513 1036 q 471 1011 486 1011 z "},"Á":{"ha":807,"x_min":38,"x_max":767,"o":"m 722 -10 q 697 -1 708 -10 q 681 21 685 7 l 567 351 l 221 275 l 119 19 q 104 -1 115 7 q 79 -8 93 -8 q 49 4 61 -8 q 38 36 38 17 q 43 60 38 44 l 119 256 q 94 251 107 251 q 67 265 78 253 q 56 294 56 276 q 65 322 56 310 q 89 338 75 335 l 158 353 l 381 921 q 399 941 386 933 q 424 949 411 949 q 449 941 438 949 q 465 919 460 933 l 758 67 q 767 33 767 42 q 754 3 767 17 q 722 -10 742 -10 m 536 435 l 418 781 l 258 375 l 536 435 m 374 1011 q 345 1024 357 1011 q 333 1053 333 1036 q 344 1082 333 1072 l 515 1222 q 538 1238 529 1232 q 558 1243 547 1243 q 595 1228 581 1243 q 610 1189 610 1213 q 594 1153 610 1164 l 407 1025 q 374 1011 385 1011 z "},"Â":{"ha":807,"x_min":38,"x_max":767,"o":"m 722 -10 q 697 -1 708 -10 q 681 21 685 7 l 567 351 l 221 275 l 119 19 q 104 -1 115 7 q 79 -8 93 -8 q 49 4 61 -8 q 38 36 38 17 q 43 60 38 44 l 119 256 q 94 251 107 251 q 67 265 78 253 q 56 294 56 276 q 65 322 56 310 q 89 338 75 335 l 158 353 l 381 921 q 399 941 386 933 q 424 949 411 949 q 449 941 438 949 q 465 919 460 933 l 758 67 q 767 33 767 42 q 754 3 767 17 q 722 -10 742 -10 m 536 435 l 418 781 l 258 375 l 536 435 z "},"Ã":{"ha":807,"x_min":38,"x_max":767,"o":"m 722 -10 q 697 -1 708 -10 q 681 21 685 7 l 567 351 l 221 275 l 119 19 q 104 -1 115 7 q 79 -8 93 -8 q 49 4 61 -8 q 38 36 38 17 q 43 60 38 44 l 119 256 q 94 251 107 251 q 67 265 78 253 q 56 294 56 276 q 65 322 56 310 q 89 338 75 335 l 158 353 l 381 921 q 399 941 386 933 q 424 949 411 949 q 449 941 438 949 q 465 919 460 933 l 758 67 q 767 33 767 42 q 754 3 767 17 q 722 -10 742 -10 m 536 435 l 418 781 l 258 375 l 536 435 z "},"Ä":{"ha":807,"x_min":38,"x_max":767,"o":"m 722 -10 q 697 -1 708 -10 q 681 21 685 7 l 567 351 l 221 275 l 119 19 q 104 -1 115 7 q 79 -8 93 -8 q 49 4 61 -8 q 38 36 38 17 q 43 60 38 44 l 119 256 q 94 251 107 251 q 67 265 78 253 q 56 294 56 276 q 65 322 56 310 q 89 338 75 335 l 158 353 l 381 921 q 399 941 386 933 q 424 949 411 949 q 449 941 438 949 q 465 919 460 933 l 758 67 q 767 33 767 42 q 754 3 767 17 q 722 -10 742 -10 m 536 435 l 418 781 l 258 375 l 536 435 z "},"Å":{"ha":807,"x_min":38,"x_max":767,"o":"m 722 -10 q 697 -1 708 -10 q 681 21 685 7 l 567 351 l 221 275 l 119 19 q 104 -1 115 7 q 79 -8 93 -8 q 49 4 61 -8 q 38 36 38 17 q 43 60 38 44 l 119 256 q 94 251 107 251 q 67 265 78 253 q 56 294 56 276 q 65 322 56 310 q 89 338 75 335 l 158 353 l 381 921 q 399 941 386 933 q 424 949 411 949 q 449 941 438 949 q 465 919 460 933 l 758 67 q 767 33 767 42 q 754 3 767 17 q 722 -10 742 -10 m 536 435 l 418 781 l 258 375 l 536 435 z "},"Æ":{"ha":1450,"x_min":71,"x_max":1358,"o":"m 113 -12 q 83 1 96 -12 q 71 29 71 14 q 78 54 71 43 l 271 326 l 247 322 q 222 334 232 321 q 211 364 211 347 q 221 390 211 379 q 246 404 231 401 l 340 424 l 692 919 q 722 938 704 938 l 1315 938 q 1347 926 1335 938 q 1358 894 1358 914 q 1346 865 1358 878 q 1315 853 1333 853 l 769 853 l 769 503 l 1247 503 q 1276 490 1264 503 q 1289 460 1289 476 q 1277 429 1289 442 q 1247 417 1265 417 l 769 418 l 769 76 l 1315 76 q 1347 65 1335 76 q 1358 35 1358 53 q 1346 4 1358 17 q 1315 -8 1333 -8 l 726 -8 q 697 4 708 -8 q 685 35 685 17 l 685 408 l 389 347 l 147 6 q 113 -12 135 -12 m 685 494 l 685 761 l 463 449 l 685 494 z "},"Ç":{"ha":853,"x_min":67,"x_max":807,"o":"m 763 226 q 794 215 781 226 q 807 182 807 203 q 799 156 807 165 q 663 38 743 81 q 489 -8 583 -4 l 485 -57 q 515 -53 497 -53 q 593 -88 558 -53 q 628 -172 628 -124 q 590 -262 628 -225 q 497 -299 553 -299 q 423 -278 457 -299 q 389 -226 389 -257 q 398 -203 389 -212 q 419 -194 407 -194 q 450 -211 436 -194 q 471 -231 460 -224 q 501 -239 482 -239 q 547 -219 528 -239 q 565 -171 565 -200 q 546 -126 565 -144 q 500 -107 526 -107 q 463 -117 481 -107 q 436 -126 444 -126 q 419 -119 426 -126 q 411 -101 411 -112 q 424 -51 411 -89 q 439 -7 436 -14 q 251 53 336 0 q 116 197 165 106 q 67 404 67 288 q 128 665 67 540 q 290 864 190 789 q 494 939 389 939 q 597 924 554 939 q 679 885 640 910 q 693 899 683 893 q 715 904 703 904 q 746 892 733 904 q 758 861 758 879 l 758 772 q 745 741 758 754 q 714 728 732 728 q 683 740 696 728 q 669 771 669 753 l 669 782 q 599 831 639 811 q 494 851 558 851 q 335 789 413 851 q 208 623 257 726 q 158 404 158 519 q 201 232 158 306 q 315 119 244 158 q 468 79 386 79 q 728 210 628 79 q 744 223 736 219 q 763 226 751 226 z "},"È":{"ha":838,"x_min":115,"x_max":793,"o":"m 161 0 q 129 14 143 0 q 115 46 115 28 l 115 886 q 128 917 115 904 q 161 931 142 931 l 749 931 q 781 918 768 931 q 793 886 793 906 q 780 855 793 868 q 749 842 767 842 l 204 842 l 204 529 l 682 529 q 713 517 701 529 q 725 486 725 506 q 713 453 725 467 q 682 440 700 440 l 204 440 l 204 89 l 746 89 q 778 76 765 89 q 790 46 790 64 q 777 13 790 26 q 746 0 764 0 l 161 0 m 506 1011 q 471 1026 490 1011 l 285 1153 q 268 1189 268 1165 q 283 1228 268 1213 q 319 1243 297 1243 q 363 1222 339 1243 l 533 1082 q 547 1053 547 1072 q 534 1024 547 1036 q 506 1011 521 1011 z "},"É":{"ha":838,"x_min":115,"x_max":793,"o":"m 161 0 q 129 14 143 0 q 115 46 115 28 l 115 886 q 128 917 115 904 q 161 931 142 931 l 749 931 q 781 918 768 931 q 793 886 793 906 q 780 855 793 868 q 749 842 767 842 l 204 842 l 204 529 l 682 529 q 713 517 701 529 q 725 486 725 506 q 713 453 725 467 q 682 440 700 440 l 204 440 l 204 89 l 746 89 q 778 76 765 89 q 790 46 790 64 q 777 13 790 26 q 746 0 764 0 l 161 0 m 410 1011 q 381 1024 393 1011 q 369 1053 369 1036 q 381 1082 369 1072 l 551 1222 q 574 1238 565 1232 q 594 1243 583 1243 q 631 1228 617 1243 q 646 1189 646 1213 q 631 1153 646 1164 l 443 1025 q 410 1011 421 1011 z "},"Ê":{"ha":838,"x_min":115,"x_max":793,"o":"m 161 0 q 129 14 143 0 q 115 46 115 28 l 115 886 q 128 917 115 904 q 161 931 142 931 l 749 931 q 781 918 768 931 q 793 886 793 906 q 780 855 793 868 q 749 842 767 842 l 204 842 l 204 529 l 682 529 q 713 517 701 529 q 725 486 725 506 q 713 453 725 467 q 682 440 700 440 l 204 440 l 204 89 l 746 89 q 778 76 765 89 q 790 46 790 64 q 777 13 790 26 q 746 0 764 0 l 161 0 z "},"Ë":{"ha":838,"x_min":115,"x_max":793,"o":"m 161 0 q 129 14 143 0 q 115 46 115 28 l 115 886 q 128 917 115 904 q 161 931 142 931 l 749 931 q 781 918 768 931 q 793 886 793 906 q 780 855 793 868 q 749 842 767 842 l 204 842 l 204 529 l 682 529 q 713 517 701 529 q 725 486 725 506 q 713 453 725 467 q 682 440 700 440 l 204 440 l 204 89 l 746 89 q 778 76 765 89 q 790 46 790 64 q 777 13 790 26 q 746 0 764 0 l 161 0 z "},"Ì":{"ha":544,"x_min":51,"x_max":492,"o":"m 97 0 q 65 13 78 0 q 51 43 51 25 q 65 73 51 61 q 97 85 78 85 l 229 85 l 229 846 l 97 846 q 65 858 78 846 q 51 889 51 871 q 65 919 51 907 q 97 931 78 931 l 449 931 q 479 919 467 931 q 492 889 492 907 q 479 858 492 871 q 449 846 467 846 l 318 846 l 318 85 l 449 85 q 480 73 468 85 q 492 43 492 61 q 479 13 492 25 q 449 0 467 0 l 97 0 m 326 1011 q 292 1026 311 1011 l 106 1153 q 89 1189 89 1165 q 103 1228 89 1213 q 140 1243 118 1243 q 183 1222 160 1243 l 354 1082 q 368 1053 368 1072 q 355 1024 368 1036 q 326 1011 342 1011 z "},"Í":{"ha":544,"x_min":51,"x_max":492,"o":"m 97 0 q 65 13 78 0 q 51 43 51 25 q 65 73 51 61 q 97 85 78 85 l 229 85 l 229 846 l 97 846 q 65 858 78 846 q 51 889 51 871 q 65 919 51 907 q 97 931 78 931 l 449 931 q 479 919 467 931 q 492 889 492 907 q 479 858 492 871 q 449 846 467 846 l 318 846 l 318 85 l 449 85 q 480 73 468 85 q 492 43 492 61 q 479 13 492 25 q 449 0 467 0 l 97 0 m 231 1011 q 202 1024 214 1011 q 190 1053 190 1036 q 201 1082 190 1072 l 372 1222 q 395 1238 386 1232 q 415 1243 404 1243 q 452 1228 438 1243 q 467 1189 467 1213 q 451 1153 467 1164 l 264 1025 q 231 1011 242 1011 z "},"Î":{"ha":544,"x_min":51,"x_max":492,"o":"m 97 0 q 65 13 78 0 q 51 43 51 25 q 65 73 51 61 q 97 85 78 85 l 229 85 l 229 846 l 97 846 q 65 858 78 846 q 51 889 51 871 q 65 919 51 907 q 97 931 78 931 l 449 931 q 479 919 467 931 q 492 889 492 907 q 479 858 492 871 q 449 846 467 846 l 318 846 l 318 85 l 449 85 q 480 73 468 85 q 492 43 492 61 q 479 13 492 25 q 449 0 467 0 l 97 0 z "},"Ï":{"ha":544,"x_min":51,"x_max":492,"o":"m 97 0 q 65 13 78 0 q 51 43 51 25 q 65 73 51 61 q 97 85 78 85 l 229 85 l 229 846 l 97 846 q 65 858 78 846 q 51 889 51 871 q 65 919 51 907 q 97 931 78 931 l 449 931 q 479 919 467 931 q 492 889 492 907 q 479 858 492 871 q 449 846 467 846 l 318 846 l 318 85 l 449 85 q 480 73 468 85 q 492 43 492 61 q 479 13 492 25 q 449 0 467 0 l 97 0 z "},"Ð":{"ha":881,"x_min":21,"x_max":817,"o":"m 350 -36 q 263 -30 299 -36 q 179 -12 228 -24 q 155 4 164 -8 q 146 32 146 17 l 146 378 l 64 378 q 34 391 47 378 q 21 421 21 404 q 34 453 21 439 q 64 467 47 467 l 146 467 l 146 894 q 158 925 146 913 q 190 938 171 938 q 473 895 332 938 q 715 735 614 853 q 817 410 817 618 q 690 75 817 186 q 350 -36 563 -36 m 350 53 q 631 142 533 53 q 729 410 729 232 q 593 733 729 629 q 231 849 457 838 l 231 467 l 368 467 q 399 453 386 467 q 411 421 411 440 q 399 391 411 404 q 368 378 386 378 l 231 378 l 231 68 q 350 53 297 53 z "},"Ñ":{"ha":914,"x_min":115,"x_max":799,"o":"m 160 -8 q 128 5 142 -8 q 115 36 115 18 l 117 894 q 129 924 117 911 q 160 938 142 938 q 197 919 182 938 l 710 175 l 710 894 q 723 926 710 913 q 754 939 736 939 q 785 926 772 939 q 799 894 799 913 l 799 36 q 786 5 799 18 q 754 -8 774 -8 q 735 -3 746 -8 q 718 11 724 3 l 206 753 l 204 36 q 191 5 204 18 q 160 -8 178 -8 z "},"Ò":{"ha":893,"x_min":67,"x_max":826,"o":"m 417 -8 q 235 48 315 -8 q 111 203 156 104 q 67 426 67 303 q 122 683 67 565 q 272 870 178 801 q 476 939 367 939 q 658 883 579 939 q 782 726 738 826 q 826 503 826 626 q 771 247 826 364 q 621 60 715 129 q 417 -8 526 -8 m 422 78 q 577 135 506 78 q 692 289 649 192 q 735 499 735 386 q 700 683 735 603 q 605 808 665 764 q 469 853 544 853 q 315 797 388 853 q 201 643 243 740 q 158 429 158 546 q 194 244 158 324 q 289 121 229 164 q 422 78 349 78 m 501 1011 q 467 1026 486 1011 l 281 1153 q 264 1189 264 1165 q 278 1228 264 1213 q 315 1243 293 1243 q 358 1222 335 1243 l 529 1082 q 543 1053 543 1072 q 530 1024 543 1036 q 501 1011 517 1011 z "},"Ó":{"ha":893,"x_min":67,"x_max":826,"o":"m 417 -8 q 235 48 315 -8 q 111 203 156 104 q 67 426 67 303 q 122 683 67 565 q 272 870 178 801 q 476 939 367 939 q 658 883 579 939 q 782 726 738 826 q 826 503 826 626 q 771 247 826 364 q 621 60 715 129 q 417 -8 526 -8 m 422 78 q 577 135 506 78 q 692 289 649 192 q 735 499 735 386 q 700 683 735 603 q 605 808 665 764 q 469 853 544 853 q 315 797 388 853 q 201 643 243 740 q 158 429 158 546 q 194 244 158 324 q 289 121 229 164 q 422 78 349 78 m 406 1011 q 377 1024 389 1011 q 365 1053 365 1036 q 376 1082 365 1072 l 547 1222 q 570 1238 561 1232 q 590 1243 579 1243 q 627 1228 613 1243 q 642 1189 642 1213 q 626 1153 642 1164 l 439 1025 q 406 1011 417 1011 z "},"Ô":{"ha":893,"x_min":67,"x_max":826,"o":"m 417 -8 q 235 48 315 -8 q 111 203 156 104 q 67 426 67 303 q 122 683 67 565 q 272 870 178 801 q 476 939 367 939 q 658 883 579 939 q 782 726 738 826 q 826 503 826 626 q 771 247 826 364 q 621 60 715 129 q 417 -8 526 -8 m 422 78 q 577 135 506 78 q 692 289 649 192 q 735 499 735 386 q 700 683 735 603 q 605 808 665 764 q 469 853 544 853 q 315 797 388 853 q 201 643 243 740 q 158 429 158 546 q 194 244 158 324 q 289 121 229 164 q 422 78 349 78 z "},"Õ":{"ha":893,"x_min":67,"x_max":826,"o":"m 417 -8 q 235 48 315 -8 q 111 203 156 104 q 67 426 67 303 q 122 683 67 565 q 272 870 178 801 q 476 939 367 939 q 658 883 579 939 q 782 726 738 826 q 826 503 826 626 q 771 247 826 364 q 621 60 715 129 q 417 -8 526 -8 m 422 78 q 577 135 506 78 q 692 289 649 192 q 735 499 735 386 q 700 683 735 603 q 605 808 665 764 q 469 853 544 853 q 315 797 388 853 q 201 643 243 740 q 158 429 158 546 q 194 244 158 324 q 289 121 229 164 q 422 78 349 78 z "},"Ö":{"ha":893,"x_min":67,"x_max":826,"o":"m 417 -8 q 235 48 315 -8 q 111 203 156 104 q 67 426 67 303 q 122 683 67 565 q 272 870 178 801 q 476 939 367 939 q 658 883 579 939 q 782 726 738 826 q 826 503 826 626 q 771 247 826 364 q 621 60 715 129 q 417 -8 526 -8 m 422 78 q 577 135 506 78 q 692 289 649 192 q 735 499 735 386 q 700 683 735 603 q 605 808 665 764 q 469 853 544 853 q 315 797 388 853 q 201 643 243 740 q 158 429 158 546 q 194 244 158 324 q 289 121 229 164 q 422 78 349 78 z "},"×":{"ha":522,"x_min":89,"x_max":433,"o":"m 131 156 q 101 169 113 156 q 89 197 89 182 q 101 226 89 214 l 204 329 l 113 419 q 100 450 100 435 q 113 478 100 465 q 142 490 125 490 q 171 478 158 490 l 263 388 l 364 489 q 390 500 375 500 q 422 488 411 500 q 433 457 433 476 q 422 431 433 442 l 321 329 l 421 228 q 433 200 433 218 q 422 169 433 182 q 393 157 410 157 q 363 169 378 157 l 263 269 l 160 168 q 131 156 147 156 z "},"Ø":{"ha":882,"x_min":65,"x_max":817,"o":"m 147 -53 q 116 -40 128 -53 q 104 -10 104 -28 q 110 8 104 -3 l 167 114 q 92 255 118 174 q 65 426 65 336 q 121 681 65 563 q 269 869 176 799 q 469 939 363 939 q 607 904 542 939 l 661 1001 q 676 1017 667 1011 q 697 1022 686 1022 q 726 1011 713 1022 q 739 982 739 1000 q 735 961 739 972 l 675 857 q 779 702 742 794 q 817 501 817 610 q 761 247 817 365 q 613 59 706 129 q 413 -11 519 -11 q 229 53 308 -11 l 182 -32 q 147 -53 172 -53 m 565 828 q 460 857 518 857 q 306 799 378 857 q 192 642 235 742 q 149 426 149 543 q 211 193 149 292 l 565 828 m 413 71 q 569 129 494 71 q 688 285 643 188 q 733 496 733 383 q 706 650 733 575 q 632 776 679 725 l 269 125 q 413 71 332 71 z "},"Ù":{"ha":960,"x_min":93,"x_max":867,"o":"m 467 -8 q 199 122 293 -8 q 96 501 106 251 q 93 663 93 571 l 94 786 q 96 896 96 824 q 109 925 96 913 q 140 938 122 938 q 172 925 160 938 q 183 894 183 913 q 182 793 183 826 l 181 692 q 183 521 181 615 q 251 199 190 328 q 469 69 311 69 q 672 149 599 69 q 763 378 746 229 q 775 660 775 497 l 774 892 q 785 924 774 910 q 817 938 796 938 q 849 924 836 938 q 861 894 861 911 q 864 809 861 888 q 867 651 867 731 q 850 367 867 496 q 467 -8 801 -8 m 535 1011 q 500 1026 519 1011 l 314 1153 q 297 1189 297 1165 q 312 1228 297 1213 q 349 1243 326 1243 q 392 1222 368 1243 l 563 1082 q 576 1053 576 1072 q 563 1024 576 1036 q 535 1011 550 1011 z "},"Ú":{"ha":960,"x_min":93,"x_max":867,"o":"m 467 -8 q 199 122 293 -8 q 96 501 106 251 q 93 663 93 571 l 94 786 q 96 896 96 824 q 109 925 96 913 q 140 938 122 938 q 172 925 160 938 q 183 894 183 913 q 182 793 183 826 l 181 692 q 183 521 181 615 q 251 199 190 328 q 469 69 311 69 q 672 149 599 69 q 763 378 746 229 q 775 660 775 497 l 774 892 q 785 924 774 910 q 817 938 796 938 q 849 924 836 938 q 861 894 861 911 q 864 809 861 888 q 867 651 867 731 q 850 367 867 496 q 467 -8 801 -8 m 438 1011 q 409 1024 421 1011 q 397 1053 397 1036 q 408 1082 397 1072 l 579 1222 q 602 1238 593 1232 q 622 1243 611 1243 q 659 1228 644 1243 q 674 1189 674 1213 q 658 1153 674 1164 l 471 1025 q 438 1011 449 1011 z "},"Û":{"ha":960,"x_min":93,"x_max":867,"o":"m 467 -8 q 199 122 293 -8 q 96 501 106 251 q 93 663 93 571 l 94 786 q 96 896 96 824 q 109 925 96 913 q 140 938 122 938 q 172 925 160 938 q 183 894 183 913 q 182 793 183 826 l 181 692 q 183 521 181 615 q 251 199 190 328 q 469 69 311 69 q 672 149 599 69 q 763 378 746 229 q 775 660 775 497 l 774 892 q 785 924 774 910 q 817 938 796 938 q 849 924 836 938 q 861 894 861 911 q 864 809 861 888 q 867 651 867 731 q 850 367 867 496 q 467 -8 801 -8 z "},"Ü":{"ha":960,"x_min":93,"x_max":867,"o":"m 467 -8 q 199 122 293 -8 q 96 501 106 251 q 93 663 93 571 l 94 786 q 96 896 96 824 q 109 925 96 913 q 140 938 122 938 q 172 925 160 938 q 183 894 183 913 q 182 793 183 826 l 181 692 q 183 521 181 615 q 251 199 190 328 q 469 69 311 69 q 672 149 599 69 q 763 378 746 229 q 775 660 775 497 l 774 892 q 785 924 774 910 q 817 938 796 938 q 849 924 836 938 q 861 894 861 911 q 864 809 861 888 q 867 651 867 731 q 850 367 867 496 q 467 -8 801 -8 z "},"Ý":{"ha":825,"x_min":17,"x_max":814,"o":"m 260 -8 q 229 6 242 -8 q 217 36 217 19 q 225 63 217 50 l 361 292 l 26 867 q 17 894 17 881 q 31 924 17 911 q 63 938 44 938 q 83 931 72 938 q 99 915 93 925 l 413 378 l 732 915 q 769 938 744 938 q 800 925 786 938 q 814 894 814 913 q 801 863 814 882 l 297 14 q 281 -2 292 4 q 260 -8 271 -8 m 368 1011 q 340 1024 351 1011 q 328 1053 328 1036 q 339 1082 328 1072 l 510 1222 q 533 1238 524 1232 q 553 1243 542 1243 q 590 1228 575 1243 q 604 1189 604 1213 q 589 1153 604 1164 l 401 1025 q 368 1011 379 1011 z "},"Þ":{"ha":753,"x_min":93,"x_max":665,"o":"m 132 -8 q 104 3 115 -8 q 93 33 93 15 l 96 896 q 108 925 96 914 q 135 936 119 936 q 164 924 151 936 q 176 894 176 913 l 176 788 q 524 732 383 788 q 665 513 665 676 q 588 326 665 399 q 399 223 511 254 q 174 189 288 192 l 174 32 q 162 3 174 15 q 132 -8 150 -8 m 175 275 q 354 299 260 276 q 517 375 449 322 q 585 513 585 428 q 489 653 585 603 q 224 704 393 704 q 176 703 189 704 l 175 275 z "},"ß":{"ha":731,"x_min":101,"x_max":674,"o":"m 474 490 q 574 443 528 479 q 647 353 619 407 q 674 235 674 299 q 636 97 674 161 q 534 -5 599 33 q 396 -43 469 -43 q 301 -24 339 -43 q 263 22 263 -6 q 275 51 263 40 q 304 63 288 63 q 342 54 317 63 q 365 47 344 53 q 417 43 385 40 q 504 71 464 44 q 568 140 544 97 q 592 233 592 183 q 568 328 592 283 q 501 399 544 372 q 403 426 458 426 q 360 424 385 426 q 332 421 340 421 q 304 433 317 421 q 292 461 292 444 q 303 492 292 481 q 335 503 314 503 q 437 548 399 504 q 475 656 475 592 q 433 755 475 715 q 331 794 392 794 q 227 751 271 794 q 183 649 183 708 l 183 31 q 172 3 183 15 q 143 -10 160 -10 q 114 3 126 -10 q 101 31 101 15 l 101 649 q 132 763 101 710 q 215 846 163 815 q 331 876 268 876 q 444 847 392 876 q 526 769 496 818 q 557 660 557 719 q 533 558 557 606 q 474 490 510 510 z "},"à":{"ha":717,"x_min":64,"x_max":608,"o":"m 565 -19 q 533 -6 544 -19 q 522 26 522 7 l 522 65 q 432 12 485 32 q 326 -8 379 -8 q 192 29 251 -8 q 98 135 132 67 q 64 292 64 204 q 103 477 64 386 q 219 626 143 568 q 397 685 294 685 q 510 668 461 685 q 608 628 558 651 l 608 26 q 596 -6 608 7 q 565 -19 583 -19 m 326 74 q 435 99 381 74 q 518 154 489 125 l 524 575 q 466 594 501 585 q 400 603 431 603 q 275 563 332 603 q 185 452 218 522 q 153 294 153 382 q 201 133 153 193 q 326 74 250 74 z "},"á":{"ha":717,"x_min":64,"x_max":608,"o":"m 565 -19 q 533 -6 544 -19 q 522 26 522 7 l 522 65 q 432 12 485 32 q 326 -8 379 -8 q 192 29 251 -8 q 98 135 132 67 q 64 292 64 204 q 103 477 64 386 q 219 626 143 568 q 397 685 294 685 q 510 668 461 685 q 608 628 558 651 l 608 26 q 596 -6 608 7 q 565 -19 583 -19 m 326 74 q 435 99 381 74 q 518 154 489 125 l 524 575 q 466 594 501 585 q 400 603 431 603 q 275 563 332 603 q 185 452 218 522 q 153 294 153 382 q 201 133 153 193 q 326 74 250 74 z "},"â":{"ha":717,"x_min":64,"x_max":611,"o":"m 565 -19 q 533 -6 544 -19 q 522 26 522 7 l 522 65 q 432 12 485 32 q 326 -8 379 -8 q 192 29 251 -8 q 98 135 132 67 q 64 292 64 204 q 103 477 64 386 q 219 626 143 568 q 397 685 294 685 q 510 668 461 685 q 608 628 558 651 l 608 26 q 596 -6 608 7 q 565 -19 583 -19 m 326 74 q 435 99 381 74 q 518 154 489 125 l 524 575 q 466 594 501 585 q 400 603 431 603 q 275 563 332 603 q 185 452 218 522 q 153 294 153 382 q 201 133 153 193 q 326 74 250 74 z "},"ã":{"ha":717,"x_min":64,"x_max":649,"o":"m 565 -19 q 533 -6 544 -19 q 522 26 522 7 l 522 65 q 432 12 485 32 q 326 -8 379 -8 q 192 29 251 -8 q 98 135 132 67 q 64 292 64 204 q 103 477 64 386 q 219 626 143 568 q 397 685 294 685 q 510 668 461 685 q 608 628 558 651 l 608 26 q 596 -6 608 7 q 565 -19 583 -19 m 326 74 q 435 99 381 74 q 518 154 489 125 l 524 575 q 466 594 501 585 q 400 603 431 603 q 275 563 332 603 q 185 452 218 522 q 153 294 153 382 q 201 133 153 193 q 326 74 250 74 z "},"ä":{"ha":717,"x_min":64,"x_max":608,"o":"m 565 -19 q 533 -6 544 -19 q 522 26 522 7 l 522 65 q 432 12 485 32 q 326 -8 379 -8 q 192 29 251 -8 q 98 135 132 67 q 64 292 64 204 q 103 477 64 386 q 219 626 143 568 q 397 685 294 685 q 510 668 461 685 q 608 628 558 651 l 608 26 q 596 -6 608 7 q 565 -19 583 -19 m 326 74 q 435 99 381 74 q 518 154 489 125 l 524 575 q 466 594 501 585 q 400 603 431 603 q 275 563 332 603 q 185 452 218 522 q 153 294 153 382 q 201 133 153 193 q 326 74 250 74 z "},"å":{"ha":717,"x_min":64,"x_max":608,"o":"m 565 -19 q 533 -6 544 -19 q 522 26 522 7 l 522 65 q 432 12 485 32 q 326 -8 379 -8 q 192 29 251 -8 q 98 135 132 67 q 64 292 64 204 q 103 477 64 386 q 219 626 143 568 q 397 685 294 685 q 510 668 461 685 q 608 628 558 651 l 608 26 q 596 -6 608 7 q 565 -19 583 -19 m 326 74 q 435 99 381 74 q 518 154 489 125 l 524 575 q 466 594 501 585 q 400 603 431 603 q 275 563 332 603 q 185 452 218 522 q 153 294 153 382 q 201 133 153 193 q 326 74 250 74 z "},"æ":{"ha":1142,"x_min":67,"x_max":1076,"o":"m 551 -8 q 519 4 532 -8 q 507 33 507 17 l 507 71 q 422 22 472 42 q 322 3 372 3 q 191 38 249 3 q 100 138 133 72 q 67 290 67 203 q 110 493 67 403 q 226 633 154 583 q 379 683 297 683 q 503 664 439 683 q 589 628 567 644 l 589 551 q 694 634 633 606 q 818 663 756 663 q 951 632 896 663 q 1036 558 1007 601 q 1065 481 1065 515 q 1032 438 1065 456 l 614 196 q 849 74 679 74 q 935 95 892 74 q 1007 149 979 117 q 1036 161 1019 161 q 1065 149 1054 161 q 1076 119 1076 138 q 1067 92 1076 104 q 965 20 1028 49 q 840 -8 903 -8 q 699 19 764 -8 q 593 99 635 46 l 593 33 q 580 5 593 18 q 551 -8 567 -8 m 318 86 q 418 108 365 86 q 504 158 471 131 l 511 574 q 453 592 488 583 q 390 600 419 600 q 256 553 310 600 q 177 437 203 507 q 151 294 151 367 q 197 146 151 206 q 318 86 242 86 m 979 493 q 922 558 964 535 q 818 581 881 581 q 701 547 754 581 q 617 452 649 513 q 585 317 586 392 q 588 275 585 289 l 979 493 z "},"ç":{"ha":669,"x_min":64,"x_max":635,"o":"m 592 193 q 622 181 610 193 q 635 151 635 168 q 621 119 635 138 q 520 31 586 68 q 375 -8 454 -7 l 372 -46 q 403 -42 385 -42 q 481 -77 446 -42 q 515 -160 515 -112 q 478 -251 515 -214 q 385 -287 440 -287 q 310 -267 344 -287 q 276 -215 276 -246 q 285 -192 276 -201 q 307 -183 294 -183 q 338 -199 322 -183 q 359 -220 349 -212 q 389 -228 369 -228 q 434 -208 415 -228 q 453 -160 453 -189 q 433 -114 453 -133 q 388 -94 414 -94 q 350 -105 368 -94 q 324 -115 332 -115 q 306 -108 314 -115 q 299 -89 299 -100 q 324 -6 299 -75 q 192 46 251 4 q 99 152 133 88 q 64 293 64 217 q 108 478 64 388 q 224 627 151 569 q 374 685 296 685 q 492 661 446 685 q 582 588 539 638 q 593 558 593 576 q 581 528 593 540 q 551 515 569 515 q 519 531 532 515 q 457 585 489 567 q 376 604 425 604 q 268 560 321 604 q 182 444 215 515 q 149 296 149 372 q 181 176 149 226 q 265 99 214 125 q 367 72 315 72 q 553 168 486 72 q 592 193 571 193 z "},"è":{"ha":696,"x_min":64,"x_max":650,"o":"m 410 -8 q 229 37 308 -8 q 107 158 150 82 q 64 325 64 235 q 103 502 64 419 q 214 635 143 585 q 376 685 285 685 q 519 653 460 685 q 608 576 578 621 q 638 497 638 532 q 604 453 638 472 l 174 207 q 268 106 208 140 q 408 72 328 72 q 502 94 453 72 q 581 147 551 117 q 608 161 590 161 q 638 149 626 161 q 650 119 650 138 q 639 92 650 106 q 537 20 601 49 q 410 -8 472 -8 m 551 508 q 490 579 532 556 q 378 603 449 603 q 258 566 311 603 q 176 467 206 529 q 144 329 146 404 q 147 285 144 301 l 551 508 z "},"é":{"ha":696,"x_min":64,"x_max":650,"o":"m 410 -8 q 229 37 308 -8 q 107 158 150 82 q 64 325 64 235 q 103 502 64 419 q 214 635 143 585 q 376 685 285 685 q 519 653 460 685 q 608 576 578 621 q 638 497 638 532 q 604 453 638 472 l 174 207 q 268 106 208 140 q 408 72 328 72 q 502 94 453 72 q 581 147 551 117 q 608 161 590 161 q 638 149 626 161 q 650 119 650 138 q 639 92 650 106 q 537 20 601 49 q 410 -8 472 -8 m 551 508 q 490 579 532 556 q 378 603 449 603 q 258 566 311 603 q 176 467 206 529 q 144 329 146 404 q 147 285 144 301 l 551 508 z "},"ê":{"ha":696,"x_min":64,"x_max":650,"o":"m 410 -8 q 229 37 308 -8 q 107 158 150 82 q 64 325 64 235 q 103 502 64 419 q 214 635 143 585 q 376 685 285 685 q 519 653 460 685 q 608 576 578 621 q 638 497 638 532 q 604 453 638 472 l 174 207 q 268 106 208 140 q 408 72 328 72 q 502 94 453 72 q 581 147 551 117 q 608 161 590 161 q 638 149 626 161 q 650 119 650 138 q 639 92 650 106 q 537 20 601 49 q 410 -8 472 -8 m 551 508 q 490 579 532 556 q 378 603 449 603 q 258 566 311 603 q 176 467 206 529 q 144 329 146 404 q 147 285 144 301 l 551 508 z "},"ë":{"ha":696,"x_min":64,"x_max":650,"o":"m 410 -8 q 229 37 308 -8 q 107 158 150 82 q 64 325 64 235 q 103 502 64 419 q 214 635 143 585 q 376 685 285 685 q 519 653 460 685 q 608 576 578 621 q 638 497 638 532 q 604 453 638 472 l 174 207 q 268 106 208 140 q 408 72 328 72 q 502 94 453 72 q 581 147 551 117 q 608 161 590 161 q 638 149 626 161 q 650 119 650 138 q 639 92 650 106 q 537 20 601 49 q 410 -8 472 -8 m 551 508 q 490 579 532 556 q 378 603 449 603 q 258 566 311 603 q 176 467 206 529 q 144 329 146 404 q 147 285 144 301 l 551 508 z "},"ì":{"ha":317,"x_min":-10,"x_max":242,"o":"m 153 -8 q 121 5 135 -8 q 107 36 107 18 l 115 636 q 129 667 115 654 q 161 681 143 681 q 193 668 181 681 q 206 636 206 656 l 197 36 q 184 5 197 18 q 153 -8 171 -8 z "},"í":{"ha":317,"x_min":74,"x_max":325,"o":"m 153 -8 q 121 5 135 -8 q 107 36 107 18 l 115 636 q 129 667 115 654 q 161 681 143 681 q 193 668 181 681 q 206 636 206 656 l 197 36 q 184 5 197 18 q 153 -8 171 -8 z "},"î":{"ha":317,"x_min":-53,"x_max":367,"o":"m 153 -8 q 121 5 135 -8 q 107 36 107 18 l 115 636 q 129 667 115 654 q 161 681 143 681 q 193 668 181 681 q 206 636 206 656 l 197 36 q 184 5 197 18 q 153 -8 171 -8 z "},"ï":{"ha":317,"x_min":-28,"x_max":340,"o":"m 153 -8 q 121 5 135 -8 q 107 36 107 18 l 115 636 q 129 667 115 654 q 161 681 143 681 q 193 668 181 681 q 206 636 206 656 l 197 36 q 184 5 197 18 q 153 -8 171 -8 z "},"ð":{"ha":653,"x_min":56,"x_max":589,"o":"m 286 -7 q 169 24 222 -7 q 86 112 117 56 q 56 240 56 168 q 156 494 56 399 q 425 597 257 589 q 306 754 379 672 q 176 675 271 735 q 144 660 153 660 q 122 668 132 660 q 113 690 113 676 q 135 725 113 707 q 210 772 156 740 q 258 803 217 778 l 229 829 q 205 853 213 843 q 197 874 197 863 q 210 902 197 890 q 239 914 222 914 q 263 906 253 914 q 331 844 283 892 q 428 894 375 869 q 494 919 481 919 q 516 911 507 919 q 525 889 525 903 q 510 863 525 871 q 429 822 476 847 q 376 794 382 797 q 529 579 469 694 q 589 347 589 464 q 552 176 589 257 q 446 44 515 94 q 286 -7 376 -7 m 286 74 q 404 113 354 74 q 481 215 454 151 q 508 351 508 279 q 467 519 508 432 q 230 451 324 519 q 136 239 136 383 q 178 119 136 164 q 286 74 221 74 z "},"ñ":{"ha":768,"x_min":108,"x_max":674,"o":"m 153 -8 q 122 4 135 -8 q 108 32 108 17 l 108 644 q 122 674 108 663 q 153 686 135 686 q 183 674 171 686 q 196 644 196 663 l 196 425 q 308 617 236 550 q 469 685 379 685 q 590 646 546 685 q 654 523 635 607 q 674 297 674 439 q 672 115 674 158 l 672 36 q 660 5 672 18 q 631 -8 649 -8 q 601 5 614 -8 q 589 35 589 18 l 589 113 q 588 292 588 156 q 574 488 588 421 q 534 578 561 554 q 457 603 507 603 q 364 568 410 603 q 283 469 318 533 q 217 313 238 386 q 196 161 197 239 l 194 38 q 183 5 194 18 q 153 -8 171 -8 z "},"ò":{"ha":735,"x_min":64,"x_max":669,"o":"m 346 -8 q 202 34 267 -8 q 101 149 138 76 q 64 311 64 222 q 106 492 64 406 q 224 631 149 578 q 389 685 299 685 q 531 642 467 685 q 633 527 596 600 q 669 367 669 454 q 625 181 669 267 q 506 43 581 94 q 346 -8 432 -8 m 351 71 q 464 111 411 71 q 549 218 517 151 q 581 360 581 285 q 554 481 581 425 q 483 572 528 538 q 382 606 438 606 q 269 565 321 606 q 185 456 217 524 q 154 314 154 389 q 181 187 154 242 q 254 101 208 132 q 351 71 300 71 z "},"ó":{"ha":735,"x_min":64,"x_max":669,"o":"m 346 -8 q 202 34 267 -8 q 101 149 138 76 q 64 311 64 222 q 106 492 64 406 q 224 631 149 578 q 389 685 299 685 q 531 642 467 685 q 633 527 596 600 q 669 367 669 454 q 625 181 669 267 q 506 43 581 94 q 346 -8 432 -8 m 351 71 q 464 111 411 71 q 549 218 517 151 q 581 360 581 285 q 554 481 581 425 q 483 572 528 538 q 382 606 438 606 q 269 565 321 606 q 185 456 217 524 q 154 314 154 389 q 181 187 154 242 q 254 101 208 132 q 351 71 300 71 z "},"ô":{"ha":735,"x_min":64,"x_max":669,"o":"m 346 -8 q 202 34 267 -8 q 101 149 138 76 q 64 311 64 222 q 106 492 64 406 q 224 631 149 578 q 389 685 299 685 q 531 642 467 685 q 633 527 596 600 q 669 367 669 454 q 625 181 669 267 q 506 43 581 94 q 346 -8 432 -8 m 351 71 q 464 111 411 71 q 549 218 517 151 q 581 360 581 285 q 554 481 581 425 q 483 572 528 538 q 382 606 438 606 q 269 565 321 606 q 185 456 217 524 q 154 314 154 389 q 181 187 154 242 q 254 101 208 132 q 351 71 300 71 z "},"õ":{"ha":735,"x_min":64,"x_max":669,"o":"m 346 -8 q 202 34 267 -8 q 101 149 138 76 q 64 311 64 222 q 106 492 64 406 q 224 631 149 578 q 389 685 299 685 q 531 642 467 685 q 633 527 596 600 q 669 367 669 454 q 625 181 669 267 q 506 43 581 94 q 346 -8 432 -8 m 351 71 q 464 111 411 71 q 549 218 517 151 q 581 360 581 285 q 554 481 581 425 q 483 572 528 538 q 382 606 438 606 q 269 565 321 606 q 185 456 217 524 q 154 314 154 389 q 181 187 154 242 q 254 101 208 132 q 351 71 300 71 z "},"ö":{"ha":735,"x_min":64,"x_max":669,"o":"m 346 -8 q 202 34 267 -8 q 101 149 138 76 q 64 311 64 222 q 106 492 64 406 q 224 631 149 578 q 389 685 299 685 q 531 642 467 685 q 633 527 596 600 q 669 367 669 454 q 625 181 669 267 q 506 43 581 94 q 346 -8 432 -8 m 351 71 q 464 111 411 71 q 549 218 517 151 q 581 360 581 285 q 554 481 581 425 q 483 572 528 538 q 382 606 438 606 q 269 565 321 606 q 185 456 217 524 q 154 314 154 389 q 181 187 154 242 q 254 101 208 132 q 351 71 300 71 z "},"÷":{"ha":600,"x_min":82,"x_max":518,"o":"m 307 414 q 276 428 288 414 q 264 463 264 442 q 279 502 264 485 q 315 519 294 519 q 344 506 332 519 q 357 475 357 493 q 342 432 357 450 q 307 414 328 414 m 125 289 q 95 301 108 289 q 82 329 82 313 q 95 358 82 346 q 125 371 108 371 l 476 371 q 506 359 494 371 q 518 329 518 347 q 506 301 518 313 q 476 289 494 289 l 125 289 m 285 139 q 254 153 267 139 q 242 188 242 167 q 258 227 242 210 q 294 244 274 244 q 322 231 310 244 q 335 200 335 218 q 320 156 335 174 q 285 139 306 139 z "},"ø":{"ha":735,"x_min":64,"x_max":669,"o":"m 150 -57 q 123 -44 135 -57 q 111 -15 111 -32 q 117 7 111 -1 l 156 74 q 88 180 113 118 q 64 311 64 242 q 108 497 64 411 q 228 635 153 583 q 389 686 303 686 q 499 660 446 686 l 539 728 q 572 747 550 747 q 601 735 589 747 q 614 707 614 724 q 608 686 614 697 l 565 615 q 642 504 614 569 q 669 367 669 439 q 625 181 669 267 q 506 43 581 94 q 346 -8 432 -8 q 219 24 276 -8 l 185 -36 q 150 -57 171 -57 m 457 590 q 382 610 422 610 q 268 569 321 610 q 184 460 215 528 q 153 314 153 392 q 201 150 153 221 l 457 590 m 346 68 q 460 108 406 68 q 547 216 514 149 q 581 360 581 283 q 565 456 581 410 q 519 538 549 503 l 260 92 q 346 68 299 68 z "},"ù":{"ha":710,"x_min":88,"x_max":619,"o":"m 297 -12 q 174 22 219 -12 q 108 140 129 57 q 88 372 88 224 q 104 635 88 532 q 119 674 108 663 q 149 686 129 686 q 177 675 165 686 q 189 644 189 664 q 185 590 189 624 q 172 339 172 490 q 201 129 172 193 q 299 65 231 65 q 424 98 361 65 q 514 161 488 131 q 531 224 531 181 l 536 647 q 549 675 536 664 q 578 686 561 686 q 607 675 594 686 q 619 647 619 664 l 619 35 q 606 5 619 18 q 574 -8 592 -8 q 538 6 551 -8 q 525 40 525 19 l 525 93 q 431 20 494 53 q 297 -12 368 -12 z "},"ú":{"ha":710,"x_min":88,"x_max":619,"o":"m 297 -12 q 174 22 219 -12 q 108 140 129 57 q 88 372 88 224 q 104 635 88 532 q 119 674 108 663 q 149 686 129 686 q 177 675 165 686 q 189 644 189 664 q 185 590 189 624 q 172 339 172 490 q 201 129 172 193 q 299 65 231 65 q 424 98 361 65 q 514 161 488 131 q 531 224 531 181 l 536 647 q 549 675 536 664 q 578 686 561 686 q 607 675 594 686 q 619 647 619 664 l 619 35 q 606 5 619 18 q 574 -8 592 -8 q 538 6 551 -8 q 525 40 525 19 l 525 93 q 431 20 494 53 q 297 -12 368 -12 z "},"û":{"ha":710,"x_min":88,"x_max":619,"o":"m 297 -12 q 174 22 219 -12 q 108 140 129 57 q 88 372 88 224 q 104 635 88 532 q 119 674 108 663 q 149 686 129 686 q 177 675 165 686 q 189 644 189 664 q 185 590 189 624 q 172 339 172 490 q 201 129 172 193 q 299 65 231 65 q 424 98 361 65 q 514 161 488 131 q 531 224 531 181 l 536 647 q 549 675 536 664 q 578 686 561 686 q 607 675 594 686 q 619 647 619 664 l 619 35 q 606 5 619 18 q 574 -8 592 -8 q 538 6 551 -8 q 525 40 525 19 l 525 93 q 431 20 494 53 q 297 -12 368 -12 z "},"ü":{"ha":710,"x_min":88,"x_max":619,"o":"m 297 -12 q 174 22 219 -12 q 108 140 129 57 q 88 372 88 224 q 104 635 88 532 q 119 674 108 663 q 149 686 129 686 q 177 675 165 686 q 189 644 189 664 q 185 590 189 624 q 172 339 172 490 q 201 129 172 193 q 299 65 231 65 q 424 98 361 65 q 514 161 488 131 q 531 224 531 181 l 536 647 q 549 675 536 664 q 578 686 561 686 q 607 675 594 686 q 619 647 619 664 l 619 35 q 606 5 619 18 q 574 -8 592 -8 q 538 6 551 -8 q 525 40 525 19 l 525 93 q 431 20 494 53 q 297 -12 368 -12 z "},"ý":{"ha":621,"x_min":-4,"x_max":621,"o":"m 174 -278 q 143 -265 156 -278 q 131 -233 131 -251 q 136 -214 131 -224 l 271 81 l 1 618 q -4 642 -4 632 q 9 674 -4 661 q 40 686 22 686 q 65 678 54 686 q 82 657 76 669 l 318 183 l 536 660 q 578 688 550 688 q 608 675 596 688 q 621 644 621 663 q 617 625 621 632 l 215 -250 q 174 -278 200 -278 z "},"þ":{"ha":738,"x_min":108,"x_max":674,"o":"m 153 -275 q 122 -262 135 -275 q 108 -232 108 -249 l 108 900 q 122 932 108 919 q 153 944 135 944 q 183 932 171 944 q 196 900 196 919 l 196 582 q 446 672 293 672 q 571 626 519 669 q 648 515 622 583 q 674 368 674 446 q 604 112 674 221 q 368 3 535 3 q 196 40 293 3 l 196 -232 q 183 -262 196 -249 q 153 -275 169 -275 m 376 92 q 594 368 594 92 q 580 469 594 417 q 530 558 565 521 q 438 594 494 594 q 285 556 346 594 q 196 478 224 518 l 196 136 q 376 92 294 92 z "},"ÿ":{"ha":621,"x_min":-4,"x_max":621,"o":"m 174 -278 q 143 -265 156 -278 q 131 -233 131 -251 q 136 -214 131 -224 l 271 81 l 1 618 q -4 642 -4 632 q 9 674 -4 661 q 40 686 22 686 q 65 678 54 686 q 82 657 76 669 l 318 183 l 536 660 q 578 688 550 688 q 608 675 596 688 q 621 644 621 663 q 617 625 621 632 l 215 -250 q 174 -278 200 -278 z "},"ā":{"ha":717,"x_min":64,"x_max":608,"o":"m 565 -19 q 533 -6 544 -19 q 522 26 522 7 l 522 65 q 432 12 485 32 q 326 -8 379 -8 q 192 29 251 -8 q 98 135 132 67 q 64 292 64 204 q 103 477 64 386 q 219 626 143 568 q 397 685 294 685 q 510 668 461 685 q 608 628 558 651 l 608 26 q 596 -6 608 7 q 565 -19 583 -19 m 326 74 q 435 99 381 74 q 518 154 489 125 l 524 575 q 466 594 501 585 q 400 603 431 603 q 275 563 332 603 q 185 452 218 522 q 153 294 153 382 q 201 133 153 193 q 326 74 250 74 z "},"Ă":{"ha":807,"x_min":38,"x_max":767,"o":"m 722 -10 q 697 -1 708 -10 q 681 21 685 7 l 567 351 l 221 275 l 119 19 q 104 -1 115 7 q 79 -8 93 -8 q 49 4 61 -8 q 38 36 38 17 q 43 60 38 44 l 119 256 q 94 251 107 251 q 67 265 78 253 q 56 294 56 276 q 65 322 56 310 q 89 338 75 335 l 158 353 l 381 921 q 399 941 386 933 q 424 949 411 949 q 449 941 438 949 q 465 919 460 933 l 758 67 q 767 33 767 42 q 754 3 767 17 q 722 -10 742 -10 m 536 435 l 418 781 l 258 375 l 536 435 z "},"ă":{"ha":717,"x_min":64,"x_max":625,"o":"m 565 -19 q 533 -6 544 -19 q 522 26 522 7 l 522 65 q 432 12 485 32 q 326 -8 379 -8 q 192 29 251 -8 q 98 135 132 67 q 64 292 64 204 q 103 477 64 386 q 219 626 143 568 q 397 685 294 685 q 510 668 461 685 q 608 628 558 651 l 608 26 q 596 -6 608 7 q 565 -19 583 -19 m 326 74 q 435 99 381 74 q 518 154 489 125 l 524 575 q 466 594 501 585 q 400 603 431 603 q 275 563 332 603 q 185 452 218 522 q 153 294 153 382 q 201 133 153 193 q 326 74 250 74 z "},"Ą":{"ha":807,"x_min":38,"x_max":857,"o":"m 824 -179 q 847 -189 836 -179 q 857 -212 857 -199 q 813 -263 857 -240 q 719 -286 768 -286 q 615 -245 657 -286 q 572 -143 572 -204 q 602 -51 572 -94 q 678 26 632 -7 l 674 39 l 567 351 l 221 275 l 119 19 q 104 -1 115 7 q 79 -8 93 -8 q 49 4 61 -8 q 38 36 38 17 q 43 60 38 44 l 119 256 l 101 251 q 69 262 82 249 q 56 294 56 275 q 65 322 56 310 q 89 338 75 335 l 158 353 l 381 921 q 399 941 386 933 q 424 949 411 949 q 449 941 438 949 q 465 919 460 933 l 758 68 q 767 33 767 47 q 757 3 767 17 q 726 -26 747 -11 q 666 -80 689 -53 q 643 -144 643 -107 q 665 -195 643 -175 q 719 -215 688 -215 q 793 -190 764 -215 q 824 -179 810 -179 m 258 375 l 536 435 l 418 781 l 258 375 z "},"ą":{"ha":703,"x_min":67,"x_max":697,"o":"m 560 -286 q 455 -247 497 -286 q 413 -144 413 -207 q 442 -51 413 -90 q 526 25 471 -11 l 524 68 q 431 24 482 42 q 329 6 379 6 q 194 42 254 6 q 101 147 135 79 q 67 303 67 215 q 102 478 67 385 q 212 639 138 572 q 399 706 286 706 q 515 688 464 706 q 611 647 567 669 l 611 50 q 599 6 611 22 q 556 -33 588 -11 q 502 -83 521 -58 q 483 -144 483 -107 q 506 -197 483 -176 q 560 -217 528 -217 q 640 -186 604 -217 q 663 -179 651 -179 q 687 -190 676 -179 q 697 -212 697 -200 q 674 -249 697 -232 q 617 -276 650 -267 q 560 -286 583 -286 m 326 90 q 521 168 410 90 l 526 593 q 403 619 454 619 q 263 568 318 619 q 181 443 207 517 q 156 306 156 369 q 198 156 156 222 q 326 90 240 90 z "},"Ć":{"ha":853,"x_min":67,"x_max":807,"o":"m 468 -8 q 267 43 358 -8 q 121 188 175 94 q 67 404 67 282 q 128 665 67 540 q 290 864 190 789 q 494 939 389 939 q 597 924 554 939 q 679 885 640 910 q 693 899 683 893 q 715 904 703 904 q 746 892 733 904 q 758 861 758 879 l 758 772 q 745 741 758 754 q 714 728 732 728 q 683 740 696 728 q 669 771 669 753 l 669 782 q 599 831 639 811 q 494 851 558 851 q 335 789 413 851 q 208 623 257 726 q 158 404 158 519 q 201 232 158 306 q 315 119 244 158 q 468 79 386 79 q 728 210 628 79 q 744 223 736 219 q 763 226 751 226 q 794 215 781 226 q 807 182 807 203 q 799 156 807 165 q 654 34 740 76 q 468 -8 568 -8 m 432 1011 q 403 1024 415 1011 q 392 1053 392 1036 q 403 1082 392 1072 l 574 1222 q 597 1238 588 1232 q 617 1243 606 1243 q 653 1228 639 1243 q 668 1189 668 1213 q 653 1153 668 1164 l 465 1025 q 432 1011 443 1011 z "},"ć":{"ha":669,"x_min":64,"x_max":635,"o":"m 367 -8 q 216 31 286 -8 q 105 140 146 71 q 64 293 64 210 q 108 478 64 388 q 224 627 151 569 q 374 685 296 685 q 492 661 446 685 q 582 588 539 638 q 593 558 593 576 q 581 528 593 540 q 551 515 569 515 q 519 531 532 515 q 457 585 489 567 q 376 604 425 604 q 268 560 321 604 q 182 444 215 515 q 149 296 149 372 q 181 176 149 226 q 265 99 214 125 q 367 72 315 72 q 553 168 486 72 q 592 193 571 193 q 622 181 610 193 q 635 151 635 168 q 621 119 635 138 q 517 29 585 67 q 367 -8 449 -8 z "},"Ĉ":{"ha":853,"x_min":67,"x_max":807,"o":"m 468 -8 q 267 43 358 -8 q 121 188 175 94 q 67 404 67 282 q 128 665 67 540 q 290 864 190 789 q 494 939 389 939 q 597 924 554 939 q 679 885 640 910 q 693 899 683 893 q 715 904 703 904 q 746 892 733 904 q 758 861 758 879 l 758 772 q 745 741 758 754 q 714 728 732 728 q 683 740 696 728 q 669 771 669 753 l 669 782 q 599 831 639 811 q 494 851 558 851 q 335 789 413 851 q 208 623 257 726 q 158 404 158 519 q 201 232 158 306 q 315 119 244 158 q 468 79 386 79 q 728 210 628 79 q 744 223 736 219 q 763 226 751 226 q 794 215 781 226 q 807 182 807 203 q 799 156 807 165 q 654 34 740 76 q 468 -8 568 -8 z "},"ĉ":{"ha":669,"x_min":64,"x_max":635,"o":"m 367 -8 q 216 31 286 -8 q 105 140 146 71 q 64 293 64 210 q 108 478 64 388 q 224 627 151 569 q 374 685 296 685 q 492 661 446 685 q 582 588 539 638 q 593 558 593 576 q 581 528 593 540 q 551 515 569 515 q 519 531 532 515 q 457 585 489 567 q 376 604 425 604 q 268 560 321 604 q 182 444 215 515 q 149 296 149 372 q 181 176 149 226 q 265 99 214 125 q 367 72 315 72 q 553 168 486 72 q 592 193 571 193 q 622 181 610 193 q 635 151 635 168 q 621 119 635 138 q 517 29 585 67 q 367 -8 449 -8 z "},"Č":{"ha":853,"x_min":67,"x_max":807,"o":"m 468 -8 q 267 43 358 -8 q 121 188 175 94 q 67 404 67 282 q 128 665 67 540 q 290 864 190 789 q 494 939 389 939 q 597 924 554 939 q 679 885 640 910 q 693 899 683 893 q 715 904 703 904 q 746 892 733 904 q 758 861 758 879 l 758 772 q 745 741 758 754 q 714 728 732 728 q 683 740 696 728 q 669 771 669 753 l 669 782 q 599 831 639 811 q 494 851 558 851 q 335 789 413 851 q 208 623 257 726 q 158 404 158 519 q 201 232 158 306 q 315 119 244 158 q 468 79 386 79 q 728 210 628 79 q 744 223 736 219 q 763 226 751 226 q 794 215 781 226 q 807 182 807 203 q 799 156 807 165 q 654 34 740 76 q 468 -8 568 -8 z "},"č":{"ha":669,"x_min":64,"x_max":635,"o":"m 367 -8 q 216 31 286 -8 q 105 140 146 71 q 64 293 64 210 q 108 478 64 388 q 224 627 151 569 q 374 685 296 685 q 492 661 446 685 q 582 588 539 638 q 593 558 593 576 q 581 528 593 540 q 551 515 569 515 q 519 531 532 515 q 457 585 489 567 q 376 604 425 604 q 268 560 321 604 q 182 444 215 515 q 149 296 149 372 q 181 176 149 226 q 265 99 214 125 q 367 72 315 72 q 553 168 486 72 q 592 193 571 193 q 622 181 610 193 q 635 151 635 168 q 621 119 635 138 q 517 29 585 67 q 367 -8 449 -8 z "},"Ď":{"ha":874,"x_min":115,"x_max":807,"o":"m 321 -10 q 150 14 244 -10 q 125 31 135 18 q 115 58 115 43 l 115 893 q 128 924 115 911 q 161 936 142 936 q 449 894 304 936 q 701 734 594 851 q 807 410 807 617 q 743 175 807 269 q 569 35 679 81 q 321 -10 460 -10 m 321 79 q 611 163 506 79 q 717 410 717 247 q 575 732 717 628 q 206 847 433 836 l 206 93 q 321 79 279 79 z "},"ď":{"ha":769,"x_min":64,"x_max":824,"o":"m 306 -17 q 183 21 238 -17 q 96 130 128 58 q 64 297 64 201 q 143 575 64 475 q 361 675 222 675 q 546 626 454 675 l 553 903 q 567 934 553 921 q 599 947 581 947 q 628 933 615 947 q 642 901 642 919 l 621 25 q 608 -5 621 7 q 576 -17 594 -17 q 544 -2 557 -17 q 533 32 532 13 l 535 89 q 306 -17 426 -17 m 307 65 q 424 92 371 65 q 506 155 476 118 q 538 219 536 192 l 544 540 q 465 575 514 558 q 365 592 415 592 q 204 515 258 592 q 150 301 150 439 q 192 128 150 190 q 307 65 235 65 m 733 707 q 707 717 718 707 q 696 742 696 728 q 699 756 696 747 l 731 840 q 715 883 715 861 q 733 930 715 910 q 775 950 751 950 q 810 935 796 950 q 824 900 824 919 q 817 862 824 882 q 794 801 811 842 l 781 767 q 757 719 765 731 q 733 707 749 707 z "},"Đ":{"ha":915,"x_min":49,"x_max":844,"o":"m 378 -36 q 291 -30 326 -36 q 207 -12 256 -24 q 183 4 192 -8 q 174 32 174 17 l 174 378 l 92 378 q 62 391 75 378 q 49 421 49 404 q 62 453 49 439 q 92 467 75 467 l 174 467 l 174 894 q 186 925 174 913 q 218 938 199 938 q 501 895 360 938 q 743 735 642 853 q 844 410 844 618 q 717 75 844 186 q 378 -36 590 -36 m 378 53 q 659 142 561 53 q 757 410 757 232 q 621 733 757 629 q 258 849 485 838 l 258 467 l 396 467 q 426 453 414 467 q 439 421 439 440 q 426 391 439 404 q 396 378 414 378 l 258 378 l 258 68 q 378 53 325 53 z "},"đ":{"ha":760,"x_min":64,"x_max":740,"o":"m 701 831 q 729 819 718 831 q 740 793 740 808 q 729 766 740 778 q 701 754 718 754 l 638 754 l 621 33 q 608 3 621 15 q 576 -8 594 -8 q 544 6 557 -8 q 533 40 532 21 l 535 94 q 306 -3 425 -3 q 174 40 228 -3 q 92 153 119 83 q 64 306 64 224 q 138 574 64 467 q 363 681 211 681 q 546 633 457 681 l 549 754 l 432 754 q 403 766 415 754 q 392 793 392 778 q 403 819 392 808 q 432 831 415 831 l 551 831 l 553 913 q 567 944 553 931 q 599 958 581 958 q 628 944 615 958 q 642 911 642 931 l 640 831 l 701 831 m 544 547 q 463 581 511 565 q 365 597 415 597 q 197 511 243 597 q 150 310 150 425 q 188 145 150 215 q 306 75 225 75 q 422 100 369 75 q 506 160 475 125 q 538 218 536 194 l 544 547 z "},"Ę":{"ha":838,"x_min":115,"x_max":813,"o":"m 778 -172 q 801 -182 790 -172 q 813 -206 813 -192 q 763 -257 813 -235 q 674 -279 714 -279 q 569 -237 611 -278 q 528 -136 528 -197 q 593 0 528 -65 l 161 0 q 129 14 143 0 q 115 46 115 28 l 115 886 q 128 917 115 904 q 161 931 142 931 l 749 931 q 781 918 768 931 q 793 886 793 906 q 780 855 793 868 q 749 842 767 842 l 204 842 l 204 529 l 682 529 q 713 517 701 529 q 725 486 725 506 q 713 453 725 467 q 682 440 700 440 l 204 440 l 204 89 l 746 89 q 778 76 765 89 q 790 46 790 64 q 777 13 790 26 q 746 0 764 0 l 700 0 q 697 -3 700 0 q 620 -73 643 -44 q 597 -136 597 -101 q 619 -188 597 -168 q 675 -208 642 -208 q 756 -179 718 -208 q 778 -172 764 -172 z "},"ę":{"ha":718,"x_min":68,"x_max":654,"o":"m 613 161 q 642 150 631 161 q 654 121 654 139 q 643 92 654 106 q 588 47 621 67 q 500 1 556 28 q 397 -65 425 -35 q 369 -142 369 -96 q 391 -194 369 -174 q 446 -215 413 -215 q 525 -186 488 -215 q 547 -179 533 -179 q 571 -189 560 -179 q 582 -212 582 -199 q 537 -263 582 -240 q 447 -286 492 -286 q 341 -247 385 -286 q 297 -144 297 -207 q 319 -67 297 -104 q 374 -4 340 -29 q 210 54 279 8 q 104 171 140 100 q 68 325 68 242 q 107 503 68 421 q 217 635 146 585 q 381 685 289 685 q 523 653 464 685 q 612 576 582 621 q 642 497 642 532 q 608 453 642 472 l 178 207 q 272 104 213 139 q 411 69 332 69 q 507 92 460 69 q 585 149 554 115 q 613 161 594 161 m 556 510 q 382 601 517 601 q 263 565 315 601 q 179 467 210 529 q 149 328 149 404 q 151 288 149 301 l 556 510 z "},"Ě":{"ha":838,"x_min":115,"x_max":793,"o":"m 161 0 q 129 14 143 0 q 115 46 115 28 l 115 886 q 128 917 115 904 q 161 931 142 931 l 749 931 q 781 918 768 931 q 793 886 793 906 q 780 855 793 868 q 749 842 767 842 l 204 842 l 204 529 l 682 529 q 713 517 701 529 q 725 486 725 506 q 713 453 725 467 q 682 440 700 440 l 204 440 l 204 89 l 746 89 q 778 76 765 89 q 790 46 790 64 q 777 13 790 26 q 746 0 764 0 l 161 0 z "},"ě":{"ha":696,"x_min":64,"x_max":650,"o":"m 410 -8 q 229 37 308 -8 q 107 158 150 82 q 64 325 64 235 q 103 502 64 419 q 214 635 143 585 q 376 685 285 685 q 519 653 460 685 q 608 576 578 621 q 638 497 638 532 q 604 453 638 472 l 174 207 q 268 106 208 140 q 408 72 328 72 q 502 94 453 72 q 581 147 551 117 q 608 161 590 161 q 638 149 626 161 q 650 119 650 138 q 639 92 650 106 q 537 20 601 49 q 410 -8 472 -8 m 551 508 q 490 579 532 556 q 378 603 449 603 q 258 566 311 603 q 176 467 206 529 q 144 329 146 404 q 147 285 144 301 l 551 508 z "},"Ĝ":{"ha":994,"x_min":67,"x_max":943,"o":"m 486 -10 q 276 48 372 -10 q 123 210 179 106 q 67 451 67 315 q 122 683 67 569 q 278 868 178 796 q 508 940 379 940 q 710 891 628 940 q 835 778 793 842 q 876 676 876 714 q 865 648 876 658 q 833 638 853 638 q 808 645 819 638 q 790 667 796 653 q 692 798 761 744 q 508 851 624 851 q 310 782 389 851 q 194 619 231 713 q 157 451 157 525 q 202 253 157 338 q 323 124 247 169 q 486 79 399 79 q 683 144 600 79 q 794 319 765 208 l 758 319 q 615 301 688 319 q 583 296 588 296 q 553 308 565 296 q 540 340 540 321 q 548 366 540 354 q 571 383 556 378 q 656 401 601 394 q 763 408 710 408 q 915 385 854 408 q 943 343 943 376 q 931 313 943 325 q 903 300 919 301 q 882 304 893 300 q 744 78 849 167 q 486 -10 640 -10 z "},"ĝ":{"ha":736,"x_min":64,"x_max":629,"o":"m 328 -261 q 158 -240 250 -261 q 133 -226 143 -237 q 124 -199 124 -214 q 137 -168 124 -181 q 168 -156 150 -156 q 200 -161 175 -156 q 326 -175 263 -175 q 476 -123 429 -175 q 526 25 522 -71 l 529 94 q 444 20 493 46 q 340 -7 396 -6 q 199 36 263 -7 q 100 155 136 79 q 64 324 64 231 q 108 501 64 417 q 226 635 151 585 q 393 686 301 686 q 542 644 464 686 q 585 701 542 701 q 616 689 603 701 q 629 657 629 676 l 614 22 q 533 -190 611 -119 q 328 -261 454 -261 m 329 76 q 474 144 414 76 q 535 363 535 213 l 535 558 q 474 588 513 576 q 399 600 436 600 q 271 563 329 600 q 178 463 213 526 q 143 321 143 399 q 163 208 143 265 q 226 114 183 151 q 329 76 268 76 z "},"Ĥ":{"ha":1004,"x_min":115,"x_max":889,"o":"m 160 -8 q 128 5 142 -8 q 115 36 115 18 l 115 894 q 128 925 115 913 q 160 938 140 938 q 192 925 179 938 q 206 894 206 913 l 206 478 l 800 561 l 800 894 q 813 925 800 913 q 844 938 825 938 q 876 925 863 938 q 889 894 889 913 l 889 36 q 876 5 889 18 q 844 -8 863 -8 q 813 5 826 -8 q 800 36 800 18 l 800 471 l 206 389 l 206 36 q 192 5 206 18 q 160 -8 178 -8 z "},"ĥ":{"ha":744,"x_min":-56,"x_max":650,"o":"m 153 -10 q 122 3 135 -10 q 108 33 108 17 l 108 901 q 122 933 108 919 q 153 946 135 946 q 184 933 172 946 q 196 901 196 919 l 196 475 q 312 625 238 561 q 464 689 386 689 q 608 575 567 689 q 650 218 650 461 q 646 33 650 81 q 633 3 644 15 q 604 -8 622 -8 q 574 4 588 -8 q 561 33 561 17 q 563 72 561 54 l 564 208 q 533 523 564 443 q 457 603 503 603 q 356 560 406 603 q 269 466 306 518 q 217 381 232 414 q 196 261 196 339 l 196 36 q 183 3 196 15 q 153 -10 171 -10 z "},"Ĵ":{"ha":635,"x_min":25,"x_max":610,"o":"m 275 -8 q 122 33 178 -8 q 45 129 65 75 q 25 229 25 183 q 38 264 25 250 q 71 278 50 278 q 102 265 89 278 q 115 232 115 251 q 147 131 115 181 q 275 81 179 81 q 394 123 363 81 q 426 215 426 165 l 426 844 l 263 844 q 231 857 243 844 q 218 888 218 869 q 231 916 218 904 q 263 928 244 928 l 544 928 q 576 916 563 928 q 589 888 589 904 q 576 857 589 869 q 546 844 563 844 l 515 844 l 515 215 q 490 107 515 158 q 411 24 465 56 q 275 -8 357 -8 z "},"ĵ":{"ha":328,"x_min":-129,"x_max":374,"o":"m 51 -256 q -53 -217 -4 -256 q -125 -121 -103 -179 q -129 -101 -129 -104 q -117 -72 -129 -85 q -85 -60 -104 -60 q -59 -68 -71 -60 q -43 -90 -47 -76 q -4 -156 -26 -135 q 51 -176 18 -176 q 111 -134 88 -176 q 135 -17 135 -92 l 131 307 l 125 644 q 138 676 125 664 q 169 689 150 689 q 199 676 186 689 q 213 646 213 663 l 221 -6 q 175 -190 221 -124 q 51 -256 129 -256 z "},"Ĺ":{"ha":694,"x_min":101,"x_max":678,"o":"m 158 -8 q 128 5 142 -10 q 115 36 115 19 l 115 894 q 128 924 115 911 q 160 938 142 938 q 191 924 178 938 q 204 894 204 911 l 204 82 l 633 111 q 665 100 653 113 q 678 68 678 88 q 665 39 678 51 q 636 25 653 26 l 158 -8 m 142 1011 q 113 1024 125 1011 q 101 1053 101 1036 q 113 1082 101 1072 l 283 1222 q 306 1238 297 1232 q 326 1243 315 1243 q 363 1228 349 1243 q 378 1189 378 1213 q 363 1153 378 1164 l 175 1025 q 142 1011 153 1011 z "},"ĺ":{"ha":304,"x_min":68,"x_max":344,"o":"m 153 -8 q 122 3 136 -8 q 108 31 108 15 l 108 904 q 121 934 108 922 q 153 946 133 946 q 183 933 169 946 q 196 904 196 921 l 196 31 q 183 3 196 15 q 153 -8 169 -8 m 108 1011 q 80 1024 92 1011 q 68 1053 68 1036 q 79 1082 68 1072 l 250 1222 q 273 1238 264 1232 q 293 1243 282 1243 q 330 1228 315 1243 q 344 1189 344 1213 q 329 1153 344 1164 l 142 1025 q 108 1011 119 1011 z "},"Ľ":{"ha":694,"x_min":115,"x_max":678,"o":"m 158 -8 q 128 5 142 -10 q 115 36 115 19 l 115 894 q 128 924 115 911 q 160 938 142 938 q 191 924 178 938 q 204 894 204 911 l 204 82 l 633 111 q 665 100 653 113 q 678 68 678 88 q 665 39 678 51 q 636 25 653 26 l 158 -8 m 528 715 q 501 726 513 715 q 490 750 490 736 q 493 764 490 756 l 525 849 q 510 892 510 869 q 528 938 510 918 q 569 958 546 958 q 604 943 590 958 q 618 908 618 928 q 612 870 618 890 q 589 810 606 850 l 575 775 q 551 727 560 739 q 528 715 543 715 z "},"ľ":{"ha":333,"x_min":108,"x_max":392,"o":"m 153 -17 q 122 -5 136 -17 q 108 22 108 7 l 108 896 q 121 926 108 914 q 153 938 133 938 q 183 925 169 938 q 196 896 196 913 l 196 22 q 183 -5 196 7 q 153 -17 169 -17 m 301 707 q 275 717 286 707 q 264 742 264 728 q 267 756 264 747 l 299 840 q 283 883 283 861 q 301 930 283 910 q 343 950 319 950 q 378 935 364 950 q 392 900 392 919 q 385 862 392 882 q 363 801 379 842 l 349 767 q 325 719 333 731 q 301 707 317 707 z "},"Ł":{"ha":696,"x_min":22,"x_max":679,"o":"m 635 103 q 667 92 654 104 q 679 60 679 79 q 667 31 679 43 q 638 17 654 18 l 160 -17 q 130 -3 143 -18 q 117 28 117 11 l 117 365 l 90 349 q 67 342 82 342 q 35 353 49 342 q 22 385 22 364 q 43 424 22 410 l 117 471 l 117 886 q 130 916 117 903 q 161 929 143 929 q 192 916 179 929 q 206 886 206 903 l 206 526 l 314 596 q 338 603 325 603 q 369 590 356 603 q 383 557 383 576 q 363 521 383 533 l 206 422 l 206 74 l 635 103 z "},"ł":{"ha":376,"x_min":21,"x_max":379,"o":"m 338 597 q 367 587 356 597 q 379 558 379 576 q 373 538 379 549 q 357 521 367 528 l 235 444 l 235 31 q 221 3 235 15 q 190 -8 207 -8 q 160 3 174 -8 q 147 31 147 15 l 147 389 l 89 353 q 60 342 71 342 q 32 352 43 342 q 21 379 21 363 q 42 417 21 403 l 147 483 l 147 904 q 160 934 147 922 q 190 946 172 946 q 222 934 208 946 q 235 904 235 922 l 235 539 l 311 588 q 338 597 325 597 z "},"Ń":{"ha":914,"x_min":115,"x_max":799,"o":"m 160 -8 q 128 5 142 -8 q 115 36 115 18 l 117 894 q 129 924 117 911 q 160 938 142 938 q 197 919 182 938 l 710 175 l 710 894 q 723 926 710 913 q 754 939 736 939 q 785 926 772 939 q 799 894 799 913 l 799 36 q 786 5 799 18 q 754 -8 774 -8 q 735 -3 746 -8 q 718 11 724 3 l 206 753 l 204 36 q 191 5 204 18 q 160 -8 178 -8 m 414 1011 q 385 1024 397 1011 q 374 1053 374 1036 q 385 1082 374 1072 l 556 1222 q 578 1238 569 1232 q 599 1243 588 1243 q 635 1228 621 1243 q 650 1189 650 1213 q 635 1153 650 1164 l 447 1025 q 414 1011 425 1011 z "},"ń":{"ha":768,"x_min":108,"x_max":674,"o":"m 153 -8 q 122 4 135 -8 q 108 32 108 17 l 108 644 q 122 674 108 663 q 153 686 135 686 q 183 674 171 686 q 196 644 196 663 l 196 425 q 308 617 236 550 q 469 685 379 685 q 590 646 546 685 q 654 523 635 607 q 674 297 674 439 q 672 115 674 158 l 672 36 q 660 5 672 18 q 631 -8 649 -8 q 601 5 614 -8 q 589 35 589 18 l 589 113 q 588 292 588 156 q 574 488 588 421 q 534 578 561 554 q 457 603 507 603 q 364 568 410 603 q 283 469 318 533 q 217 313 238 386 q 196 161 197 239 l 194 38 q 183 5 194 18 q 153 -8 171 -8 z "},"Ň":{"ha":914,"x_min":115,"x_max":799,"o":"m 160 -8 q 128 5 142 -8 q 115 36 115 18 l 117 894 q 129 924 117 911 q 160 938 142 938 q 197 919 182 938 l 710 175 l 710 894 q 723 926 710 913 q 754 939 736 939 q 785 926 772 939 q 799 894 799 913 l 799 36 q 786 5 799 18 q 754 -8 774 -8 q 735 -3 746 -8 q 718 11 724 3 l 206 753 l 204 36 q 191 5 204 18 q 160 -8 178 -8 z "},"ň":{"ha":768,"x_min":108,"x_max":674,"o":"m 153 -8 q 122 4 135 -8 q 108 32 108 17 l 108 644 q 122 674 108 663 q 153 686 135 686 q 183 674 171 686 q 196 644 196 663 l 196 425 q 308 617 236 550 q 469 685 379 685 q 590 646 546 685 q 654 523 635 607 q 674 297 674 439 q 672 115 674 158 l 672 36 q 660 5 672 18 q 631 -8 649 -8 q 601 5 614 -8 q 589 35 589 18 l 589 113 q 588 292 588 156 q 574 488 588 421 q 534 578 561 554 q 457 603 507 603 q 364 568 410 603 q 283 469 318 533 q 217 313 238 386 q 196 161 197 239 l 194 38 q 183 5 194 18 q 153 -8 171 -8 z "},"Ő":{"ha":893,"x_min":67,"x_max":826,"o":"m 417 -8 q 235 48 315 -8 q 111 203 156 104 q 67 426 67 303 q 122 683 67 565 q 272 870 178 801 q 476 939 367 939 q 658 883 579 939 q 782 726 738 826 q 826 503 826 626 q 771 247 826 364 q 621 60 715 129 q 417 -8 526 -8 m 422 78 q 577 135 506 78 q 692 289 649 192 q 735 499 735 386 q 700 683 735 603 q 605 808 665 764 q 469 853 544 853 q 315 797 388 853 q 201 643 243 740 q 158 429 158 546 q 194 244 158 324 q 289 121 229 164 q 422 78 349 78 m 325 1017 q 297 1028 310 1017 q 285 1054 285 1039 q 301 1092 285 1075 l 453 1235 q 501 1261 479 1261 q 536 1247 522 1261 q 550 1213 550 1232 q 531 1169 550 1185 l 363 1035 q 325 1017 343 1017 m 546 1015 q 517 1028 529 1015 q 504 1058 504 1040 q 515 1085 504 1078 l 688 1226 q 731 1249 713 1249 q 767 1233 753 1249 q 782 1193 782 1217 q 767 1158 782 1168 l 578 1029 q 546 1015 556 1015 z "},"ő":{"ha":735,"x_min":64,"x_max":674,"o":"m 346 -8 q 202 34 267 -8 q 101 149 138 76 q 64 311 64 222 q 106 492 64 406 q 224 631 149 578 q 389 685 299 685 q 531 642 467 685 q 633 527 596 600 q 669 367 669 454 q 625 181 669 267 q 506 43 581 94 q 346 -8 432 -8 m 351 71 q 464 111 411 71 q 549 218 517 151 q 581 360 581 285 q 554 481 581 425 q 483 572 528 538 q 382 606 438 606 q 269 565 321 606 q 185 456 217 524 q 154 314 154 389 q 181 187 154 242 q 254 101 208 132 q 351 71 300 71 z "},"Œ":{"ha":1464,"x_min":65,"x_max":1418,"o":"m 413 -8 q 235 51 314 -8 q 110 211 156 111 q 65 429 65 311 q 121 683 65 565 q 269 872 176 801 q 469 942 363 942 q 623 899 550 942 q 742 778 696 856 l 742 894 q 755 926 742 913 q 788 939 768 939 l 1375 939 q 1406 926 1393 939 q 1418 894 1418 914 q 1406 863 1418 876 q 1375 850 1393 850 l 831 850 l 831 525 l 1307 525 q 1339 513 1326 525 q 1351 482 1351 500 q 1338 449 1351 463 q 1307 436 1325 436 l 831 436 l 831 81 l 1372 81 q 1403 69 1392 81 q 1415 38 1415 57 q 1403 5 1415 18 q 1372 -8 1390 -8 l 788 -8 q 756 6 769 -8 q 742 38 742 19 l 742 215 q 599 52 686 113 q 413 -8 511 -8 m 413 74 q 582 140 508 74 q 694 305 656 206 q 733 499 733 404 q 698 674 733 590 q 600 808 663 757 q 460 860 538 860 q 306 802 378 860 q 192 645 235 744 q 149 429 149 546 q 183 251 149 332 q 277 122 217 169 q 413 74 338 74 z "},"œ":{"ha":1192,"x_min":67,"x_max":1143,"o":"m 340 -8 q 201 33 264 -8 q 103 145 139 75 q 67 299 67 215 q 107 472 67 388 q 219 610 147 557 q 381 664 290 664 q 523 619 457 664 q 621 501 589 575 q 734 622 663 581 q 883 663 806 663 q 1017 632 961 663 q 1102 558 1074 601 q 1131 481 1131 515 q 1097 438 1131 456 l 679 196 q 774 103 715 132 q 915 74 833 74 q 1002 95 958 74 q 1074 149 1046 117 q 1101 161 1086 161 q 1131 149 1119 161 q 1143 119 1143 138 q 1132 92 1143 106 q 1031 20 1094 49 q 907 -8 968 -8 q 608 169 701 -8 q 494 40 565 88 q 340 -8 422 -8 m 340 65 q 453 107 401 65 q 535 211 506 149 q 565 331 565 274 q 540 466 565 407 q 470 557 514 525 q 374 589 426 589 q 265 549 315 589 q 184 442 214 508 q 154 303 154 376 q 178 181 154 235 q 246 96 203 126 q 340 65 289 65 m 1046 493 q 985 560 1022 540 q 885 581 947 581 q 768 547 821 581 q 685 455 715 514 q 653 322 654 396 q 653 276 651 296 l 1046 493 z "},"Ŕ":{"ha":828,"x_min":115,"x_max":788,"o":"m 160 -8 q 128 5 142 -8 q 115 36 115 18 l 115 876 q 123 915 115 903 q 153 932 131 928 q 225 936 175 936 l 265 936 q 626 861 500 936 q 753 649 753 786 q 501 376 753 465 q 645 253 567 335 q 782 56 724 172 q 788 36 788 49 q 775 5 788 18 q 743 -8 763 -8 q 704 17 719 -8 q 331 338 510 338 q 203 325 285 338 l 203 36 q 190 5 203 18 q 160 -8 178 -8 m 203 411 q 417 440 311 414 q 594 518 524 465 q 665 649 665 571 q 560 799 665 747 q 261 850 454 850 q 203 849 222 850 l 203 411 m 369 1011 q 341 1024 353 1011 q 329 1053 329 1036 q 340 1082 329 1072 l 511 1222 q 534 1238 525 1232 q 554 1243 543 1243 q 591 1228 576 1243 q 606 1189 606 1213 q 590 1153 606 1164 l 403 1025 q 369 1011 381 1011 z "},"ŕ":{"ha":551,"x_min":108,"x_max":544,"o":"m 153 -8 q 122 4 136 -8 q 108 32 108 17 l 108 643 q 122 673 108 661 q 153 685 135 685 q 185 673 172 685 q 197 643 197 661 l 197 525 q 294 641 236 593 q 429 689 351 689 q 517 655 490 689 q 544 574 544 621 l 544 529 q 532 499 544 511 q 501 488 519 488 q 471 500 481 488 q 461 531 461 513 l 461 563 q 414 603 461 603 q 244 486 332 603 q 210 417 224 458 q 197 339 197 375 l 196 32 q 183 4 196 17 q 153 -8 169 -8 z "},"Ř":{"ha":828,"x_min":115,"x_max":788,"o":"m 160 -8 q 128 5 142 -8 q 115 36 115 18 l 115 876 q 123 915 115 903 q 153 932 131 928 q 225 936 175 936 l 265 936 q 626 861 500 936 q 753 649 753 786 q 501 376 753 465 q 645 253 567 335 q 782 56 724 172 q 788 36 788 49 q 775 5 788 18 q 743 -8 763 -8 q 704 17 719 -8 q 331 338 510 338 q 203 325 285 338 l 203 36 q 190 5 203 18 q 160 -8 178 -8 m 203 411 q 417 440 311 414 q 594 518 524 465 q 665 649 665 571 q 560 799 665 747 q 261 850 454 850 q 203 849 222 850 l 203 411 z "},"ř":{"ha":551,"x_min":69,"x_max":544,"o":"m 153 -8 q 122 4 136 -8 q 108 32 108 17 l 108 643 q 122 673 108 661 q 153 685 135 685 q 185 673 172 685 q 197 643 197 661 l 197 525 q 294 641 236 593 q 429 689 351 689 q 517 655 490 689 q 544 574 544 621 l 544 529 q 532 499 544 511 q 501 488 519 488 q 471 500 481 488 q 461 531 461 513 l 461 563 q 414 603 461 603 q 244 486 332 603 q 210 417 224 458 q 197 339 197 375 l 196 32 q 183 4 196 17 q 153 -8 169 -8 z "},"Ś":{"ha":767,"x_min":39,"x_max":703,"o":"m 379 -8 q 169 45 256 -8 q 47 185 82 99 q 39 213 39 199 q 53 245 39 232 q 86 258 67 258 q 132 222 121 258 q 224 116 156 157 q 379 75 293 75 q 501 99 447 75 q 584 163 554 122 q 614 253 614 203 q 561 364 614 317 q 382 446 508 411 q 92 704 92 525 q 130 825 92 772 q 241 908 168 878 q 411 939 314 939 q 625 887 549 939 q 701 747 701 835 q 689 716 701 729 q 658 703 676 703 q 630 714 642 703 q 617 740 618 725 q 553 826 610 793 q 407 860 497 860 q 240 819 299 860 q 181 708 181 779 q 235 607 181 649 q 404 533 290 565 q 628 424 554 492 q 703 260 703 357 q 658 123 703 185 q 539 26 614 61 q 379 -8 464 -8 m 361 1011 q 333 1024 344 1011 q 321 1053 321 1036 q 332 1082 321 1072 l 503 1222 q 526 1238 517 1232 q 546 1243 535 1243 q 583 1228 568 1243 q 597 1189 597 1213 q 582 1153 597 1164 l 394 1025 q 361 1011 372 1011 z "},"ś":{"ha":578,"x_min":32,"x_max":526,"o":"m 286 -11 q 149 22 207 -11 q 62 98 92 54 q 32 172 32 142 q 44 202 32 190 q 74 214 56 214 q 113 185 104 214 q 178 99 132 129 q 290 68 224 68 q 400 104 357 68 q 443 190 443 140 q 430 240 443 219 q 383 278 417 260 q 283 315 349 296 q 121 396 171 350 q 71 517 71 442 q 133 638 71 592 q 310 685 194 685 q 470 642 414 685 q 526 526 526 600 q 515 476 526 493 q 483 458 504 458 q 453 470 465 458 q 440 497 440 482 q 442 513 440 504 q 444 528 444 521 q 411 587 444 565 q 310 608 378 608 q 194 584 235 608 q 153 515 153 560 q 188 447 153 472 q 311 393 224 422 q 440 340 394 365 q 505 281 485 315 q 525 194 525 247 q 495 96 525 143 q 411 19 465 49 q 286 -11 357 -11 z "},"Ŝ":{"ha":767,"x_min":39,"x_max":703,"o":"m 379 -8 q 169 45 256 -8 q 47 185 82 99 q 39 213 39 199 q 53 245 39 232 q 86 258 67 258 q 132 222 121 258 q 224 116 156 157 q 379 75 293 75 q 501 99 447 75 q 584 163 554 122 q 614 253 614 203 q 561 364 614 317 q 382 446 508 411 q 92 704 92 525 q 130 825 92 772 q 241 908 168 878 q 411 939 314 939 q 625 887 549 939 q 701 747 701 835 q 689 716 701 729 q 658 703 676 703 q 630 714 642 703 q 617 740 618 725 q 553 826 610 793 q 407 860 497 860 q 240 819 299 860 q 181 708 181 779 q 235 607 181 649 q 404 533 290 565 q 628 424 554 492 q 703 260 703 357 q 658 123 703 185 q 539 26 614 61 q 379 -8 464 -8 z "},"ŝ":{"ha":578,"x_min":32,"x_max":526,"o":"m 286 -11 q 149 22 207 -11 q 62 98 92 54 q 32 172 32 142 q 44 202 32 190 q 74 214 56 214 q 113 185 104 214 q 178 99 132 129 q 290 68 224 68 q 400 104 357 68 q 443 190 443 140 q 430 240 443 219 q 383 278 417 260 q 283 315 349 296 q 121 396 171 350 q 71 517 71 442 q 133 638 71 592 q 310 685 194 685 q 470 642 414 685 q 526 526 526 600 q 515 476 526 493 q 483 458 504 458 q 453 470 465 458 q 440 497 440 482 q 442 513 440 504 q 444 528 444 521 q 411 587 444 565 q 310 608 378 608 q 194 584 235 608 q 153 515 153 560 q 188 447 153 472 q 311 393 224 422 q 440 340 394 365 q 505 281 485 315 q 525 194 525 247 q 495 96 525 143 q 411 19 465 49 q 286 -11 357 -11 z "},"Ş":{"ha":767,"x_min":39,"x_max":703,"o":"m 703 260 q 663 130 703 189 q 557 35 624 71 q 411 -7 490 0 l 407 -57 q 438 -53 419 -53 q 515 -88 481 -53 q 550 -172 550 -124 q 513 -262 550 -225 q 419 -299 475 -299 q 345 -278 379 -299 q 311 -226 311 -257 q 320 -203 311 -212 q 342 -194 329 -194 q 372 -211 358 -194 q 393 -231 382 -224 q 424 -239 404 -239 q 469 -219 450 -239 q 488 -171 488 -200 q 468 -126 488 -144 q 422 -107 449 -107 q 385 -117 403 -107 q 358 -126 367 -126 q 341 -119 349 -126 q 333 -101 333 -112 q 361 -8 333 -89 q 163 49 244 -4 q 47 185 81 101 q 39 213 39 199 q 53 245 39 232 q 86 258 67 258 q 132 222 121 258 q 224 116 156 157 q 379 75 293 75 q 501 99 447 75 q 584 163 554 122 q 614 253 614 203 q 561 364 614 317 q 382 446 508 411 q 92 704 92 525 q 130 825 92 772 q 241 908 168 878 q 411 939 314 939 q 625 887 549 939 q 701 747 701 835 q 689 716 701 729 q 658 703 676 703 q 630 714 642 703 q 617 740 618 725 q 553 826 610 793 q 407 860 497 860 q 240 819 299 860 q 181 708 181 779 q 235 607 181 649 q 404 533 290 565 q 628 424 554 492 q 703 260 703 357 z "},"ş":{"ha":578,"x_min":32,"x_max":526,"o":"m 311 393 q 440 340 394 365 q 505 281 485 315 q 525 194 525 247 q 499 101 525 146 q 426 26 474 57 q 315 -10 378 -4 l 313 -46 q 343 -42 325 -42 q 421 -77 386 -42 q 456 -160 456 -112 q 418 -251 456 -214 q 325 -287 381 -287 q 251 -267 285 -287 q 217 -215 217 -246 q 226 -192 217 -201 q 247 -183 235 -183 q 278 -199 263 -183 q 299 -220 289 -212 q 329 -228 310 -228 q 374 -208 356 -228 q 393 -160 393 -189 q 374 -114 393 -133 q 328 -94 354 -94 q 290 -105 308 -94 q 264 -115 272 -115 q 247 -108 254 -115 q 239 -89 239 -100 q 261 -10 239 -79 q 138 28 189 -4 q 59 102 86 61 q 32 172 32 143 q 44 202 32 190 q 74 214 56 214 q 113 185 104 214 q 178 99 132 129 q 290 68 224 68 q 400 104 357 68 q 443 190 443 140 q 430 240 443 219 q 383 278 417 260 q 283 315 349 296 q 121 396 171 350 q 71 517 71 442 q 133 638 71 592 q 310 685 194 685 q 470 642 414 685 q 526 526 526 600 q 515 476 526 493 q 483 458 504 458 q 453 470 465 458 q 440 497 440 482 q 442 513 440 504 q 444 528 444 521 q 411 587 444 565 q 310 608 378 608 q 194 584 235 608 q 153 515 153 560 q 188 447 153 472 q 311 393 224 422 z "},"Š":{"ha":767,"x_min":39,"x_max":703,"o":"m 379 -8 q 169 45 256 -8 q 47 185 82 99 q 39 213 39 199 q 53 245 39 232 q 86 258 67 258 q 132 222 121 258 q 224 116 156 157 q 379 75 293 75 q 501 99 447 75 q 584 163 554 122 q 614 253 614 203 q 561 364 614 317 q 382 446 508 411 q 92 704 92 525 q 130 825 92 772 q 241 908 168 878 q 411 939 314 939 q 625 887 549 939 q 701 747 701 835 q 689 716 701 729 q 658 703 676 703 q 630 714 642 703 q 617 740 618 725 q 553 826 610 793 q 407 860 497 860 q 240 819 299 860 q 181 708 181 779 q 235 607 181 649 q 404 533 290 565 q 628 424 554 492 q 703 260 703 357 q 658 123 703 185 q 539 26 614 61 q 379 -8 464 -8 z "},"š":{"ha":578,"x_min":32,"x_max":526,"o":"m 286 -11 q 149 22 207 -11 q 62 98 92 54 q 32 172 32 142 q 44 202 32 190 q 74 214 56 214 q 113 185 104 214 q 178 99 132 129 q 290 68 224 68 q 400 104 357 68 q 443 190 443 140 q 430 240 443 219 q 383 278 417 260 q 283 315 349 296 q 121 396 171 350 q 71 517 71 442 q 133 638 71 592 q 310 685 194 685 q 470 642 414 685 q 526 526 526 600 q 515 476 526 493 q 483 458 504 458 q 453 470 465 458 q 440 497 440 482 q 442 513 440 504 q 444 528 444 521 q 411 587 444 565 q 310 608 378 608 q 194 584 235 608 q 153 515 153 560 q 188 447 153 472 q 311 393 224 422 q 440 340 394 365 q 505 281 485 315 q 525 194 525 247 q 495 96 525 143 q 411 19 465 49 q 286 -11 357 -11 z "},"ţ":{"ha":725,"x_min":13,"x_max":713,"o":"m 363 -8 q 332 5 344 -8 q 319 36 319 18 l 319 843 l 57 843 q 26 856 39 843 q 13 886 13 868 q 26 917 13 904 q 57 931 39 931 l 669 931 q 700 918 688 931 q 713 886 713 906 q 700 856 713 868 q 669 843 688 843 l 407 843 l 407 36 q 394 5 407 18 q 363 -8 381 -8 m 319 -282 q 293 -272 304 -282 q 282 -247 282 -261 q 285 -233 282 -242 l 317 -149 q 301 -106 301 -128 q 319 -59 301 -79 q 361 -39 338 -39 q 396 -54 382 -39 q 410 -89 410 -69 q 403 -127 410 -107 q 381 -187 397 -147 l 367 -222 q 343 -270 351 -258 q 319 -282 335 -282 z "},"Ț":{"ha":725,"x_min":13,"x_max":713,"o":"m 363 -8 q 332 5 344 -8 q 319 36 319 18 l 319 843 l 57 843 q 26 856 39 843 q 13 886 13 868 q 26 917 13 904 q 57 931 39 931 l 669 931 q 700 918 688 931 q 713 886 713 906 q 700 856 713 868 q 669 843 688 843 l 407 843 l 407 36 q 394 5 407 18 q 363 -8 381 -8 m 319 -282 q 293 -272 304 -282 q 282 -247 282 -261 q 285 -233 282 -242 l 317 -149 q 301 -106 301 -128 q 319 -59 301 -79 q 361 -39 338 -39 q 396 -54 382 -39 q 410 -89 410 -69 q 403 -127 410 -107 q 381 -187 397 -147 l 367 -222 q 343 -270 351 -258 q 319 -282 335 -282 z "},"ț":{"ha":397,"x_min":-54,"x_max":431,"o":"m 188 -10 q 156 3 169 -10 q 143 32 143 15 l 143 599 l -11 599 q -42 612 -29 599 q -54 643 -54 625 q -40 674 -54 663 q -8 686 -26 686 l 143 686 l 143 876 q 156 908 143 894 q 188 921 169 921 q 219 908 207 921 q 231 876 231 894 l 231 686 l 386 686 q 418 674 406 686 q 431 643 431 661 q 417 612 431 625 q 386 599 404 599 l 231 599 l 231 32 q 217 3 231 15 q 188 -10 204 -10 m 147 -283 q 121 -273 132 -283 q 110 -249 110 -262 q 113 -235 110 -243 l 144 -150 q 129 -107 129 -129 q 147 -60 129 -81 q 189 -40 165 -40 q 224 -56 210 -40 q 238 -90 238 -71 q 231 -128 238 -108 q 208 -189 225 -149 l 194 -224 q 171 -272 179 -260 q 147 -283 163 -283 z "},"Ť":{"ha":725,"x_min":13,"x_max":713,"o":"m 363 -8 q 332 5 344 -8 q 319 36 319 18 l 319 843 l 57 843 q 26 856 39 843 q 13 886 13 868 q 26 917 13 904 q 57 931 39 931 l 669 931 q 700 918 688 931 q 713 886 713 906 q 700 856 713 868 q 669 843 688 843 l 407 843 l 407 36 q 394 5 407 18 q 363 -8 381 -8 z "},"ť":{"ha":421,"x_min":-54,"x_max":458,"o":"m 188 -18 q 156 -6 169 -18 q 143 24 143 7 l 143 590 l -11 590 q -42 603 -29 590 q -54 635 -54 617 q -40 666 -54 654 q -8 678 -26 678 l 143 678 l 143 868 q 156 899 143 886 q 188 913 169 913 q 219 899 207 913 q 231 868 231 886 l 231 678 l 386 678 q 418 665 406 678 q 431 635 431 653 q 417 603 431 617 q 386 590 404 590 l 231 590 l 231 24 q 217 -6 231 7 q 188 -18 204 -18 m 368 821 q 342 831 353 821 q 331 856 331 842 q 333 869 331 861 l 365 954 q 350 997 350 975 q 368 1044 350 1024 q 410 1064 386 1064 q 444 1049 431 1064 q 458 1014 458 1033 q 452 976 458 996 q 429 915 446 956 l 415 881 q 392 833 400 844 q 368 821 383 821 z "},"Ŭ":{"ha":960,"x_min":93,"x_max":867,"o":"m 467 -8 q 199 122 293 -8 q 96 501 106 251 q 93 663 93 571 l 94 786 q 96 896 96 824 q 109 925 96 913 q 140 938 122 938 q 172 925 160 938 q 183 894 183 913 q 182 793 183 826 l 181 692 q 183 521 181 615 q 251 199 190 328 q 469 69 311 69 q 672 149 599 69 q 763 378 746 229 q 775 660 775 497 l 774 892 q 785 924 774 910 q 817 938 796 938 q 849 924 836 938 q 861 894 861 911 q 864 809 861 888 q 867 651 867 731 q 850 367 867 496 q 467 -8 801 -8 z "},"ŭ":{"ha":710,"x_min":88,"x_max":619,"o":"m 297 -12 q 174 22 219 -12 q 108 140 129 57 q 88 372 88 224 q 104 635 88 532 q 119 674 108 663 q 149 686 129 686 q 177 675 165 686 q 189 644 189 664 q 185 590 189 624 q 172 339 172 490 q 201 129 172 193 q 299 65 231 65 q 424 98 361 65 q 514 161 488 131 q 531 224 531 181 l 536 647 q 549 675 536 664 q 578 686 561 686 q 607 675 594 686 q 619 647 619 664 l 619 35 q 606 5 619 18 q 574 -8 592 -8 q 538 6 551 -8 q 525 40 525 19 l 525 93 q 431 20 494 53 q 297 -12 368 -12 z "},"Ů":{"ha":960,"x_min":93,"x_max":867,"o":"m 467 -8 q 199 122 293 -8 q 96 501 106 251 q 93 663 93 571 l 94 786 q 96 896 96 824 q 109 925 96 913 q 140 938 122 938 q 172 925 160 938 q 183 894 183 913 q 182 793 183 826 l 181 692 q 183 521 181 615 q 251 199 190 328 q 469 69 311 69 q 672 149 599 69 q 763 378 746 229 q 775 660 775 497 l 774 892 q 785 924 774 910 q 817 938 796 938 q 849 924 836 938 q 861 894 861 911 q 864 809 861 888 q 867 651 867 731 q 850 367 867 496 q 467 -8 801 -8 z "},"ů":{"ha":710,"x_min":88,"x_max":619,"o":"m 297 -12 q 174 22 219 -12 q 108 140 129 57 q 88 372 88 224 q 104 635 88 532 q 119 674 108 663 q 149 686 129 686 q 177 675 165 686 q 189 644 189 664 q 185 590 189 624 q 172 339 172 490 q 201 129 172 193 q 299 65 231 65 q 424 98 361 65 q 514 161 488 131 q 531 224 531 181 l 536 647 q 549 675 536 664 q 578 686 561 686 q 607 675 594 686 q 619 647 619 664 l 619 35 q 606 5 619 18 q 574 -8 592 -8 q 538 6 551 -8 q 525 40 525 19 l 525 93 q 431 20 494 53 q 297 -12 368 -12 z "},"Ű":{"ha":960,"x_min":93,"x_max":867,"o":"m 467 -8 q 199 122 293 -8 q 96 501 106 251 q 93 663 93 571 l 94 786 q 96 896 96 824 q 109 925 96 913 q 140 938 122 938 q 172 925 160 938 q 183 894 183 913 q 182 793 183 826 l 181 692 q 183 521 181 615 q 251 199 190 328 q 469 69 311 69 q 672 149 599 69 q 763 378 746 229 q 775 660 775 497 l 774 892 q 785 924 774 910 q 817 938 796 938 q 849 924 836 938 q 861 894 861 911 q 864 809 861 888 q 867 651 867 731 q 850 367 867 496 q 467 -8 801 -8 m 357 1017 q 329 1028 342 1017 q 317 1054 317 1039 q 333 1092 317 1075 l 485 1235 q 533 1261 511 1261 q 568 1247 554 1261 q 582 1213 582 1232 q 563 1169 582 1185 l 394 1035 q 357 1017 375 1017 m 578 1015 q 549 1028 561 1015 q 536 1058 536 1040 q 547 1085 536 1078 l 719 1226 q 763 1249 744 1249 q 799 1233 785 1249 q 814 1193 814 1217 q 799 1158 814 1168 l 610 1029 q 578 1015 588 1015 z "},"ű":{"ha":710,"x_min":88,"x_max":658,"o":"m 297 -12 q 174 22 219 -12 q 108 140 129 57 q 88 372 88 224 q 104 635 88 532 q 119 674 108 663 q 149 686 129 686 q 177 675 165 686 q 189 644 189 664 q 185 590 189 624 q 172 339 172 490 q 201 129 172 193 q 299 65 231 65 q 424 98 361 65 q 514 161 488 131 q 531 224 531 181 l 536 647 q 549 675 536 664 q 578 686 561 686 q 607 675 594 686 q 619 647 619 664 l 619 35 q 606 5 619 18 q 574 -8 592 -8 q 538 6 551 -8 q 525 40 525 19 l 525 93 q 431 20 494 53 q 297 -12 368 -12 z "},"Ÿ":{"ha":825,"x_min":17,"x_max":814,"o":"m 260 -8 q 229 6 242 -8 q 217 36 217 19 q 225 63 217 50 l 361 292 l 26 867 q 17 894 17 881 q 31 924 17 911 q 63 938 44 938 q 83 931 72 938 q 99 915 93 925 l 413 378 l 732 915 q 769 938 744 938 q 800 925 786 938 q 814 894 814 913 q 801 863 814 882 l 297 14 q 281 -2 292 4 q 260 -8 271 -8 z "},"Ź":{"ha":808,"x_min":28,"x_max":772,"o":"m 79 -1 q 43 12 58 -1 q 28 46 28 25 q 40 83 28 65 l 647 844 l 94 844 q 63 858 76 844 q 50 889 50 871 q 63 919 50 906 q 94 932 76 932 l 721 932 q 757 917 742 932 q 772 882 772 903 q 760 850 772 863 l 153 88 l 711 88 q 744 74 731 88 q 757 43 757 61 q 743 12 757 25 q 711 -1 729 -1 l 79 -1 m 365 1011 q 337 1024 349 1011 q 325 1053 325 1036 q 336 1082 325 1072 l 507 1222 q 530 1238 521 1232 q 550 1243 539 1243 q 587 1228 572 1243 q 601 1189 601 1213 q 586 1153 601 1164 l 399 1025 q 365 1011 376 1011 z "},"ź":{"ha":603,"x_min":15,"x_max":585,"o":"m 60 -7 q 28 6 42 -7 q 15 36 15 19 q 25 63 15 53 l 450 599 l 74 599 q 43 611 56 599 q 31 643 31 624 q 43 673 31 660 q 74 686 56 686 l 533 686 q 565 673 551 686 q 578 643 578 660 q 568 617 578 626 l 143 81 l 542 81 q 572 67 560 81 q 585 36 585 54 q 572 6 585 19 q 542 -7 560 -7 l 60 -7 z "},"Ż":{"ha":808,"x_min":28,"x_max":772,"o":"m 79 -1 q 43 12 58 -1 q 28 46 28 25 q 40 83 28 65 l 647 844 l 94 844 q 63 858 76 844 q 50 889 50 871 q 63 919 50 906 q 94 932 76 932 l 721 932 q 757 917 742 932 q 772 882 772 903 q 760 850 772 863 l 153 88 l 711 88 q 744 74 731 88 q 757 43 757 61 q 743 12 757 25 q 711 -1 729 -1 l 79 -1 z "},"ż":{"ha":603,"x_min":15,"x_max":585,"o":"m 60 -7 q 28 6 42 -7 q 15 36 15 19 q 25 63 15 53 l 450 599 l 74 599 q 43 611 56 599 q 31 643 31 624 q 43 673 31 660 q 74 686 56 686 l 533 686 q 565 673 551 686 q 578 643 578 660 q 568 617 578 626 l 143 81 l 542 81 q 572 67 560 81 q 585 36 585 54 q 572 6 585 19 q 542 -7 560 -7 l 60 -7 z "},"Ž":{"ha":808,"x_min":28,"x_max":772,"o":"m 79 -1 q 43 12 58 -1 q 28 46 28 25 q 40 83 28 65 l 647 844 l 94 844 q 63 858 76 844 q 50 889 50 871 q 63 919 50 906 q 94 932 76 932 l 721 932 q 757 917 742 932 q 772 882 772 903 q 760 850 772 863 l 153 88 l 711 88 q 744 74 731 88 q 757 43 757 61 q 743 12 757 25 q 711 -1 729 -1 l 79 -1 z "},"ž":{"ha":603,"x_min":15,"x_max":585,"o":"m 60 -7 q 28 6 42 -7 q 15 36 15 19 q 25 63 15 53 l 450 599 l 74 599 q 43 611 56 599 q 31 643 31 624 q 43 673 31 660 q 74 686 56 686 l 533 686 q 565 673 551 686 q 578 643 578 660 q 568 617 578 626 l 143 81 l 542 81 q 572 67 560 81 q 585 36 585 54 q 572 6 585 19 q 542 -7 560 -7 l 60 -7 z "},"ˆ":{"ha":419,"x_min":0,"x_max":419,"o":"m 42 786 q 13 798 25 786 q 0 826 0 810 q 15 860 0 844 l 182 1010 q 213 1021 194 1021 q 243 1008 231 1021 l 406 858 q 419 826 419 844 q 408 799 419 811 q 379 786 396 786 q 349 797 360 786 l 211 913 l 68 794 q 42 786 58 786 z "},"ˇ":{"ha":419,"x_min":0,"x_max":419,"o":"m 196 786 q 164 800 178 786 l 14 949 q 0 981 0 963 q 13 1008 0 996 q 40 1021 25 1021 q 71 1010 60 1021 l 199 894 l 353 1013 q 379 1021 363 1021 q 408 1009 396 1021 q 419 981 419 997 q 404 947 419 961 l 225 797 q 196 786 213 786 z "},"˘":{"ha":446,"x_min":0,"x_max":446,"o":"m 221 800 q 96 831 146 800 q 23 899 46 861 q 0 963 0 938 q 11 992 0 981 q 40 1004 22 1004 q 81 971 68 1004 q 139 910 97 931 q 224 890 181 890 q 308 910 268 890 q 364 972 347 931 q 406 1006 378 1006 q 434 993 422 1006 q 446 964 446 981 q 421 899 446 939 q 345 830 396 860 q 221 800 294 800 z "},"˙":{"ha":156,"x_min":3,"x_max":156,"o":"m 75 828 q 24 846 44 828 q 3 892 3 864 q 26 940 3 919 q 83 961 50 961 q 134 943 113 961 q 156 899 156 925 q 133 849 156 869 q 75 828 110 828 z "},"˚":{"ha":335,"x_min":0,"x_max":335,"o":"m 154 757 q 45 797 90 757 q 0 896 0 838 q 26 976 0 940 q 94 1033 53 1013 q 182 1053 136 1053 q 290 1013 244 1053 q 335 914 335 972 q 308 833 335 869 q 240 777 282 797 q 154 757 199 757 m 158 833 q 233 857 206 833 q 261 911 261 881 q 238 957 261 939 q 176 975 214 975 q 101 951 129 975 q 74 897 74 928 q 97 851 74 869 q 158 833 121 833 z "},"˛":{"ha":285,"x_min":0,"x_max":285,"o":"m 147 -278 q 42 -236 83 -276 q 0 -135 0 -196 q 40 -28 0 -76 q 135 54 79 21 q 158 60 146 60 q 180 49 171 60 q 189 24 189 39 q 153 -18 189 8 q 92 -72 115 -44 q 69 -136 69 -99 q 92 -187 69 -167 q 147 -207 114 -207 q 228 -178 190 -207 q 250 -171 236 -171 q 274 -181 263 -171 q 285 -206 285 -192 q 260 -242 285 -225 q 203 -268 236 -258 q 147 -278 169 -278 z "},"˜":{"ha":500,"x_min":4,"x_max":496,"o":"m 340 793 q 274 814 300 793 q 221 874 249 835 q 180 922 196 907 q 149 938 164 938 q 110 914 131 938 q 78 847 90 890 q 42 821 68 821 q 15 831 26 821 q 4 857 4 842 q 11 888 4 871 q 25 918 18 904 q 81 981 46 957 q 154 1004 115 1004 q 218 985 194 1004 q 272 926 242 965 q 315 874 300 889 q 347 860 329 860 q 386 888 369 860 q 424 967 403 915 q 438 985 428 978 q 458 992 447 992 q 485 981 474 992 q 496 957 496 971 q 490 927 496 947 q 476 893 483 907 q 417 821 451 849 q 340 793 382 793 z "},"˝":{"ha":486,"x_min":0,"x_max":469,"o":"m 39 774 q 11 784 22 774 q 0 813 0 794 q 3 829 0 822 q 14 847 6 836 l 144 1006 q 171 1028 160 1021 q 199 1036 182 1036 q 231 1024 218 1036 q 246 990 244 1011 q 242 967 246 976 q 226 946 238 957 l 79 796 q 39 774 57 774 m 247 772 q 218 783 229 772 q 207 813 207 794 q 222 846 207 828 l 369 996 q 421 1024 397 1024 q 456 1009 442 1024 q 469 974 469 994 q 465 951 469 960 q 449 932 460 942 l 285 790 q 247 772 264 772 z "},"–":{"ha":833,"x_min":101,"x_max":729,"o":"m 144 294 q 114 307 126 294 q 101 338 101 319 q 114 369 101 357 q 144 381 126 381 l 686 381 q 717 369 706 381 q 729 338 729 357 q 717 307 729 319 q 686 294 704 294 l 144 294 z "},"—":{"ha":1144,"x_min":69,"x_max":1075,"o":"m 113 294 q 82 307 94 294 q 69 338 69 319 q 82 368 69 356 q 113 381 94 381 l 1032 381 q 1063 368 1050 381 q 1075 338 1075 356 q 1063 307 1075 319 q 1032 294 1051 294 l 113 294 z "},"‘":{"ha":257,"x_min":82,"x_max":211,"o":"m 132 750 q 97 765 111 750 q 82 799 82 781 q 88 836 82 818 q 113 899 94 854 l 124 926 q 149 981 140 968 q 174 993 157 993 q 200 983 189 993 q 211 958 211 972 q 207 944 211 951 l 175 858 q 192 817 192 842 q 174 770 192 790 q 132 750 156 750 z "},"’":{"ha":257,"x_min":46,"x_max":175,"o":"m 83 750 q 57 760 68 750 q 46 786 46 771 q 50 800 46 792 l 82 885 q 65 926 65 901 q 83 973 65 953 q 125 993 101 993 q 160 978 146 993 q 175 944 175 963 q 169 908 175 926 q 144 844 164 890 l 132 814 q 108 763 117 775 q 83 750 100 750 z "},"‚":{"ha":368,"x_min":122,"x_max":250,"o":"m 160 -140 q 133 -130 144 -140 q 122 -104 122 -119 q 125 -90 122 -99 l 157 -6 q 142 36 142 15 q 160 83 142 63 q 201 103 178 103 q 236 88 222 103 q 250 54 250 72 q 244 16 250 36 q 221 -44 238 -4 l 206 -81 q 183 -128 192 -117 q 160 -140 175 -140 z "},"“":{"ha":428,"x_min":58,"x_max":382,"o":"m 108 742 q 73 757 88 742 q 58 790 58 772 q 65 828 58 810 q 89 890 71 846 l 100 918 q 125 972 117 960 q 150 985 133 985 q 176 974 165 985 q 188 950 188 964 q 183 936 188 943 l 151 850 q 168 808 168 833 q 150 762 168 782 q 108 742 132 742 m 303 750 q 267 765 282 750 q 253 799 253 781 q 259 836 253 818 q 283 899 265 854 l 294 926 q 319 981 311 968 q 344 993 328 993 q 371 983 360 993 q 382 958 382 972 q 378 944 382 951 l 346 858 q 363 817 363 842 q 344 770 363 790 q 303 750 326 750 z "},"”":{"ha":453,"x_min":46,"x_max":371,"o":"m 83 742 q 57 752 68 742 q 46 778 46 763 q 50 792 46 783 l 82 876 q 65 918 65 893 q 83 965 65 944 q 125 985 101 985 q 160 969 146 985 q 175 936 175 954 q 169 900 175 918 q 144 836 164 882 l 132 806 q 108 754 117 767 q 83 742 100 742 m 279 750 q 253 760 264 750 q 242 786 242 771 q 246 800 242 792 l 278 885 q 261 926 261 901 q 279 973 261 953 q 321 993 297 993 q 356 978 342 993 q 371 944 371 963 q 365 908 371 926 q 340 844 360 890 l 328 814 q 304 763 313 775 q 279 750 296 750 z "},"„":{"ha":518,"x_min":99,"x_max":424,"o":"m 136 -140 q 110 -130 121 -140 q 99 -104 99 -119 q 103 -90 99 -97 l 135 -6 q 118 36 118 14 q 136 83 118 63 q 178 103 154 103 q 213 88 199 103 q 228 54 228 72 q 222 18 228 36 q 197 -44 215 0 l 185 -75 q 161 -128 169 -115 q 136 -140 153 -140 m 332 -140 q 306 -130 317 -140 q 294 -104 294 -119 q 297 -90 294 -99 l 329 -6 q 314 36 314 15 q 332 83 314 63 q 374 103 350 103 q 409 88 394 103 q 424 54 424 72 q 417 18 424 36 q 393 -44 411 0 l 381 -75 q 357 -128 365 -115 q 332 -140 349 -140 z "},"•":{"ha":435,"x_min":90,"x_max":343,"o":"m 217 217 q 128 254 165 217 q 90 343 90 292 q 128 433 90 396 q 217 469 165 469 q 306 433 269 469 q 343 343 343 396 q 306 254 343 292 q 217 217 269 217 z "},"…":{"ha":922,"x_min":57,"x_max":867,"o":"m 106 -8 q 70 8 83 -8 q 57 49 57 24 q 75 95 57 75 q 117 115 93 115 q 151 100 138 115 q 165 61 165 85 q 147 12 165 32 q 106 -8 129 -8 m 454 -8 q 419 8 432 -8 q 406 49 406 24 q 424 95 406 75 q 465 115 442 115 q 501 99 486 115 q 515 61 515 83 q 497 12 515 32 q 454 -8 479 -8 m 806 -8 q 770 8 783 -8 q 757 49 757 24 q 775 95 757 75 q 817 115 793 115 q 852 99 838 115 q 867 61 867 83 q 849 12 867 32 q 806 -8 831 -8 z "},"‹":{"ha":479,"x_min":81,"x_max":413,"o":"m 347 96 q 318 107 331 96 l 96 306 q 81 339 81 318 q 96 372 81 360 l 342 583 q 369 594 356 594 q 399 582 386 594 q 413 551 413 569 q 397 518 413 531 l 190 338 l 378 171 q 392 138 392 157 q 378 108 392 119 q 347 96 365 96 z "},"›":{"ha":481,"x_min":67,"x_max":399,"o":"m 132 96 q 102 108 115 96 q 89 138 89 121 q 103 171 89 158 l 290 338 l 82 518 q 67 551 67 532 q 81 582 67 569 q 111 594 94 594 q 139 583 125 594 l 385 372 q 399 339 399 360 q 385 306 399 318 l 163 107 q 132 96 150 96 z "},"⁄":{"ha":222,"x_min":-172,"x_max":393,"o":"m -136 -11 q -162 -1 -151 -11 q -172 24 -172 10 q -165 47 -172 35 l 326 932 q 340 947 331 942 q 357 953 349 953 q 383 942 372 953 q 393 919 393 932 q 383 889 393 908 l -106 7 q -136 -11 -115 -11 z "},"™":{"ha":676,"x_min":15,"x_max":624,"o":"m 140 636 q 119 645 128 636 q 110 667 110 654 l 110 889 l 44 889 q 24 897 33 889 q 15 917 15 906 q 24 939 15 931 q 44 947 33 947 l 242 947 q 261 939 253 947 q 269 917 269 931 q 261 897 269 906 q 242 889 253 889 l 169 889 l 169 667 q 160 646 169 656 q 140 636 151 636 m 285 636 q 266 644 274 636 q 258 665 258 653 q 263 693 258 676 l 319 925 q 330 941 322 935 q 347 947 338 947 q 376 925 368 947 l 438 742 l 507 929 q 517 942 510 938 q 533 947 525 947 q 550 942 543 947 q 560 928 557 936 l 619 692 l 624 667 q 617 645 624 654 q 597 636 610 636 q 568 660 574 636 l 526 826 l 463 656 q 436 636 456 636 q 419 642 428 636 q 408 658 411 649 l 353 824 l 313 660 q 302 642 310 649 q 285 636 294 636 z "},"−":{"ha":619,"x_min":75,"x_max":544,"o":"m 118 299 q 88 310 100 299 q 75 340 75 322 q 88 370 75 358 q 118 382 100 382 l 501 382 q 532 370 519 382 q 544 340 544 358 q 532 310 544 322 q 501 299 519 299 l 118 299 z "},"ı":{"ha":317,"x_min":107,"x_max":206,"o":"m 153 -8 q 121 5 135 -8 q 107 36 107 18 l 115 636 q 129 667 115 654 q 161 681 143 681 q 193 668 181 681 q 206 636 206 656 l 197 36 q 184 5 197 18 q 153 -8 171 -8 z "},"ȷ":{"ha":328,"x_min":-129,"x_max":221,"o":"m 51 -256 q -53 -217 -4 -256 q -125 -121 -103 -179 q -129 -101 -129 -104 q -117 -72 -129 -85 q -85 -60 -104 -60 q -59 -68 -71 -60 q -43 -90 -47 -76 q -4 -156 -26 -135 q 51 -176 18 -176 q 111 -134 88 -176 q 135 -17 135 -92 l 131 307 l 125 644 q 138 676 125 664 q 169 689 150 689 q 199 676 186 689 q 213 646 213 663 l 221 -6 q 175 -190 221 -124 q 51 -256 129 -256 z "},"⁴":{"ha":364,"x_min":3,"x_max":368,"o":"m 276 596 q 250 608 261 596 q 239 635 239 619 l 239 722 l 42 725 q 13 735 24 725 q 3 757 3 744 q 13 785 3 774 l 243 1119 q 275 1138 254 1138 q 301 1127 290 1138 q 313 1100 313 1117 l 313 792 l 331 792 q 358 781 347 792 q 368 757 368 771 q 356 733 368 743 q 329 722 344 722 l 313 722 l 313 635 q 301 608 313 619 q 276 596 290 596 m 239 993 l 99 794 l 239 792 l 239 993 z "},"­":{"ha":558,"x_min":68,"x_max":490,"o":"m 111 297 q 81 310 94 297 q 68 339 68 322 q 81 368 68 356 q 111 381 94 381 l 449 381 q 478 369 467 381 q 490 339 490 357 q 478 310 490 322 q 449 297 467 297 l 111 297 z "},"«":{"ha":782,"x_min":81,"x_max":714,"o":"m 347 88 q 318 99 331 88 l 96 297 q 81 331 81 310 q 96 364 81 351 l 342 575 q 369 586 356 586 q 399 574 386 586 q 413 543 413 561 q 397 510 413 522 l 190 329 l 378 163 q 392 129 392 149 q 378 99 392 111 q 347 88 365 88 m 649 96 q 619 107 632 96 l 397 306 q 382 339 382 318 q 397 372 382 360 l 643 583 q 671 594 657 594 q 701 582 688 594 q 714 551 714 569 q 699 518 714 531 l 492 338 l 679 171 q 693 138 693 157 q 680 108 693 119 q 649 96 667 96 z "},"»":{"ha":776,"x_min":67,"x_max":694,"o":"m 132 88 q 102 100 115 88 q 89 129 89 113 q 103 163 89 150 l 290 329 l 82 510 q 67 543 67 524 q 81 574 67 561 q 111 586 94 586 q 139 575 125 586 l 385 364 q 399 331 399 351 q 385 297 399 310 l 163 99 q 132 88 150 88 m 428 96 q 398 108 411 96 q 385 138 385 121 q 399 171 385 158 l 586 338 l 378 518 q 363 551 363 532 q 376 582 363 569 q 407 594 390 594 q 435 583 421 594 l 681 372 q 694 339 694 360 q 681 306 694 318 l 458 107 q 428 96 446 96 z "}," ":{"ha":464,"x_min":0,"x_max":0,"o":""},"€":{"ha":926,"x_min":85,"x_max":832,"o":"m 581 -8 q 395 42 483 -8 q 252 175 307 93 q 193 346 197 257 l 128 346 q 97 358 110 346 q 85 389 85 371 q 97 420 85 407 q 128 433 110 433 l 190 433 q 201 522 192 458 l 128 522 q 97 535 110 522 q 85 567 85 549 q 97 597 85 585 q 128 610 110 610 l 226 610 q 295 751 244 672 q 424 888 346 829 q 597 947 503 947 q 715 928 661 947 q 818 869 769 910 q 832 836 832 857 q 820 808 832 821 q 792 796 808 796 q 758 811 776 796 q 592 863 693 863 q 478 823 533 863 q 379 724 422 783 q 315 610 336 665 l 571 610 q 603 597 590 610 q 617 567 617 585 q 603 535 617 549 q 571 522 590 522 l 286 522 q 272 433 278 483 l 571 432 q 603 419 590 432 q 617 389 617 407 q 603 358 617 371 q 571 344 590 344 l 276 344 q 337 200 286 261 q 453 108 388 139 q 575 76 519 76 q 729 110 663 76 q 753 115 749 115 q 783 103 771 115 q 794 74 794 92 q 788 50 794 61 q 769 35 781 39 q 581 -8 679 -8 z "},"∕":{"ha":547,"x_min":69,"x_max":478,"o":"m 106 -265 q 80 -256 90 -265 q 69 -233 69 -247 q 75 -211 69 -228 l 413 1017 q 424 1031 414 1025 q 443 1036 433 1036 q 468 1026 458 1036 q 478 1004 478 1017 q 474 988 478 999 q 469 974 471 978 l 133 -250 q 123 -261 132 -257 q 106 -265 114 -265 z "},"µ":{"ha":700,"x_min":92,"x_max":622,"o":"m 581 686 q 610 675 597 686 q 622 647 622 664 l 622 35 q 608 5 622 18 q 576 -8 594 -8 q 542 6 556 -8 q 528 40 528 19 l 528 93 q 436 19 499 51 q 303 -12 374 -12 q 189 25 232 -12 q 211 -137 194 -37 q 221 -215 221 -206 q 210 -244 221 -232 q 179 -256 199 -256 q 151 -246 164 -256 q 136 -221 139 -236 q 108 40 119 -114 q 92 317 96 193 l 92 358 q 96 509 92 429 q 107 635 100 589 q 121 675 111 664 q 149 686 131 686 q 179 675 167 686 q 192 647 192 664 q 188 597 192 631 q 181 521 186 588 q 175 356 175 454 q 189 174 175 236 q 231 88 203 111 q 308 65 260 65 q 428 98 367 65 q 517 161 490 131 q 533 229 533 181 l 540 647 q 552 675 540 664 q 581 686 564 686 z "},"̈":{"ha":0,"x_min":-368,"x_max":0,"o":"m -297 818 q -348 835 -328 818 q -368 881 -368 853 q -345 929 -368 908 q -289 950 -322 950 q -240 932 -261 950 q -218 888 -218 914 q -241 838 -218 858 q -297 818 -264 818 m -79 818 q -128 835 -108 818 q -149 881 -149 853 q -125 929 -149 908 q -71 950 -101 950 q -22 932 -43 950 q 0 888 0 914 q -23 838 0 858 q -79 818 -46 818 z "},"̇":{"ha":0,"x_min":-153,"x_max":0,"o":"m -81 828 q -132 846 -111 828 q -153 892 -153 864 q -129 940 -153 919 q -72 961 -106 961 q -22 943 -43 961 q 0 899 0 925 q -23 849 0 869 q -81 828 -46 828 z "},"̀":{"ha":0,"x_min":-251,"x_max":0,"o":"m -43 768 q -74 782 -60 768 l -235 947 q -251 986 -251 964 q -235 1022 -251 1006 q -199 1038 -218 1038 q -154 1015 -176 1038 l -11 838 q 0 810 0 822 q -13 781 0 793 q -43 768 -26 768 z "},"́":{"ha":0,"x_min":-251,"x_max":0,"o":"m -208 768 q -238 781 -225 768 q -251 810 -251 793 q -240 838 -251 822 l -97 1015 q -53 1038 -75 1038 q -17 1022 -33 1038 q 0 986 0 1006 q -17 947 0 964 l -178 782 q -208 768 -192 768 z "},"̋":{"ha":0,"x_min":-497,"x_max":-28,"o":"m -458 774 q -486 784 -475 774 q -497 813 -497 794 q -494 829 -497 822 q -483 847 -492 836 l -353 1006 q -326 1028 -337 1021 q -299 1036 -315 1036 q -266 1024 -279 1036 q -251 990 -253 1011 q -256 967 -251 976 q -271 946 -260 957 l -418 796 q -458 774 -440 774 m -250 772 q -279 783 -268 772 q -290 813 -290 794 q -275 846 -290 828 l -128 996 q -76 1024 -100 1024 q -42 1009 -56 1024 q -28 974 -28 994 q -33 951 -28 960 q -49 932 -37 942 l -212 790 q -250 772 -233 772 z "},"̂":{"ha":0,"x_min":-419,"x_max":0,"o":"m -378 786 q -407 798 -394 786 q -419 826 -419 810 q -404 860 -419 844 l -237 1010 q -207 1021 -225 1021 q -176 1008 -189 1021 l -14 858 q 0 826 0 844 q -12 799 0 811 q -40 786 -24 786 q -71 797 -60 786 l -208 913 l -351 794 q -378 786 -361 786 z "},"̌":{"ha":0,"x_min":-419,"x_max":0,"o":"m -224 786 q -256 800 -242 786 l -406 949 q -419 981 -419 963 q -407 1008 -419 996 q -379 1021 -394 1021 q -349 1010 -360 1021 l -221 894 l -67 1013 q -40 1021 -57 1021 q -12 1009 -24 1021 q 0 981 0 997 q -15 947 0 961 l -194 797 q -224 786 -207 786 z "},"̆":{"ha":0,"x_min":-446,"x_max":0,"o":"m -225 800 q -350 831 -300 800 q -423 899 -400 861 q -446 963 -446 938 q -435 992 -446 981 q -406 1004 -424 1004 q -365 971 -378 1004 q -307 910 -349 931 q -222 890 -265 890 q -138 910 -178 890 q -82 972 -99 931 q -40 1006 -68 1006 q -12 993 -24 1006 q 0 964 0 981 q -25 899 0 939 q -101 830 -50 860 q -225 800 -151 800 z "},"̊":{"ha":0,"x_min":-335,"x_max":0,"o":"m -181 757 q -290 797 -244 757 q -335 896 -335 838 q -308 976 -335 940 q -240 1033 -282 1013 q -153 1053 -199 1053 q -45 1013 -90 1053 q 0 914 0 972 q -26 833 0 869 q -94 777 -53 797 q -181 757 -136 757 m -176 833 q -101 857 -129 833 q -74 911 -74 881 q -97 957 -74 939 q -158 975 -121 975 q -233 951 -206 975 q -261 897 -261 928 q -237 851 -261 869 q -176 833 -214 833 z "},"̃":{"ha":0,"x_min":-496,"x_max":-4,"o":"m -160 779 q -226 800 -200 779 q -279 860 -251 821 q -320 908 -304 893 q -351 924 -336 924 q -390 900 -369 924 q -422 833 -410 876 q -458 807 -432 807 q -485 817 -474 807 q -496 843 -496 828 q -489 874 -496 857 q -475 904 -482 890 q -419 967 -454 943 q -346 990 -385 990 q -282 971 -306 990 q -228 913 -258 951 q -185 860 -200 875 q -153 846 -171 846 q -114 874 -131 846 q -76 953 -97 901 q -62 971 -72 964 q -42 978 -53 978 q -15 967 -26 978 q -4 943 -4 957 q -10 913 -4 933 q -24 879 -17 893 q -83 807 -49 835 q -160 779 -118 779 z "},"̄":{"ha":0,"x_min":-365,"x_max":0,"o":"m -326 831 q -353 842 -342 831 q -365 872 -365 854 q -353 900 -365 889 q -326 911 -342 911 l -40 911 q -12 900 -24 911 q 0 872 0 889 q -12 843 0 856 q -40 831 -24 831 l -326 831 z "},"̦":{"ha":0,"x_min":-128,"x_max":0,"o":"m -90 -282 q -117 -272 -106 -282 q -128 -247 -128 -261 q -125 -233 -128 -242 l -93 -149 q -108 -106 -108 -128 q -90 -59 -108 -79 q -49 -39 -72 -39 q -14 -54 -28 -39 q 0 -89 0 -69 q -6 -127 0 -107 q -29 -187 -12 -147 l -43 -222 q -67 -270 -58 -258 q -90 -282 -75 -282 z "},"̧":{"ha":0,"x_min":-239,"x_max":0,"o":"m -112 -42 q -35 -77 -69 -42 q 0 -160 0 -112 q -37 -251 0 -214 q -131 -287 -75 -287 q -205 -267 -171 -287 q -239 -215 -239 -246 q -230 -192 -239 -201 q -208 -183 -221 -183 q -178 -199 -193 -183 q -156 -220 -167 -212 q -126 -228 -146 -228 q -81 -208 -100 -228 q -62 -160 -62 -189 q -82 -114 -62 -133 q -128 -94 -101 -94 q -165 -105 -147 -94 q -192 -115 -183 -115 q -209 -108 -201 -115 q -217 -89 -217 -100 q -207 -49 -217 -79 q -194 -11 -197 -19 l -183 22 q -172 44 -178 38 q -157 50 -165 50 q -137 24 -136 50 l -143 -46 q -112 -42 -131 -42 z "},"̨":{"ha":0,"x_min":-285,"x_max":0,"o":"m -137 -278 q -243 -236 -201 -276 q -285 -135 -285 -196 q -245 -28 -285 -76 q -150 54 -206 21 q -126 60 -139 60 q -105 49 -114 60 q -96 24 -96 39 q -132 -18 -96 8 q -192 -72 -169 -44 q -215 -136 -215 -99 q -193 -187 -215 -167 q -137 -207 -171 -207 q -57 -178 -94 -207 q -35 -171 -49 -171 q -11 -181 -22 -171 q 0 -206 0 -192 q -24 -242 0 -225 q -82 -268 -49 -258 q -137 -278 -115 -278 z "}}}
